<?xml version="1.0" encoding="UTF-8"?>
<svg width="31px" height="35px" viewBox="0 0 31 35" version="1.1" xmlns="http://www.w3.org/2000/svg" xmlns:xlink="http://www.w3.org/1999/xlink">
    <!-- Generator: Sketch 51.2 (57519) - http://www.bohemiancoding.com/sketch -->
    <title>Group 8</title>
    <desc>Created with Sketch.</desc>
    <defs></defs>
    <g id="testing-4" stroke="none" stroke-width="1" fill="none" fill-rule="evenodd">
        <g id="Drugs-info_M1.1-Copy" transform="translate(-270.000000, -1360.000000)">
            <g id="Group-8" transform="translate(270.000000, 1360.000000)">
                <path d="M21.3047567,19.52921 C21.0991312,19.6040791 20.8331032,19.6630277 20.5465126,19.6251629 C20.2470705,19.3596789 19.3860136,18.4453296 19.4494148,16.7766959 C19.7171564,16.8760911 19.9964644,16.9716137 20.2989052,17.0563792 C20.6531809,17.1553441 20.9963184,17.2293526 21.3308883,17.2857196 C21.1136963,17.9952546 21.0991312,18.802894 21.3047567,19.52921 M16.8516791,13.7294387 C16.0951485,13.1309164 15.3810282,12.5655258 14.447574,12.3288707 C13.9300831,12.1976347 13.3787497,12.1059846 12.8449801,12.0177768 C11.5962335,11.8112414 10.3046482,11.5978215 9.85484235,10.9029161 C9.60509302,10.5173834 9.58110338,9.95156254 9.78244503,9.1723218 C10.5355485,6.2528583 14.4222992,4.44567382 17.5915025,4.44567382 C17.9971846,4.44567382 18.3904434,4.47536328 18.7592841,4.53431192 C23.8249545,5.3410907 26.6047545,9.12111824 26.2757537,12.1602001 C26.1151087,13.6347766 25.4202658,16.1080377 22.5676401,16.1080377 C21.9914603,16.1080377 21.3445967,16.0086425 20.6450415,15.8128642 C18.8483885,15.3098645 17.7872752,14.4703843 16.8516791,13.7294387 M22.655031,17.3937203 C26.6857196,17.3356323 27.4234011,13.4871899 27.5527738,12.3000418 C27.946461,8.67276438 24.7734022,4.18492292 18.9601974,3.25981658 C18.5249567,3.19054117 18.0648696,3.15525805 17.5915025,3.15525805 C13.8632548,3.15525805 9.45772807,5.28515404 8.53798225,8.84874972 C8.24153879,9.99846328 8.31950514,10.901195 8.7774503,11.6072877 C9.53697957,12.779376 11.1125851,13.0401269 12.6363559,13.2922721 C13.1439939,13.3761771 13.668339,13.4626638 14.1331383,13.5809914 C14.8014213,13.7505225 15.355325,14.1889799 16.0561653,14.7440437 C16.64434,15.2096088 17.3224758,15.7418677 18.2096643,16.2177596 C17.8382532,19.2486661 19.8101162,20.6944137 19.8987922,20.7572349 C19.9664773,20.8054265 20.0435869,20.839849 20.1241235,20.8587814 C20.3297491,20.9065427 20.5293772,20.926766 20.7204375,20.926766 C21.7112955,20.926766 22.4554029,20.3803078 22.4918157,20.3532001 C22.7415651,20.1660274 22.8221017,19.8265349 22.6824477,19.5468516 C22.3667269,18.9104645 22.3667269,18.0266652 22.655031,17.3937203 M17.4681272,0 C10.0064912,0 3.93582608,6.09752649 3.93582608,13.5921787 L3.93582608,14.4153082 L0.0760637135,21.6556637 C-0.030604525,21.8557449 -0.024607114,22.0967028 0.091057241,22.2920508 C0.207149983,22.4869686 0.416630981,22.6057264 0.642390667,22.6057264 L3.93582608,22.6057264 L3.93582608,27.5247105 C3.93582608,29.7333481 5.7247681,31.5302058 7.92367601,31.5302058 L13.5788062,31.5302058 L13.5788062,34.354577 C13.5788062,34.7112808 13.8662535,35 14.2213859,35 C14.57609,35 14.8639657,34.7112808 14.8639657,34.354577 L14.8639657,30.8847828 C14.8639657,30.528079 14.57609,30.2393597 14.2213859,30.2393597 L7.92324762,30.2393597 C6.43289099,30.2393597 5.22055719,29.0216616 5.22055719,27.5247105 L5.22055719,21.9594428 C5.22055719,21.6031693 4.93268147,21.3140198 4.57797744,21.3140198 L1.71507046,21.3140198 L5.1443044,14.8813036 C5.19442562,14.7875022 5.22055719,14.6829436 5.22055719,14.576664 L5.22055719,13.5917484 C5.22055719,6.80878267 10.7141857,1.29041578 17.4676988,1.29041578 C24.2216404,1.29041578 29.7148405,6.80878267 29.7148405,13.5917484 C29.7148405,16.8709277 28.4463881,19.945723 26.1403835,22.2645128 C25.9711709,22.3819798 25.8640742,22.5786187 25.8640742,22.7954808 L25.8640742,34.3537164 C25.8640742,34.7104202 26.1515216,34.9991394 26.506654,34.9991394 C26.8609296,34.9991394 27.1492338,34.7104202 27.1492338,34.3537164 L27.1492338,23.076455 C29.6347322,20.5261734 31,17.1691131 31,13.5921787 C31.0004284,6.09709621 24.9297633,0 17.4681272,0" id="Fill-1" fill="#000000"></path>
                <g id="Group-12" transform="translate(11.000000, 8.000000)">
                    <polygon id="Triangle-2" fill="#FFFFFF" points="7.5 1 13 12 2 12"></polygon>
                    <path d="M2.30012632,11.5175529 L7.58181053,2.47684706 L12.8651789,11.4310824 L2.30012632,11.5175529 Z M8.30854737,0.412258824 C8.15781053,0.156964706 7.87991579,0.000494117647 7.57928421,0.000494117647 L7.5776,0.000494117647 C7.27528421,0.00131764706 6.99738947,0.159435294 6.84749474,0.415552941 L0.110652632,11.9449647 C-0.120084211,12.3394353 0.0205473684,12.8417882 0.423073684,13.0682588 C0.551073684,13.1390824 0.695915789,13.1769647 0.842442105,13.1769647 L0.848336842,13.1769647 L14.3220211,13.0657882 C14.7877053,13.0616706 15.1616,12.6894353 15.1582316,12.2348471 C15.1565474,12.0923765 15.1178105,11.9532 15.0453895,11.8304941 L8.30854737,0.412258824 Z" id="Fill-4" fill="#000000"></path>
                    <polygon id="Fill-7" fill="#000000" points="7 8 8 8 8 5 7 5"></polygon>
                    <polygon id="Fill-9" fill="#000000" points="7 9.83333333 8 9.83333333 8 9 7 9"></polygon>
                </g>
            </g>
        </g>
    </g>
</svg>