<?xml version="1.0" encoding="UTF-8"?>
<svg width="31px" height="31px" viewBox="0 0 31 31" version="1.1" xmlns="http://www.w3.org/2000/svg" xmlns:xlink="http://www.w3.org/1999/xlink">
    <!-- Generator: Sketch 51.2 (57519) - http://www.bohemiancoding.com/sketch -->
    <title>Group 9</title>
    <desc>Created with Sketch.</desc>
    <defs></defs>
    <g id="testing-4" stroke="none" stroke-width="1" fill="none" fill-rule="evenodd">
        <g id="Drugs-info_M1.1-Copy" transform="translate(-269.000000, -1115.000000)" fill="#000000">
            <g id="Group-9" transform="translate(270.000000, 1116.000000)">
                <g id="Group-7">
                    <path d="M6.15151515,21.9697107 C6.15151515,22.454917 6.54508298,22.8484848 7.0302893,22.8484848 C7.51552308,22.8484848 7.90909091,22.454917 7.90909091,21.9697107 C7.90909091,21.4844769 7.51552308,21.0909091 7.0302893,21.0909091 C6.54508298,21.0909091 6.15151515,21.4844769 6.15151515,21.9697107 Z M21.969697,7.03030303 C21.969697,7.51551693 22.3632709,7.90909091 22.8484848,7.90909091 C23.3336987,7.90909091 23.7272727,7.51551693 23.7272727,7.03030303 C23.7272727,6.54508913 23.3336987,6.15151515 22.8484848,6.15151515 C22.3632709,6.15151515 21.969697,6.54508913 21.969697,7.03030303 Z M21.0909091,21.9697107 C21.0909091,22.454917 21.4844769,22.8484848 21.9696832,22.8484848 C22.4548896,22.8484848 22.8484848,22.454917 22.8484848,21.9697107 C22.8484848,21.4844769 22.4548896,21.0909091 21.9696832,21.0909091 C21.4844769,21.0909091 21.0909091,21.4844769 21.0909091,21.9697107 Z M6.15151515,7.03030303 C6.15151515,7.51551693 6.54508298,7.90909091 7.0302893,7.90909091 C7.51552308,7.90909091 7.90909091,7.51551693 7.90909091,7.03030303 C7.90909091,6.54508913 7.51552308,6.15151515 7.0302893,6.15151515 C6.54508298,6.15151515 6.15151515,6.54508913 6.15151515,7.03030303 Z M13.1818182,25.4848622 C13.1818182,25.9700685 13.575386,26.3636364 14.0605923,26.3636364 C14.5457987,26.3636364 14.9393939,25.9700685 14.9393939,25.4848622 C14.9393939,24.9996284 14.5457987,24.6060606 14.0605923,24.6060606 C13.575386,24.6060606 13.1818182,24.9996284 13.1818182,25.4848622 Z M13.1818182,3.51515152 C13.1818182,4.00036542 13.575386,4.39393939 14.0605923,4.39393939 C14.5457987,4.39393939 14.9393939,4.00036542 14.9393939,3.51515152 C14.9393939,3.02993761 14.5457987,2.63636364 14.0605923,2.63636364 C13.575386,2.63636364 13.1818182,3.02993761 13.1818182,3.51515152 Z M24.6060606,14.0606198 C24.6060606,14.5458261 24.9996284,14.9393939 25.4848348,14.9393939 C25.9700411,14.9393939 26.3636364,14.5458261 26.3636364,14.0606198 C26.3636364,13.5754135 25.9700411,13.1818182 25.4848348,13.1818182 C24.9996284,13.1818182 24.6060606,13.5754135 24.6060606,14.0606198 Z M2.63636364,14.0606198 C2.63636364,14.5458261 3.02993147,14.9393939 3.51513779,14.9393939 C4.00037156,14.9393939 4.39393939,14.5458261 4.39393939,14.0606198 C4.39393939,13.5754135 4.00037156,13.1818182 3.51513779,13.1818182 C3.02993147,13.1818182 2.63636364,13.5754135 2.63636364,14.0606198 Z M17.6930954,19.2060162 C17.7803928,19.2914577 17.8944867,19.3333333 18.0085806,19.3333333 C18.1226745,19.3333333 18.2367684,19.29034 18.324038,19.2060162 C18.4980479,19.035733 18.4980479,18.7593431 18.324038,18.5890599 L14.0728982,14.4294167 L14.0728982,8.34515879 C14.0728982,8.10451039 13.8732339,7.90909091 13.6273861,7.90909091 C13.3814825,7.90909091 13.1818182,8.10451039 13.1818182,8.34515879 L13.1818182,14.6097599 C13.1818182,14.725872 13.2291716,14.8364497 13.3119008,14.9185107 L17.6930954,19.2054437 L17.6930954,19.2060162 Z" id="Fill-1"></path>
                    <path d="M29,14.5 C29,22.4947109 22.4947109,29 14.5,29 C6.50526074,29 0,22.4947109 0,14.5 C0,6.50528906 6.50526074,0 14.5,0 C22.4947109,0 29,6.50528906 29,14.5 Z M14.5000142,0.878787879 C6.9891016,0.878787879 0.878787879,6.98910796 0.878787879,14.5000284 C0.878787879,22.0109204 6.9891016,28.1212121 14.5000142,28.1212121 C22.0108984,28.1212121 28.1212121,22.0109204 28.1212121,14.5000284 C28.1212121,6.98910796 22.0103309,0.878787879 14.5000142,0.878787879 Z" id="Combined-Shape" stroke="#000000"></path>
                </g>
            </g>
        </g>
    </g>
</svg>