<?xml version="1.0" encoding="UTF-8"?>
<svg width="32px" height="44px" viewBox="0 0 32 44" version="1.1" xmlns="http://www.w3.org/2000/svg" xmlns:xlink="http://www.w3.org/1999/xlink">
    <!-- Generator: Sketch 51.2 (57519) - http://www.bohemiancoding.com/sketch -->
    <title>Group 8</title>
    <desc>Created with Sketch.</desc>
    <defs></defs>
    <g id="Page-1" stroke="none" stroke-width="1" fill="none" fill-rule="evenodd">
        <g id="New-FRANK-visual-concept---Cocaine---Mobile-Copy-15" transform="translate(-253.000000, -1166.000000)">
            <g id="Group-8" transform="translate(253.000000, 1166.000000)">
                <g id="Group-5" fill="#000000">
                    <path d="M27.2920305,31.5920235 C30.3281175,27.7420308 32,22.6189738 32,17.1649397 C32,10.7590407 30.0239133,5.89313882 26.2841369,3.09278856 C21.4322535,-0.540137894 13.386474,-1.0353814 7.56937487,1.94096852 C2.6882124,4.43820824 0,9.84482022 0,17.1649397 C0,21.4823093 0.925515252,27.6457199 5.33424313,32.4940218 C6.41210862,33.6790862 7.68946854,34.9472616 9.20651955,35.9881041 C9.23579858,37.4156569 9.02538654,39.6200527 7.90186561,40.8813837 C7.26566692,41.5951601 6.39771723,41.9427595 5.24987981,41.9427595 L5.24987981,44 C7.00959943,44 8.42988074,43.4074678 9.47102337,42.2380478 C10.7548346,40.797295 11.1627561,38.7552099 11.2649846,37.1633907 C12.570631,37.7613007 14.0236652,38.1538777 15.6414559,38.2037443 C15.7630383,38.2081443 15.883132,38.209611 16.0037219,38.209611 C17.6388816,38.209611 19.2110169,37.856145 20.7345192,37.153613 C20.8352589,38.7464099 21.2426841,40.7943616 22.5284804,42.2380478 C23.5701193,43.4074678 24.9904006,44 26.7501202,44 L26.7501202,41.9427595 C25.6037715,41.9427595 24.7378069,41.5966268 24.1011119,40.8848059 C22.9031528,39.5437862 22.7671789,37.258235 22.7979467,35.9646374 C24.3383217,34.8949506 25.8320488,33.4439311 27.2920305,31.5920235 Z M16.907402,36.0663261 C12.7423352,36.4398365 9.52164136,34.0173967 6.88851325,31.1212244 C2.92095591,26.7574104 2.08824031,21.1229766 2.08824031,17.1649397 C2.08824031,13.3921913 2.92492595,6.63478186 8.53012422,3.76647617 C10.7999938,2.60487837 13.4465208,2.03630167 16.0612875,2.03630167 C19.3757735,2.03630167 22.6386489,2.95101105 25.0147171,4.73056324 C29.0567126,7.75824639 29.9053084,13.1633917 29.9053084,17.1649397 C29.9053084,22.1638191 28.3892499,26.8395436 25.6370206,30.3302037 C23.4281904,33.1320206 20.6690135,35.7299712 16.907402,36.0663261 Z M18.7807639,4.55896356 C18.8482546,4.21038645 19.1906704,3.98158688 19.5445001,4.04905342 C19.6323372,4.06518672 19.7191818,4.0822978 19.8060264,4.10038665 C20.1583673,4.17323096 20.3846595,4.51398587 20.3107176,4.86158521 C20.2462044,5.16469575 19.974753,5.37296202 19.6725338,5.37296202 C19.6283672,5.37296202 19.583208,5.36807314 19.5380488,5.35878427 C19.458648,5.34265097 19.3792472,5.32700655 19.298854,5.31136214 C18.944528,5.24438449 18.712777,4.90754068 18.7807639,4.55896356 Z M17.3153234,14.9370772 L17.5699021,14.9370772 C17.9306794,14.9370772 18.2229735,15.2245434 18.2229735,15.5799649 C18.2229735,15.9353865 17.9306794,16.2228526 17.5699021,16.2228526 L17.3153234,16.2228526 C16.9545462,16.2228526 16.6622521,15.9353865 16.6622521,15.5799649 C16.6622521,15.2245434 16.9545462,14.9370772 17.3153234,14.9370772 Z M15.4677667,4.39176388 C15.4692555,4.03683122 15.7610533,3.75034287 16.1203418,3.75034287 L16.1223268,3.75034287 C16.2106602,3.75083176 16.2984973,3.75180954 16.3848456,3.75278731 C16.7451266,3.7571873 17.0334507,4.04905342 17.0284881,4.40447497 C17.0240218,4.7564743 16.7327203,5.03856266 16.375913,5.03856266 L16.3669804,5.03856266 C16.2850984,5.03758488 16.2022238,5.0366071 16.118853,5.0366071 C15.7580758,5.03514044 15.4667742,4.74669654 15.4677667,4.39176388 Z M20.636757,14.9370772 L20.8923282,14.9370772 C21.2526092,14.9370772 21.5449033,15.2245434 21.5449033,15.5799649 C21.5449033,15.9353865 21.2526092,16.2228526 20.8923282,16.2228526 L20.636757,16.2228526 C20.2759797,16.2228526 19.9841819,15.9353865 19.9841819,15.5799649 C19.9841819,15.2245434 20.2759797,14.9370772 20.636757,14.9370772 Z M13.9924011,14.9370772 L14.2479723,14.9370772 C14.6087496,14.9370772 14.9005474,15.2245434 14.9005474,15.5799649 C14.9005474,15.9353865 14.6087496,16.2228526 14.2479723,16.2228526 L13.9924011,16.2228526 C13.6321201,16.2228526 13.339826,15.9353865 13.339826,15.5799649 C13.339826,15.2245434 13.6321201,14.9370772 13.9924011,14.9370772 Z M21.9756525,5.42380637 C22.1443791,5.11042919 22.5398942,4.99114052 22.8579936,5.15785132 C22.9393794,5.20038457 23.0197727,5.24340671 23.0981809,5.28789552 C23.411814,5.4634063 23.52099,5.85598333 23.3428345,6.16447163 C23.2227409,6.37273791 23.0019075,6.48958213 22.7746228,6.48958213 C22.665943,6.48958213 22.5547819,6.46269329 22.4530496,6.4054934 C22.3845665,6.36736014 22.3160833,6.33020465 22.2456151,6.29304917 C21.9275158,6.12682726 21.8064296,5.73767244 21.9756525,5.42380637 Z M23.3061117,15.5799649 C23.3061117,15.2245434 23.5984058,14.9370772 23.9586868,14.9370772 L24.214258,14.9370772 C24.574539,14.9370772 24.8668331,15.2245434 24.8668331,15.5799649 C24.8668331,15.9353865 24.574539,16.2228526 24.214258,16.2228526 L23.9586868,16.2228526 C23.5984058,16.2228526 23.3061117,15.9353865 23.3061117,15.5799649 Z M6.245367,10.5209523 C6.22055425,10.5957521 6.19623777,10.6700631 6.1739063,10.7438852 C6.08805422,11.0220624 5.82950545,11.2014843 5.54912147,11.2014843 C5.48659337,11.2014843 5.423569,11.1926843 5.36054464,11.1736177 C5.01515128,11.0709512 4.82012313,10.7125964 4.92433665,10.3723303 C4.9501419,10.2872638 4.97793217,10.2017084 5.00671495,10.1156642 C5.12085356,9.77882035 5.4905634,9.59695402 5.83198673,9.70842048 C6.1739063,9.82037582 6.35900935,10.1841085 6.245367,10.5209523 Z M24.5700727,8.19189002 C24.3487431,7.91126833 24.4008498,7.50744687 24.6857001,7.28989173 C24.9705504,7.07184769 25.3804569,7.12318093 25.6012903,7.40331373 C25.6583596,7.47566915 25.7134439,7.54900235 25.7680319,7.62233554 C25.9789402,7.90980166 25.9134345,8.31166757 25.6216367,8.51993384 C25.5055131,8.60206702 25.3720205,8.64166694 25.2395205,8.64166694 C25.0370485,8.64166694 24.8380503,8.54926712 24.7100166,8.37571189 C24.6648574,8.31411201 24.6182095,8.25251213 24.5700727,8.19189002 Z M7.29841974,16.2228526 C6.93813873,16.2150304 6.6517997,15.9212087 6.65973978,15.5662761 C6.6671836,15.2113434 6.95749267,14.924855 7.32571375,14.9370772 L7.60411271,14.9370772 C7.96488997,14.9370772 8.25668781,15.2245434 8.25668781,15.5799649 C8.25668781,15.9353865 7.96488997,16.2228526 7.60411271,16.2228526 L7.29841974,16.2228526 Z M26.3546051,10.1019753 C26.7039685,10.0120199 27.0602795,10.2183306 27.1515903,10.56153 C27.1744181,10.648552 27.1967495,10.7355741 27.217096,10.8221073 C27.298978,11.1682399 27.0806259,11.5138837 26.7297737,11.5945502 C26.6801483,11.6062836 26.6300265,11.6116613 26.5808973,11.6116613 C26.2846332,11.6116613 26.0161593,11.4112173 25.9456911,11.1144623 C25.9278259,11.0386846 25.9089683,10.962907 25.8886218,10.8866405 C25.7973109,10.5434411 26.0062342,10.1919307 26.3546051,10.1019753 Z M26.9555697,13.3433025 C27.3034443,13.4376579 27.5079013,13.7911239 27.4121241,14.1338343 C27.3833413,14.2379675 27.3471147,14.3421006 27.3054293,14.4433004 C27.2027046,14.6931222 26.958051,14.8446774 26.700991,14.8446774 C26.6191089,14.8446774 26.5357381,14.8295219 26.4553448,14.7972553 C26.1218616,14.6637889 25.9605788,14.2888118 26.0960563,13.9597902 C26.118884,13.9055236 26.1377417,13.8497904 26.1536219,13.7930794 C26.2489028,13.4508578 26.6076951,13.249436 26.9555697,13.3433025 Z M6.67214615,8.17917893 C6.3947397,7.95233492 6.35603182,7.54704679 6.58579781,7.27375842 C6.64435588,7.20433633 6.70440271,7.13491424 6.76593831,7.06646993 C7.00513314,6.80051487 7.41801715,6.77655936 7.68748352,7.01171448 C7.95744615,7.24735847 7.98176264,7.65362437 7.74256781,7.91957942 C7.69095731,7.97677931 7.64033931,8.03495698 7.59071383,8.09362354 C7.46218383,8.24762325 7.27559202,8.3268231 7.08800769,8.3268231 C6.94111626,8.3268231 6.79372858,8.27842319 6.67214615,8.17917893 Z M5.78136873,13.6698796 C5.84786688,14.0189457 5.61413086,14.3553006 5.26030116,14.4203227 C5.21960827,14.4281449 5.17891537,14.4315671 5.13921499,14.4315671 C4.83104074,14.4315671 4.55710807,14.2159675 4.49855001,13.9069903 C4.47820356,13.8004127 4.46430842,13.6913907 4.45636835,13.5828576 C4.43205186,13.2289027 4.7039995,12.9218811 5.063288,12.8974367 C5.42605028,12.8754367 5.73422452,13.1409029 5.75903727,13.4953466 C5.7630073,13.5545021 5.77045113,13.6131686 5.78136873,13.6698796 Z M10.6704713,14.9370772 L10.9260425,14.9370772 C11.2868198,14.9370772 11.5786176,15.2245434 11.5786176,15.5799649 C11.5786176,15.9353865 11.2868198,16.2228526 10.9260425,16.2228526 L10.6704713,16.2228526 C10.3101903,16.2228526 10.0178962,15.9353865 10.0178962,15.5799649 C10.0178962,15.2245434 10.3101903,14.9370772 10.6704713,14.9370772 Z M12.1761084,4.77847426 C12.1115953,4.42891937 12.3458276,4.09452 12.7006498,4.03047568 C12.7869981,4.01483126 12.874339,3.99967573 12.9631686,3.98549798 C13.3194796,3.92732031 13.6544516,4.16443098 13.7135059,4.51496365 C13.772064,4.86500743 13.5313804,5.19598458 13.1760619,5.25367336 C13.0951724,5.26736222 13.0147791,5.28105109 12.9353783,5.29522884 C12.8956779,5.30256216 12.8564738,5.30598437 12.8172697,5.30598437 C12.5081029,5.30598437 12.233674,5.08891812 12.1761084,4.77847426 Z M9.09337345,5.96500535 C8.92960935,5.64869483 9.05714684,5.26100668 9.37822372,5.10016254 C9.458617,5.05958484 9.54000279,5.01998491 9.6233736,4.98136276 C9.94842051,4.82834083 10.3374843,4.96474057 10.4928121,5.28545108 C10.6476436,5.60616158 10.5096847,5.98944974 10.1841416,6.14198279 C10.1121846,6.17620495 10.0407239,6.21091599 9.97075198,6.24562704 C9.87596731,6.29304917 9.77473132,6.3160269 9.6749841,6.3160269 C9.43727804,6.3160269 9.20850457,6.18793826 9.09337345,5.96500535 Z" id="Fill-1"></path>
                </g>
                <text id="?-copy-2" font-family=".AppleSystemUIFont" font-size="11" font-weight="normal" line-spacing="21" fill="#1C1C1C">
                    <tspan x="13" y="11">?</tspan>
                </text>
            </g>
        </g>
    </g>
</svg>