<?xml version="1.0" encoding="UTF-8"?>
<svg width="28px" height="36px" viewBox="0 0 28 36" version="1.1" xmlns="http://www.w3.org/2000/svg" xmlns:xlink="http://www.w3.org/1999/xlink">
    <!-- Generator: Sketch 51.2 (57519) - http://www.bohemiancoding.com/sketch -->
    <title>Group 14</title>
    <desc>Created with Sketch.</desc>
    <defs></defs>
    <g id="testing-4" stroke="none" stroke-width="1" fill="none" fill-rule="evenodd">
        <g id="Drugs-info_M1.1-Copy" transform="translate(-272.000000, -1525.000000)">
            <g id="Group-14" transform="translate(272.000000, 1525.000000)">
                <path d="M2.76433222,14.3678182 L3.54005068,16.4458636 C3.6609584,16.7646818 4.01159078,16.9310909 4.33517801,16.8238636 L5.89647845,16.3068182 L7.57677754,17.7386364 L7.32828036,18.9617273 C7.29391711,19.1306818 7.32987125,19.3063182 7.42755196,19.4488636 L10.0824309,23.2769091 L8.88926262,25.6632727 C4.56553903,23.7659545 1.50625561,19.5328636 1.29275804,14.5568182 L2.76433222,14.3678182 Z M7.46732423,3.07236364 L7.01010216,5.60795455 C6.94901194,5.94713636 7.16950944,6.27359091 7.50709651,6.34359091 L11.7430029,7.2485 L16.9232622,13.2939545 L12.6278565,17.0128636 C12.4092681,17.2040909 12.3478597,17.5187727 12.4786309,17.7784091 L13.1149873,19.0511364 C13.2527585,19.3308182 13.5725276,19.4695455 13.8706606,19.3791818 L22.1432938,16.8337273 C22.3090647,16.7805909 22.4452449,16.6619091 22.5212895,16.5056818 L25.3848934,10.7784091 C25.4288019,10.6918636 25.4529835,10.5967273 25.4545744,10.5 L25.4545744,8.44168182 C26.2700651,10.1210455 26.7272872,12.005 26.7272872,14 C26.7272872,21.0365909 21.03667,26.7272727 14.0001591,26.7272727 C12.6316746,26.7272727 11.3169623,26.509 10.0824309,26.1106364 L11.3850524,23.5056818 C11.4903694,23.2988636 11.4750969,23.0513182 11.3452802,22.8591364 L8.63058374,18.9416818 L8.89912615,17.6193182 C8.94398927,17.3940455 8.86412654,17.1624091 8.69040125,17.0128636 L6.46315383,15.1037727 C6.29292849,14.9580455 6.05874933,14.9128636 5.84684265,14.9841364 L4.51431234,15.4318182 L3.77868433,13.4530455 C3.67495824,13.1768636 3.39496142,13.0082273 3.10223747,13.0454545 L1.30262156,13.2739091 C1.54602789,8.93295455 3.95081874,5.17745455 7.46732423,3.07236364 Z M14.0001591,1.27272727 C18.1651118,1.27272727 21.8610698,3.26677273 24.1818616,6.35377273 L24.1818616,10.3507727 L21.5171191,15.6901818 L14.0100226,17.997 L13.8308883,17.6590909 L18.2357473,13.8409091 C18.5011079,13.6124545 18.5322894,13.2125 18.3054283,12.9458636 L12.5782207,6.26404545 C12.4853127,6.1565 12.3593141,6.083 12.2202702,6.05531818 L8.37222304,5.22995455 L8.89912615,2.33640909 C10.4620175,1.65231818 12.1827252,1.27272727 14.0001591,1.27272727 Z M14.0001591,0 C6.27574687,0 0,6.2755 0,14 C0,21.7241818 6.27574687,28 14.0001591,28 C21.7242531,28 28,21.7241818 28,14 C28,6.2755 21.7242531,0 14.0001591,0 Z" id="Fill-1" fill="#000000"></path>
                <g id="Group-12" transform="translate(12.000000, 22.000000)">
                    <polygon id="Triangle-2" fill="#FFFFFF" points="7.5 1 13 12 2 12"></polygon>
                    <path d="M2.30012632,11.5175529 L7.58181053,2.47684706 L12.8651789,11.4310824 L2.30012632,11.5175529 Z M8.30854737,0.412258824 C8.15781053,0.156964706 7.87991579,0.000494117647 7.57928421,0.000494117647 L7.5776,0.000494117647 C7.27528421,0.00131764706 6.99738947,0.159435294 6.84749474,0.415552941 L0.110652632,11.9449647 C-0.120084211,12.3394353 0.0205473684,12.8417882 0.423073684,13.0682588 C0.551073684,13.1390824 0.695915789,13.1769647 0.842442105,13.1769647 L0.848336842,13.1769647 L14.3220211,13.0657882 C14.7877053,13.0616706 15.1616,12.6894353 15.1582316,12.2348471 C15.1565474,12.0923765 15.1178105,11.9532 15.0453895,11.8304941 L8.30854737,0.412258824 Z" id="Fill-4" fill="#000000"></path>
                    <polygon id="Fill-7" fill="#000000" points="7 8 8 8 8 5 7 5"></polygon>
                    <polygon id="Fill-9" fill="#000000" points="7 9.83333333 8 9.83333333 8 9 7 9"></polygon>
                </g>
            </g>
        </g>
    </g>
</svg>