<?xml version="1.0" encoding="UTF-8"?>
<svg width="49px" height="49px" viewBox="0 0 49 49" version="1.1" xmlns="http://www.w3.org/2000/svg" xmlns:xlink="http://www.w3.org/1999/xlink">
    <!-- Generator: Sketch 51.2 (57519) - http://www.bohemiancoding.com/sketch -->
    <title>Artboard</title>
    <desc>Created with Sketch.</desc>
    <defs></defs>
    <g id="Artboard" stroke="none" stroke-width="1" fill="none" fill-rule="evenodd">
        <g id="Group-10" transform="translate(7.000000, 0.000000)" fill="#1C1C1C" fill-rule="nonzero">
            <path d="M3.89799582,26.6679688 L3.43777082,26.6679688 L3.62189461,26.8320726 L3.89799582,26.6679688 Z M4.05181617,26.6679688 C4.71469615,27.7429621 5.83191222,28.6119119 7.41978173,29.2703078 C9.82208024,30.2663995 13.9978361,30.8979492 17.8952637,30.8979492 L17.8952637,31.8979492 C13.8773773,31.8979492 9.57782182,31.2476758 7.03676123,30.1940477 C5.44538874,29.5341992 4.24674192,28.6601251 3.45266412,27.5685517 C1.94871778,29.3139562 1.19238281,30.528806 1.19238281,31.0944824 C1.19238281,32.0220545 1.51646143,32.508091 2.92477216,33.7311304 C5.12141488,35.6387922 15.8735121,41.5617676 18.0698242,41.5617676 L18.0698242,42.5617676 C15.5657281,42.5617676 4.63362055,36.5396304 2.2690755,34.4861548 C0.662246904,33.0907137 0.192382812,32.3860357 0.192382812,31.0944824 C0.192382812,30.1306654 1.16642067,28.6250499 3.12577434,26.4242843 C3.16332842,17.8150106 5.19389366,11.8574788 8.5977932,8.01428619 C9.65511633,6.82050933 10.7829163,5.90581368 11.9622972,5.1993251 C12.3912331,4.9423781 12.8009712,4.72809325 13.2278206,4.52853797 C13.414432,4.44129578 13.8980094,4.22754907 13.9549429,4.19948236 C14.7278736,3.81844762 15.9896587,2.69203489 17.6948743,0.839590434 L18.430614,1.51685488 C16.6446186,3.45705365 15.315258,4.64379196 14.3971079,5.09641608 C14.3174924,5.13566443 13.8205293,5.35532776 13.6513314,5.43442902 C13.2536962,5.62032646 12.8737106,5.81905137 12.4761831,6.05718362 C11.3815099,6.71292947 10.3331778,7.56317319 9.34638826,8.67731368 C6.08192252,12.3630778 4.12524414,18.1598815 4.12524414,26.6679688 L4.05181617,26.6679688 Z" id="Combined-Shape"></path>
            <path d="M20.705613,26.8283783 L20.245388,26.8283783 L20.4295118,26.9924822 L20.705613,26.8283783 Z M20.8594334,26.8283783 C21.5223133,27.9033716 22.6395294,28.7723214 24.2273989,29.4307174 C26.6296974,30.4268091 30.8054533,31.0583588 34.7028809,31.0583588 L34.7028809,32.0583588 C30.6849945,32.0583588 26.385439,31.4080854 23.8443784,30.3544572 C22.2530059,29.6946088 21.0543591,28.8205347 20.2602813,27.7289613 C18.756335,29.4743657 18,30.6892156 18,31.254892 C18,32.1824641 18.3240786,32.6685005 19.7323893,33.8915399 C21.9290321,35.7992018 32.6811292,41.7221771 34.8774414,41.7221771 L34.8774414,42.7221771 C32.3733452,42.7221771 21.4412377,36.70004 19.0766927,34.6465644 C17.4698641,33.2511232 17,32.5464453 17,31.254892 C17,30.291075 17.9740379,28.7854595 19.9333915,26.5846939 C19.9709456,17.9754202 22.0015108,12.0178884 25.4054104,8.17469576 C26.4627335,6.9809189 27.5905335,6.06622324 28.7699143,5.35973466 C29.1988503,5.10278767 29.6085884,4.88850281 30.0354378,4.68894753 C30.2220491,4.60170535 30.7056266,4.38795864 30.7625601,4.35989192 C31.5354907,3.97885719 32.7972759,2.85244445 34.5024915,1 L35.2382312,1.67726444 C33.4522358,3.61746322 32.1228751,4.80420153 31.2047251,5.25682564 C31.1251096,5.29607399 30.6281465,5.51573733 30.4589486,5.59483858 C30.0613134,5.78073603 29.6813277,5.97946094 29.2838003,6.21759318 C28.1891271,6.87333903 27.140795,7.72358275 26.1540054,8.83772324 C22.8895397,12.5234873 20.9328613,18.320291 20.9328613,26.8283783 L20.8594334,26.8283783 Z" id="Combined-Shape" transform="translate(26.119116, 21.861089) scale(-1, 1) translate(-26.119116, -21.861089) "></path>
            <path d="M13.4025173,5.22799561 L14.0818577,4.49417236 C14.4046297,4.79298011 15.8702542,4.99731445 18.3056641,4.99731445 L18.3056641,5.99731445 C15.5727796,5.99731445 13.9960864,5.77749515 13.4025173,5.22799561 Z" id="Path-5"></path>
            <path d="M17.4025173,5.22799561 L18.0818577,4.49417236 C18.4046297,4.79298011 19.8702542,4.99731445 22.3056641,4.99731445 L22.3056641,5.99731445 C19.5727796,5.99731445 17.9960864,5.77749515 17.4025173,5.22799561 Z" id="Path-5" transform="translate(19.854091, 5.245743) scale(-1, 1) translate(-19.854091, -5.245743) "></path>
            <path d="M18.5,25.5 C16.290861,25.5 14.5,23.709139 14.5,21.5 C14.5,19.290861 16.290861,17.5 18.5,17.5 C20.709139,17.5 22.5,19.290861 22.5,21.5 C22.5,23.709139 20.709139,25.5 18.5,25.5 Z M18.5,24.5 C20.1568542,24.5 21.5,23.1568542 21.5,21.5 C21.5,19.8431458 20.1568542,18.5 18.5,18.5 C16.8431458,18.5 15.5,19.8431458 15.5,21.5 C15.5,23.1568542 16.8431458,24.5 18.5,24.5 Z" id="Oval-2"></path>
            <path d="M17.4845118,11.3776524 C17.4926638,11.3793229 17.4967638,11.3799038 17.4970936,11.3796411 C17.4951303,11.3812048 17.4929082,11.3801094 17.488813,11.374742 L17.4845118,11.3776524 Z M17.2318631,10.9808776 C17.2042653,10.9410249 17.2042653,10.9410249 17.1757737,10.9001804 C16.7981054,10.3590421 16.6896973,10.1631376 16.6896973,9.81982422 C16.6896973,8.84375014 17.5177823,8.84375014 18.6388596,9.36669841 L18.2161209,10.27295 C18.079671,10.2093003 17.9584767,10.1586297 17.8545192,10.1204517 C17.893372,10.1793459 17.9401202,10.2480743 17.9958083,10.3278664 C18.0250513,10.3697868 18.0250513,10.3697868 18.0548245,10.4127802 C18.5792903,11.1725358 18.719289,11.684634 18.1200939,12.1618628 C17.6851007,12.508313 17.3982068,12.4473502 16.3132784,12.0502692 C16.2063358,12.0111285 16.13249,11.9846508 16.0595169,11.9595834 C15.4066866,11.7353262 15.1758618,11.7507493 15.0691078,11.9810385 C14.9804393,12.172314 15.0537385,12.4259924 15.3437175,12.8423557 C15.4353824,12.9739716 15.5243074,13.09015 15.7111957,13.3266184 C16.6644596,14.5327759 16.9141294,15.1015974 16.3405857,15.8884999 C15.7601166,16.6849042 14.8885408,17.0025961 13.7872542,16.8634486 C14.0738784,18.6811011 13.2622833,20.190804 11.4056376,21.3073881 L10.8902608,20.4504244 C12.6302026,19.4040259 13.1876002,18.0838664 12.6420194,16.3624922 L12.3588649,15.4691049 L13.2585947,15.731409 C14.3756595,16.0570741 15.0951979,15.899414 15.5324611,15.2994883 C15.7073007,15.0596083 15.58374,14.7781002 14.9266402,13.946677 C14.7274117,13.6945947 14.6300307,13.5673688 14.523122,13.413865 C14.0504416,12.735172 13.8841246,12.1595719 14.1618492,11.5604654 C14.5656334,10.6894236 15.2976455,10.6405125 16.3843981,11.0138286 C16.4650125,11.0415209 16.5443001,11.0699497 16.656979,11.1111899 C17.1830093,11.3037156 17.4287058,11.3662165 17.4845118,11.3776524 C17.4719978,11.3527026 17.4236019,11.2586356 17.2318631,10.9808776 Z M23.0583945,25.4909359 C22.7339784,23.6392939 23.309394,22.0862471 24.7629944,20.893494 C23.3285112,19.8255844 22.7197828,18.4564393 22.9738319,16.8453643 C21.8725454,16.9845118 21.0009695,16.6668199 20.4205004,15.8704156 C19.8469568,15.0835131 20.0966265,14.5146916 21.0498904,13.3085341 C21.2367787,13.0720658 21.3257038,12.9558874 21.4173686,12.8242714 C21.7073476,12.4079081 21.7806469,12.1542297 21.6919783,11.9629542 C21.5852244,11.732665 21.3543995,11.7172419 20.7015693,11.9414991 C20.6285961,11.9665665 20.5547503,11.9930442 20.4478078,12.0321849 C19.3628793,12.4292659 19.0759855,12.4902287 18.6409923,12.1437785 C18.0417972,11.6665497 18.1817958,11.1544515 18.7062616,10.394696 C18.7360349,10.3517025 18.7360349,10.3517025 18.7652778,10.3097821 C18.8209659,10.22999 18.8677141,10.1612616 18.9065669,10.1023674 C18.8026094,10.1405454 18.6814151,10.191216 18.5449652,10.2548657 L18.1222266,9.34861411 C19.2433038,8.82566584 20.0713889,8.82566584 20.0713889,9.80173993 C20.0713889,10.1450533 19.9629807,10.3409578 19.5853124,10.8820962 C19.5568209,10.9229406 19.5568209,10.9229406 19.529223,10.9627933 C19.3374842,11.2405513 19.2890884,11.3346183 19.2765744,11.3595681 C19.3323803,11.3481322 19.5780768,11.2856313 20.1041072,11.0931056 C20.2167861,11.0518654 20.2960736,11.0234366 20.376688,10.9957443 C21.4634406,10.6224282 22.1954527,10.6713393 22.599237,11.5423811 C22.8769616,12.1414876 22.7106445,12.7170877 22.2379642,13.3957807 C22.1310554,13.5492845 22.0336744,13.6765104 21.8344459,13.9285927 C21.1773462,14.7600159 21.0537854,15.041524 21.228625,15.281404 C21.6658882,15.8813297 22.3854266,16.0389898 23.5024914,15.7133247 L24.4022213,15.4510207 L24.1190667,16.3444079 C23.5734859,18.0657821 24.1308835,19.3859416 25.8708253,20.4323401 L25.5791036,20.9174123 L25.8544517,21.328131 C24.1632875,22.461897 23.6205439,23.9560526 24.1849085,25.9283476 L23.76259,26.0491924 L23.691379,26.5549913 C21.483018,26.2440781 19.8998222,26.919381 18.8478559,28.6015213 L18.3950019,28.3183183 L17.9132303,28.6196056 C16.861264,26.9374653 15.2780682,26.2621624 13.0697071,26.5730756 L12.9984961,26.0672767 L12.5761777,25.9464319 C13.1405423,23.9741369 12.5977986,22.4799813 10.9066344,21.3462153 L11.4634828,20.5156011 C13.307909,21.7521148 14.064305,23.4450705 13.7026917,25.5090202 C15.6751926,25.4141664 17.248246,26.0928378 18.3735122,27.5344227 C19.4997204,26.0804303 21.0776635,25.3956863 23.0583945,25.4909359 Z M17.689357,9.82814441 C17.6895821,9.82534864 17.6896973,9.82257392 17.6896973,9.81982422 C17.6896973,9.82043526 17.6895838,9.82320866 17.689357,9.82814441 Z" id="Combined-Shape"></path>
        </g>
    </g>
</svg>