<?xml version="1.0" encoding="utf-8"?>
<!-- Generator: Adobe Illustrator 22.0.0, SVG Export Plug-In . SVG Version: 6.00 Build 0)  -->
<svg version="1.1" id="Layer_1" xmlns="http://www.w3.org/2000/svg" xmlns:xlink="http://www.w3.org/1999/xlink" x="0px" y="0px"
	 viewBox="0 0 972.9 243.6" style="enable-background:new 0 0 972.9 243.6;" xml:space="preserve">
<style type="text/css">
	.st0{fill:#FFFFFF;}
</style>
<g>
	<g>
		<path class="st0" d="M0.5,243.6c0-81.2,0-162.4,0-243.6c324.1,0,648.3,0,972.4,0c0,81.2,0,162.4,0,243.6
			C648.7,243.6,324.6,243.6,0.5,243.6z M739.1,121.6c-13.5-13.5-26.7-26.7-40.5-40.5c0,4.2-0.1,7.6,0.1,11c0.1,1.2,0.6,2.7,1.4,3.6
			c12.5,12.6,25,25.2,37.6,37.6c2.1,2,1.9,3.9,1.3,7c-13.6-13.7-26.8-27-40.2-40.5c-0.2,1.8-0.3,3.2-0.5,5.1
			c-0.6-0.6-0.9-0.8-1.2-1.1c-7.7-7.6-15.4-15.3-23.1-22.9c-8.7-8.7-17.4-17.6-26.1-26.3c-10.5-10.5-21-21-31.5-31.5
			c-2.2-2.2-5.3-2.8-9-1c2.3,2.4,4.8,4.7,7.5,6.7c2.3,1.7,2.1,3.8,1.3,6.4c-3.7-3.4-7.1-7-10.5-10.5c-1.2-1.3-2.4-3.3-3.8-3.4
			c-4-0.5-8.1-0.2-12.6-0.2c0.7,0.9,1.1,1.3,1.5,1.7c7.7,7.7,15.4,15.4,23.1,23.2c1.5,1.5,2.6,3.4,4,5.2c1.1,0.7,2.7,1.5,3.9,2.6
			c7.2,7.1,14.4,14.1,21.4,21.4c1.9,2,4.9,3.4,4.7,6.2c1.7,1.1,3.2,1.8,4.3,2.8c6.3,6.1,12.7,12.2,18.7,18.7c2.9,3.1,7,5.2,7.7,9.1
			c1.7,1.2,3.1,1.8,4.2,2.8c1.9,1.7,3.6,3.5,5.3,5.3c9.8,9.8,19.5,19.6,29.3,29.4c6.8,6.8,13.5,13.8,20.6,20.4
			c2.1,2,1.9,3.8,1.5,6.4c-0.9-0.8-1.6-1.4-2.2-2c-8.6-8.6-17.3-17.3-25.9-25.9c-15.7-15.6-31.3-31.2-47-46.9
			c-16.5-16.5-32.9-33-49.4-49.6c-9.9-10-19.9-19.9-29.8-29.8c-1.2-1.2-5.3-1.7-6.8-0.7c-2.2,1.6-3.3,4-0.1,7
			c7.3,7,14.4,14.2,21.5,21.4c11.9,12,23.8,24,35.8,36c11.6,11.6,23.2,23.1,34.8,34.7c17.6,17.6,35.2,35.2,52.8,52.8
			c3.5,3.5,6.9,7,10.7,10.8c-2.7,0.3-4.7,0.7-6.5-1.4c-2.1-2.4-4.5-4.5-6.7-6.8c-11.9-11.8-23.8-23.7-35.6-35.5
			c-12-12-23.9-24.1-35.9-36.1c-11.5-11.5-23.1-23-34.7-34.6c-11.3-11.3-22.6-22.7-33.9-34c-1.2-1.2-2.4-2.4-4.2-4.1
			c0,4.6-0.1,8.3,0.1,12.1c0,0.8,0.7,1.6,1.3,2.2c11.9,12,23.9,24,35.9,36c3.3,3.3,6.7,6.4,10,9.6c-2.4,0.9-4.3,1.3-6-0.4
			c-11.4-11.5-22.8-22.9-34.3-34.4c-2.1-2.1-4.3-4.3-7-6.9c0,4.7,0,8.6,0.1,12.5c0,0.5,0.7,1.1,1.1,1.5
			c12.7,12.8,25.4,25.5,38.2,38.2c1.9,1.9,1.5,3.7,1.2,5.7c-0.3,0.2-0.6,0.4-0.9,0.6c-13.1-13.2-26.2-26.4-39.7-40
			c0,3.6,0.1,6.7,0,9.9c-0.1,2,0.6,3.4,1.9,4.7c12.6,12.5,25.1,25.1,37.7,37.6c1.8,1.8,1.4,3.6,0.8,6.4
			c-13.6-13.7-26.7-26.9-40.3-40.6c0,3.9-0.1,7.3,0.1,10.7c0.1,1.2,0.6,2.6,1.4,3.6c1.8,2.1,3.9,4,5.9,6
			c10.7,10.7,21.4,21.4,32.2,32.1c1.8,1.7,1.5,3.6,0.8,6.3c-13.5-13.6-26.7-26.8-40.4-40.6c0,4.2-0.1,7.7,0.1,11.1
			c0.1,1.2,0.7,2.7,1.5,3.5c12.4,12.6,24.8,25.1,37.4,37.5c2,2,1.9,3.8,1.5,6.3c-13.4-13.4-26.6-26.7-39.7-39.9
			c-0.2,0.1-0.5,0.3-0.7,0.4c0,4-0.1,8,0.1,12c0,0.6,0.7,1.2,1.2,1.7c12.5,12.5,24.9,25.1,37.5,37.4c2,2,2.3,3.8,1.6,6.8
			c-13.5-13.5-26.7-26.7-39.9-39.8c-0.6,3.6-0.7,7-0.5,10.4c0.1,1.2,0.6,2.7,1.5,3.6c8.4,8.6,17,17.1,25.5,25.7
			c0.8,0.8,1.6,1.7,2.6,2.7c-3,0.8-4.9,0.2-6.8-1.8c-6.2-6.4-12.5-12.7-18.9-19.1c-1.1-1.1-2.3-2.1-3.9-3.6c0,3.6,0.2,6.6,0,9.6
			c-0.2,2.5,0.7,4.2,2.6,5.9c3.1,2.7,5.9,5.7,9.4,9c-3.1,0.4-5.1,0.8-6.9-1.4c-1.3-1.6-3-2.9-4.7-4.5c-0.6,2.5-0.3,4.3,1.6,5.7
			c0.7,0.5,1.3,1.1,2,1.8c9,9,17.8,18,26.9,26.9c1.3,1.2,3.3,2.4,4.9,2.4c10.3,0.2,20.6,0.1,30.9,0.1c0.8,0,1.7-0.2,2.5-0.6
			c2.3-1,2.4-3.1,2.4-5.3c0-24.8,0-49.6,0-74.4c0-1.1,0.1-2.1,0.2-3.2c0.3-0.1,0.5-0.2,0.8-0.4c3.7,3.9,7.4,7.9,11.3,11.7
			c14.1,14.2,28.2,28.3,42.3,42.4c9.1,9.2,18.3,18.4,27.5,27.4c1.2,1.2,3.1,2.2,4.8,2.2c10.3,0.2,20.6,0.1,30.9,0.1
			c0.8,0,1.8-0.2,2.5-0.6c2.4-1.1,2.5-3.2,2.5-5.5c0-49.1-0.1-98.2,0.1-147.3c0-5.4-1.6-9.1-5.4-12.8c-8.8-8.4-17.1-17.2-25.7-25.7
			c-0.9-0.9-2.2-1.5-3.3-2.3c-0.2,0.2-0.4,0.5-0.5,0.7c2.5,2.3,5.5,4.4,3.6,8.9c-2.7-2.8-5.3-5.4-7.8-8c-0.5-0.5-1.1-1.2-1.7-1.2
			c-4-0.1-8-0.1-12.4-0.1c0.6,0.8,0.8,1.1,1,1.4c6.5,6.5,12.8,13,19.5,19.3c2.1,2,2.2,4,1.6,6.7c-0.7-0.6-1.2-0.9-1.6-1.3
			c-6.2-6.2-12.4-12.3-18.4-18.6c-4.4-4.6-8.6-9.4-16.1-7.5c-0.2,0.1-0.5-0.1-0.7,0c-0.8,0.3-1.6,0.7-2.5,1.2
			c0.5,0.6,0.7,0.8,0.9,1.1c12.4,12.4,24.7,24.9,37.2,37.2c1.9,1.9,1.6,3.7,1.3,6.5c-13.6-13.6-26.8-26.8-40.5-40.5
			c0,4.1-0.1,7.5,0.1,10.9c0.1,1.3,0.7,2.8,1.6,3.8c2.9,3.2,6,6.1,9,9.1c9.5,9.5,19,19.1,28.6,28.6c1.9,1.9,1.6,3.7,1.1,6.3
			c-13.5-13.5-26.7-26.7-39.9-39.8c-0.2,0.1-0.4,0.3-0.6,0.4c0,1.3,0.2,2.6,0,3.9c-1.1,6,1.1,10.6,5.9,14.1c0.6,0.5,1.2,1.1,1.8,1.6
			c10.5,10.6,21.1,21.2,31.7,31.7c1.9,1.8,1.6,3.7,1.1,6.4c-13.6-13.6-26.8-26.8-39.9-39.9c-0.6,3.7-0.7,7-0.5,10.3
			c0.1,1.2,0.6,2.7,1.4,3.6c12.4,12.6,24.9,25.1,37.5,37.5C739.5,116.8,739.7,118.7,739.1,121.6z M392.5,140.4
			c-0.2,0.1-0.4,0.2-0.6,0.2c0,3.9,0,7.8,0,11.8c0,0.5,0.6,1.1,1,1.6c7.3,7.3,14.6,14.6,21.9,22c2.6,2.6,5.2,5.3,8.1,8.2
			c-2.9,0.6-4.9,0.3-6.8-1.7c-5.3-5.6-10.8-11-16.3-16.5c-2.5-2.5-5-4.9-8-7.8c0,3.9,0.2,7.1-0.1,10.2c-0.1,2.1,0.7,3.5,2.1,4.8
			c3.2,3.1,6.3,6.2,9.4,9.4c0.4,0.4,0.7,1,1.2,1.6c-2.5,0.4-4.5,0.5-6.2-1.5c-1.7-2-3.8-3.8-6.1-6c-0.5,3-0.8,5.4,1.6,7.2
			c1,0.8,1.9,1.7,2.8,2.6c8.8,8.8,17.6,17.7,26.4,26.5c1.4,1.5,3.1,2.1,5.2,2.1c9.8-0.1,19.6,0,29.4,0c4.4,0,5.9-1.5,5.9-6
			c0-17.4,0-34.8,0-52.3c0-0.9,0-1.9,0-3.1c6.2,0,12,0.1,17.8-0.1c2.2-0.1,3.8,0.7,5.3,2.2c6.4,6.4,12.8,12.8,19.2,19.2
			c2.8,2.9,5.7,5.8,8.5,8.6c-0.1,0.3-0.2,0.6-0.4,0.9c-1.7-0.4-3.8-0.3-4.9-1.3c-5.2-4.8-10.1-9.9-15.1-14.9
			c-3.1-3.1-6.2-6.1-9.3-9.2c-0.2,0.1-0.4,0.2-0.7,0.3c0,3.5-0.1,6.9,0.1,10.4c0.1,1.1,0.7,2.4,1.5,3.2c3.4,3.6,7,7.1,10.7,10.9
			c-2.8,0.6-4.9,0.5-6.7-1.6c-1.5-1.8-3.3-3.3-5.3-5.2c-0.6,2.9-0.5,5,1.7,6.7c1.5,1.2,2.8,2.6,4.1,4c7.4,7.4,15,14.8,22.2,22.4
			c3.2,3.4,6.5,5,11.4,4.8c8.7-0.4,17.3-0.1,26-0.1c4.3,0,5.9-1.6,5.9-5.8c0-50.6,0-101.1,0-151.7c0-2.4-0.9-4.2-2.5-5.8
			c-9.5-9.6-19.2-19-28.6-28.7c-2.4-2.5-5-2.2-8.1-1.4c2,2.4,4.1,4.5,6.5,6.4c2.2,1.7,1.9,3.8,1.5,6.5c-2.7-2.6-5-4.8-7.3-7.2
			C511,21,511.1,21,502.3,21c-1.3,0-2.6,0-4.5,0c0.9,1.1,1.3,1.6,1.8,2c7.7,7.7,15.4,15.5,23.2,23.2c2,1.9,2.1,3.9,1.5,6.6
			c-0.8-0.8-1.5-1.3-2.1-1.9c-9.5-9.4-18.9-18.9-28.4-28.3c-0.5-0.5-1.2-1.4-1.8-1.4c-4-0.1-8-0.1-12-0.1c-0.2,0.3-0.5,0.7-0.7,1
			c1.9,1.6,3.9,3,5.6,4.7c12.8,12.6,25.5,25.3,38.2,38c1.9,1.9,1.6,3.9,1.1,6.3c-0.4-0.4-0.6-0.5-0.7-0.7
			c-15.3-15.3-30.6-30.7-45.9-46c-1.2-1.2-2.5-3.1-4-3.2c-3.9-0.4-8-0.2-12.6-0.2c1.5,1.6,2.6,2.8,3.7,3.9
			c19.3,19.3,38.6,38.6,57.9,57.8c2,2,2.1,4,1.6,6.7c-0.6-0.4-1-0.7-1.3-1c-12.9-12.9-25.8-25.9-38.7-38.8
			c-8.6-8.6-17.2-17.3-25.9-25.9c-0.9-0.9-2-2.4-3.1-2.5c-3.9-0.3-7.9-0.1-11.8-0.1c-0.1,0.2-0.2,0.4-0.3,0.6
			c13.2,13.2,26.3,26.4,39.8,39.9c-2.9,0.6-4.9,0.6-6.7-1.5c-1.9-2.2-4-4.2-6-6.2c-9.9-9.9-19.9-19.8-29.7-29.8
			c-2.1-2.1-4.2-3.4-7.3-3c-2.7,0.3-5.4,0.1-8.1,0.1c-0.1,0.2-0.1,0.5-0.2,0.7c13.1,13.2,26.3,26.4,39.4,39.5
			c-0.2,0.4-0.4,0.7-0.6,1.1c-1.7-0.6-3.9-0.6-5.1-1.7c-11.2-11-22.2-22.1-33.2-33.2c-6.2-6.2-6.1-6.3-14.9-6.3c-1.2,0-2.4,0-3.7,0
			c0,0.2-0.1,0.5-0.1,0.7c13.1,13.2,26.3,26.4,39.9,40c-2.8,0.2-4.7,0.6-6.4-1.2c-12-12.1-24.2-24.1-36.1-36.4c-2.8-2.9-5.6-3.5-9-3
			c-1.2,0.2-2.5,1.4-3.2,2.5c-0.3,0.4,0.6,2,1.3,2.7C406,38.9,418.6,51.5,431.2,64c1.9,1.9,1.6,3.8,1.3,6.5
			c-13.5-13.6-26.7-26.8-39.9-40c-0.3,0.1-0.5,0.2-0.8,0.3c0,3.4-0.1,6.9,0.1,10.3c0,1.1,0.5,2.4,1.3,3.1
			c8.4,8.5,16.8,16.9,25.3,25.3c16,16,31.9,32,47.9,48c1.7,1.7,3.3,3.4,5,5.2c-3,0.9-5.2,0.2-7.1-1.9c-2.4-2.7-5-5.2-7.6-7.8
			c-9.7-9.7-19.4-19.5-29.1-29.2c-9.6-9.7-19.3-19.3-28.9-29c-2-2-4.2-4-6.8-6.4c0,4.1,0.1,7.4,0,10.7c0,1.6,0.4,2.7,1.5,3.8
			c4.2,4,8.4,8.2,12.5,12.3c12.2,12.2,24.4,24.5,36.6,36.7c3.5,3.5,7,7.1,10.8,10.8c-3,0.6-5.1,0.3-7-1.7
			c-5.4-5.6-10.9-11.1-16.4-16.6c-9.1-9.1-18.2-18.2-27.3-27.3c-3.3-3.3-6.7-6.7-10.1-10c-0.5,4.2-0.6,8.2-0.5,12.1
			c0,0.5,0.5,1,0.9,1.3c7.3,7.4,14.6,14.7,22,22c6.6,6.6,13.3,13.1,19.8,19.4c-1.1,1.2-1.8,1.9-2.7,2.9
			c-13.1-13.1-26.3-26.3-39.5-39.5c-0.2,0.1-0.4,0.2-0.6,0.4c0,3.5-0.1,6.9,0.1,10.4c0.1,1.1,0.5,2.4,1.3,3.1
			c12.6,12.7,25.2,25.4,38,37.9c2,1.9,1.6,3.8,1.3,6c-0.3,0.2-0.5,0.4-0.8,0.6c-13.2-13.3-26.3-26.6-39.8-40.1
			c0,3.8-0.1,7.2,0.1,10.7c0,1.1,0.5,2.4,1.3,3.1c12.4,12.5,24.8,24.8,37.2,37.2c2.5,2.5,3,4,1.5,7.7c-13.4-13.5-26.6-26.8-40-40.3
			c0,3.2,0.2,6.2-0.1,9.2c-0.2,2.4,0.8,4,2.4,5.5c1,0.9,2,1.9,2.9,2.9c11.3,11.3,22.5,22.6,33.9,33.8c1.9,1.9,1.9,3.8,1.4,6.6
			C418.9,166.7,405.7,153.6,392.5,140.4z M208.7,120.9c-0.2,0.1-0.5,0.2-0.7,0.2c0,3.4-0.1,6.7,0.1,10.1c0.1,1.1,0.7,2.5,1.4,3.3
			c3.7,3.8,7.5,7.5,11.2,11.3c8.7,8.8,17.4,17.7,26.2,26.3c2,2,2.1,3.8,1.5,6.7c-13.5-13.5-26.7-26.7-39.9-39.8
			c-0.6,4.1-0.6,7.9-0.5,11.7c0,0.6,0.5,1.3,1,1.8c6.9,6.9,13.8,13.8,20.7,20.7c3.5,3.5,7.2,7,11.1,10.8c-3.3,0.9-5.4,0.4-7.4-1.6
			c-7.8-8-15.7-15.9-23.5-23.8c-0.5-0.5-1-0.8-2-1.5c0,1.7,0,2.9,0,4.1c0,8.8,0,8.8,6.4,15c2.6,2.5,5.1,5.1,7.7,7.9
			c-2.9,0.8-5.1,0.4-6.9-1.7c-2.1-2.4-4.5-4.6-6.8-6.9c-0.2,0.1-0.4,0.2-0.6,0.3c0.5,2.5-1,5.3,1.2,7.5c10,10,20,20,30.1,29.8
			c1.1,1.1,3.1,1.9,4.7,1.9c9.8,0.2,19.6,0.1,29.4,0.1c4.8,0,6.1-1.4,6.1-6.2c0-14.6,0-29.2,0-43.8c0-0.9,0.1-1.9,0.1-3.1
			c0.8,0.6,1.2,0.8,1.6,1.2c16.5,16.5,33,33.1,49.5,49.5c1.2,1.1,3,2.3,4.5,2.3c10.5,0.2,21.1,0.1,31.6,0.1c2.8,0,4.6-1.7,4.6-4.5
			c0-10.5,0.1-21.1,0-31.6c0-1.2-0.6-2.8-1.5-3.6c-4.1-4.3-8.4-8.3-12.5-12.5c-2.8-2.8-5.5-5.6-8.6-8.8c1.5-0.1,2.4-0.1,3.2-0.1
			c4.5,0,9.1,0,13.6,0c4.5,0,5.9-1.4,5.9-6c0-30.1,0-60.1,0-90.2c0-2.5-0.8-4.3-2.5-6c-9.6-9.5-19.1-19.1-28.6-28.7
			c-1.9-2-4-2.3-6.8-1.7c2,2.1,3.8,4,5.8,5.9c1.9,1.8,1.5,3.7,0.9,6.5c-2.9-3-5.6-5.3-7.8-8.2c-2.9-3.9-6.6-5.1-11.3-4.5
			c-1.8,0.2-3.7,0-6.3,0c1.1,1.2,1.6,1.7,2.1,2.2c7.4,7.4,14.7,14.9,22.2,22.2c2,1.9,1.4,3.8,1.2,6.1c-0.7-0.5-1.2-0.8-1.5-1.2
			c-9.3-9.4-18.6-18.7-28-28.1c-0.5-0.5-1.1-1.2-1.7-1.2C305.5,21,301.5,21,297,21c1.1,1.2,1.7,2,2.4,2.7
			c13.3,13.3,26.6,26.7,40,39.9c1.9,1.9,1.4,3.7,1.1,6.2c-0.8-0.7-1.3-1.1-1.7-1.6c-14.7-14.7-29.3-29.4-44-44.1
			c-1.1-1.1-2.3-2.9-3.6-3c-3.9-0.4-7.8-0.1-12.3-0.1c0.9,1.1,1.4,1.7,1.9,2.2c19.4,19.5,38.9,39,58.4,58.4c1.9,1.9,1.9,3.8,1.4,6.4
			c-0.8-0.7-1.3-1.1-1.8-1.6c-5-5-10.1-10-15.1-15c-15.9-15.9-31.7-31.8-47.6-47.7c-1-1-2-2.5-3.1-2.5c-3.9-0.3-7.8-0.1-12.1-0.1
			c0.4,0.7,0.5,1,0.7,1.2c12,12,23.9,24,35.9,35.9c14.1,14.1,28.2,28.3,42.4,42.4c1.7,1.7,1.1,3.5,0.8,5.8c-0.6-0.5-1-0.7-1.2-1
			c-10.8-10.8-21.8-21.6-32.5-32.6c-3-3.1-7.9-5.1-6.8-11.1c-2.9,0.8-4.7-0.3-6.5-2.1c-11.3-11.4-22.8-22.6-33.9-34.2
			c-3.2-3.4-6.4-4.9-11-4.4c-1.9,0.2-3.9,0-5.8,0c-0.2,0.4-0.3,0.7-0.5,1.1c13.2,13.1,26.5,26.2,39.9,39.5c-2.6,0.5-4.6,0.3-6.5-1.6
			c-11.3-11.5-22.9-22.6-33.9-34.2c-3.5-3.6-6.9-5.4-11.7-4.7c-1.8,0.2-3.7,0-5.6,0c-0.2,0.4-0.3,0.7-0.5,1.1
			c13.3,13.1,26.6,26.2,40.1,39.6c-2.4,0.2-4.3,0.6-6.2-1.3c-12.5-12.7-25.1-25.2-37.7-37.7c-0.7-0.7-1.7-1.4-2.6-1.5
			c-2-0.2-4.1-0.3-6.1,0c-1.1,0.2-2.1,1.2-2.9,2.1c-0.2,0.2,0.7,1.5,1.3,2.1c2.9,3,5.9,5.9,8.8,8.8c9.4,9.4,18.7,19,28.3,28.3
			c2.1,2.1,2.1,4,1.4,7.3c-13.6-13.7-26.8-27-40.3-40.6c0,4.3,0,8.2,0,12.1c0,0.5,0.5,1.2,0.9,1.6c1.6,1.8,3.3,3.5,5,5.2
			c11.5,11.5,23,22.9,34.5,34.3c14.8,14.9,29.6,29.8,44.5,44.6c15.3,15.3,30.6,30.7,46,45.9c2.1,2.1,2,4,1.6,7.2
			c-44.3-44.3-88.2-88.2-132.5-132.4c0,4.4,0,8.3,0,12.2c0,0.5,0.5,1,0.9,1.3c1.7,1.8,3.4,3.6,5.2,5.3c11.3,11.3,22.7,22.7,34,34
			c12.1,12.1,24.2,24.3,36.3,36.4c13.8,13.8,27.6,27.6,41.5,41.4c1.9,1.9,3.7,3.8,5.9,6c-2.8,0.3-4.7,0.5-6.6-1.5
			c-6.3-6.6-12.9-12.9-19.2-19.4c-2.6-2.7-6.7-4.5-6.3-8.7c-1.8-0.9-3.6-1.2-4.8-2.3c-7.3-7.1-14.5-14.4-21.7-21.6
			c-2.1-2.1-4.8-3.7-4.2-6.6c-2-1.1-4-1.7-5.3-2.9c-7.1-6.9-14-14-21-21c-11-11-22-22.1-33-33.1c-0.4-0.4-0.9-0.6-1.7-1.2
			c0,4.2-0.1,7.9,0.1,11.6c0,0.8,0.6,1.7,1.2,2.2c12.7,12.7,25.4,25.4,38,38c1.6,1.6,3.1,3.3,5,5.3c-2.5-0.1-4.1,1-6-0.9
			c-11.3-11.5-22.8-22.9-34.2-34.4c-1.2-1.2-2.4-2.4-4.1-4c0,3.7,0.2,6.6-0.1,9.5c-0.2,2.5,0.7,4.2,2.4,5.9
			c12.2,12.1,24.4,24.4,36.6,36.5c2,1.9,2.1,3.9,1.4,6.7c-13.5-13.5-26.7-26.7-39.9-39.8c-0.6,4.1-0.6,7.9-0.5,11.7
			c0,0.7,0.6,1.5,1.2,2c12.6,12.7,25.3,25.4,38,37.9c2,1.9,1.8,3.8,1.2,6.5C235,147.1,221.9,134,208.7,120.9z M791.3,27.8
			c-0.2,0.1-0.5,0.3-0.7,0.4c0,3.3-0.1,6.6,0.1,9.9c0.1,1.1,0.6,2.5,1.4,3.3c14,14.1,28,28.1,42,42.1c10.3,10.3,20.6,20.6,30.9,31
			c10.3,10.3,20.7,20.7,31,31c8.6,8.6,17.1,17.2,25.7,25.6c2,1.9,2.1,3.9,1.2,6.9c-44.3-44.2-88.1-88-132.3-132
			c0,3.5-0.1,6.9,0.1,10.3c0.1,1.2,0.5,2.5,1.3,3.4c2.7,2.9,5.6,5.7,8.5,8.5c15.5,15.5,31.1,31,46.6,46.6
			c21.9,21.9,43.8,43.9,65.8,65.8c1,1,2,2.1,3.2,3.5c-2.8,0.4-4.9,0.6-6.5-1.6c-0.7-1-1.7-1.7-2.6-2.6c-4.6-4.6-9.1-9.4-13.9-13.9
			c-4.7-4.4-8.8-9.4-13.6-13.8c-4.2-3.8-8.2-8-12.2-12c-3.1-3.1-6.2-6.3-9.4-9.4c-3.2-3-5.7-6.5-9-9.3c-2.6-2.1-4.8-4.7-7.2-7.1
			c-14.9-14.9-29.8-29.8-44.8-44.7c-1.9-1.9-3.8-3.7-5.6-5.6c-0.6,2.5-0.4,4.8-0.6,7c-0.4,3.8,0.5,6.9,3.8,9.2
			c1.8,1.3,3.2,3.1,4.7,4.7c9.9,9.9,19.8,19.8,29.7,29.7c2.5,2.5,5,5.2,7.7,7.9c-3.1,0.8-5,0.1-7-1.9c-10.9-11.1-22-22.1-33-33.2
			c-1.8-1.8-3.6-3.5-5.8-5.6c0,4,0.1,7.3,0,10.6c-0.1,1.7,0.5,2.8,1.7,4c12.5,12.4,24.8,24.9,37.4,37.3c2.1,2.1,2,4,0.9,6.8
			c-13.2-13.3-26.3-26.6-39.9-40.3c0,3.9-0.1,7.3,0.1,10.6c0.1,1.2,0.6,2.7,1.4,3.6c12.5,12.7,25.1,25.3,37.8,37.8
			c2,1.9,1.7,3.8,1.3,5.9c-0.3,0.2-0.5,0.4-0.8,0.6c-13.1-13.3-26.2-26.6-39.8-40.4c0,3.9,0.1,7.1,0,10.3c-0.1,1.8,0.5,3,1.7,4.3
			c12.4,12.3,24.7,24.7,37.1,37c2,2,2.6,4,1,7.2c-13.1-13.3-26.2-26.6-39.8-40.4c0,3.7,0.1,6.8,0,9.8c-0.1,2.1,0.6,3.6,2.1,5.1
			c10.2,10.1,20.4,20.3,30.5,30.5c0.5,0.5,0.9,1,1.4,1.7c-3.7,0.7-4.2,0.7-6.4-1.5c-4.7-4.6-9.4-9.3-14-14
			c-4.3-4.3-8.6-8.6-13.1-13.2c-0.2,0.6-0.4,0.9-0.4,1.2c-0.5,6.8-0.7,13.4,6.2,17.6c0.6,0.4,1.1,1,1.6,1.5c2.7,2.7,5.3,5.4,8.1,8.3
			c-3.8,0.9-4.3,0.7-6.6-1.5c-2.9-2.9-5.8-5.7-8.7-8.6c-0.2,0.1-0.4,0.2-0.6,0.3c0.3,3.4-1.2,6.9,2,10c9.7,9.4,19.2,19,28.7,28.6
			c1.5,1.5,3.2,2.4,5.5,2.4c9.8-0.1,19.6,0,29.4,0c4.3,0,5.8-1.5,5.8-5.8c0-14.7,0-29.5,0-44.2c0-0.9,0-1.8,0-3.3
			c1.1,1,1.7,1.6,2.2,2.1c6.4,6.5,12.8,12.9,19.3,19.4c9.8,9.8,19.7,19.6,29.5,29.4c1.7,1.7,3.5,2.6,5.9,2.6c9.8-0.1,19.6,0,29.4,0
			c4,0,5.6-1.5,5.6-5.5c0-9.8-0.1-19.6,0-29.4c0-2.5-0.9-4.3-2.6-5.9c-5-4.9-9.9-9.9-14.9-14.9c-9.5-9.4-18.9-18.8-28.4-28.2
			c-2.4-2.4-4.8-5-7.7-8c1.6,0,2.5,0,3.3,0c4.8,0,9.6,0,14.3,0c3.6,0,5.1-1.6,5.1-5.2c0-7.5,0-15.1,0-22.6c0-0.9,0-1.7,0-2.8
			c1.2,0,2,0,2.9,0c7.5,0,14.9,0,22.4,0c3.9,0,5.4-1.5,5.4-5.4c0-7.5-0.4-14.9,0.1-22.4c0.5-7.2-1.3-12.5-6.9-17.5
			c-8.9-7.8-16.7-16.7-25.1-25c-0.8-0.8-2.4-1-3.6-1.4c-0.1,0.2-0.2,0.5-0.4,0.7c2.1,3,6.7,4.8,4.8,9.9c-0.6-0.5-1.1-0.9-1.6-1.4
			c-2.6-2.6-5.3-5.2-7.9-7.8c-0.4-0.4-1-1-1.5-1c-3.9-0.1-7.8,0-12.2,0c0.7,0.9,1,1.3,1.4,1.7c6.8,6.8,13.5,13.7,20.4,20.3
			c2.1,2,2.2,4,1.6,6.7c-0.8-0.7-1.3-1.1-1.8-1.6c-7.8-7.8-15.9-15.4-23.4-23.6c-3.1-3.4-6.5-4.1-10.5-3.6c-1.3,0.2-2.5,1-3.8,1.5
			c0.6,1,1.1,2.2,1.9,3c10.4,10.4,20.8,20.8,31.2,31.2c1.4,1.4,2.7,2.9,4,4.4c-0.2,0.4-0.4,0.7-0.6,1.1c-1.6-0.5-3.6-0.5-4.7-1.5
			c-7.7-7.5-15.3-15.2-22.9-22.9c-3.1-3.2-6.1-6.5-9.1-9.7c-0.3,0.2-0.7,0.4-1,0.6c0,3.5-0.1,7,0.1,10.6c0,1,0.5,2.2,1.2,2.9
			c3.1,3.3,6.4,6.4,9.6,9.7c3.2,3.2,6.3,6.4,9.8,9.9c-2.9,0.3-5.1,0.7-6.8-1.7c-0.7-1-1.8-1.8-2.7-2.7c-3.5-3.5-7.1-7-11-10.9
			c-0.1,2.2-0.2,3.7-0.4,5.5c-2.4,0-4.5,0-6.7,0c-0.2,0.3-0.4,0.6-0.7,1c5.3,5,10.6,10.2,16.1,15c2.1,1.9,1.7,3.8,1.3,6.8
			c-6-6.2-11.8-11.7-17.1-17.7c-3.4-3.8-7-6.5-12.4-5.3c-0.5,0.1-1,0.1-1.4,0c-1.1-0.3-2.4-0.5-3.2-1.2c-4.4-4.2-8.6-8.6-12.8-12.9
			c-5-5-10-10.1-15-15.1c-1-1-1.9-1.9-3.6-0.9c2.1,2.8,6.4,4.6,4,9.8c-1.2-1.4-2.4-2.6-3.4-3.9c-3.6-4.4-7.6-7.8-13.9-6.5
			c-1.5,0.3-3.1,0-4.6,0c0.5,1.4,1.1,2.1,1.8,2.8c6.4,6.4,12.7,12.9,19.2,19.1c2,1.9,1.8,3.8,1.3,6.3c-0.6-0.4-1.1-0.6-1.4-1
			c-6.9-6.9-13.8-13.8-20.6-20.8c-6.3-6.5-6.2-6.7-14.4-6.3c-1.1,0-2.2,0.7-3.6,1.3c1.2,1.3,1.9,2.2,2.7,3
			c12,11.9,23.9,23.9,35.9,35.8c1.9,1.9,1.9,3.8,1.2,6.9C817.4,54.3,804.3,41,791.3,27.8z M23.9,27.7c0,4-0.1,7.3,0.1,10.7
			c0.1,1.1,0.5,2.4,1.3,3.1C39.4,55.8,53.7,70,67.9,84.3c12.3,12.3,24.6,24.7,36.9,37.1c0.4,0.4,0.7,0.9,1,1.5
			c-3.1,0.9-5.1-0.2-7.1-2.2c-11.2-11.4-22.6-22.7-33.9-34.1c-9.8-9.8-19.6-19.6-29.4-29.4c-3.6-3.6-7.1-7.4-10.6-11.2
			c-0.3,0.2-0.6,0.3-0.8,0.5c-0.1,0.8-0.2,1.5-0.2,2.3c0,2.3,0.2,4.7-0.1,7c-0.2,2.2,0.7,3.6,2.2,5c7.4,7.3,14.8,14.7,22.1,22
			c9.8,9.8,19.5,19.5,29.3,29.3c3.4,3.5,6.8,7,10.5,10.7c-2.7,0.6-4.7,0.5-6.5-1.4c-5-5.2-10.1-10.2-15.2-15.3
			C54,93.8,41.8,81.6,29.6,69.3c-1.7-1.7-3.4-3.3-5.1-4.9c-0.2,0.1-0.4,0.2-0.6,0.3c0,2.1,0.2,4.2,0,6.2c-0.4,4,0.8,6.9,3.9,9.9
			c10.8,10.3,21.2,21,31.8,31.5c3.4,3.4,6.7,6.8,10.3,10.5c-2.5,0.3-4.5,0.7-6.3-1.2C53.2,111.3,43,101.1,32.8,90.8
			c-2.7-2.7-5.5-5.5-8.3-8.2c-0.2,0.1-0.4,0.2-0.6,0.3c0,3.9,0,7.9,0,11.8c0,0.5,0.6,1.1,1.1,1.5c12.7,12.8,25.4,25.5,38.3,38.2
			c1.9,1.9,1.8,3.8,1.2,6.7c-13.6-13.6-26.8-26.8-40-40c0.1,5.8-3,12.2,3.6,16.5c0.7,0.4,1.1,1.1,1.7,1.7
			c11.2,11.2,22.4,22.4,33.6,33.6c1.9,1.9,2.1,3.7,0.5,6.7c-13.3-13.4-26.5-26.7-39.9-40.1c0,4,0,7.8,0,11.7c0,0.5,0.5,1,0.8,1.3
			c2.3,2.4,4.7,4.8,7.1,7.2c10.5,10.5,20.9,21,31.5,31.5c1.9,1.9,1.9,3.8,1.1,6.9c-13.6-13.7-26.9-27-40.4-40.7c0,4.3,0,8.3,0,12.2
			c0,0.5,0.5,0.9,0.9,1.3c7.4,7.4,14.8,14.8,22.2,22.3c3.6,3.6,7.1,7.2,10.9,11c-2.9,0.5-4.9,0.4-6.9-1.7
			c-6.2-6.5-12.6-12.7-18.9-19.1c-2.5-2.6-4.9-5.3-7.4-8c-0.3,0.2-0.6,0.4-0.8,0.6c0,4,0,8,0.1,12c0,0.5,0.7,1.1,1.1,1.5
			c4,4,8.1,8,12.1,12.1c0.7,0.7,1.4,1.6,2.3,2.6c-2.9,0.6-5,0.4-6.8-1.8c-2.5-2.9-5.3-5.6-8-8.4c-0.2,0.2-0.5,0.3-0.7,0.5
			c0.1,3.7-1.3,7.8,3,10.4c0.7,0.4,1.3,1.2,1.9,1.8c8.7,8.8,17.4,17.5,26.1,26.3c1.5,1.5,3.2,2.1,5.4,2.1c9.6-0.1,19.3,0,28.9,0
			c4.8,0,6.1-1.3,6.1-6.2c0-17.3,0-34.5,0-51.8c0-3.3,0-3.3,3.3-3.3c27.5,0,55.1,0,82.6,0c4.6,0,6.1-1.5,6.2-6
			c0-9.6-0.1-19.3,0-28.9c0-2.2-0.7-3.9-2.2-5.4c-5.9-5.9-11.9-11.8-17.8-17.7c-0.9-0.9-1.7-1.8-3-3.2c1.6,0,2.5,0,3.4,0
			c4.7,0,9.4,0,14.1,0c3.8,0,5.4-1.7,5.4-5.5c0-9.9-0.1-19.8,0.1-29.7c0-2.2-0.9-3.9-2.3-5.4c-3.3-3.3-6.6-6.5-9.9-9.8
			c-6.5-6.5-13.1-13.1-19.6-19.7c-1.3-1.3-2.6-1.9-4.6-1.2c1.9,3.4,7.1,4.9,5,10.3c-0.5-0.4-0.9-0.7-1.3-1c-2.8-2.8-5.6-5.6-8.4-8.3
			c-0.5-0.5-1.2-1.1-1.7-1.1c-3.8-0.1-7.7-0.1-12-0.1c0.7,0.9,1,1.5,1.4,1.9c7,7,14,14,21.1,21c1.8,1.8,1.7,3.7,1,6.1
			c-0.5-0.4-0.7-0.5-1-0.8c-8.3-8.3-16.5-16.6-24.8-24.8c-1.1-1.1-2.3-3-3.6-3.1c-3.9-0.4-8-0.1-12.7-0.1
			c13.4,13.8,26.8,26.6,39.9,40.3c-3,0.7-4.7,0.4-6.4-1.4c-11-11.2-22.3-22.1-33.1-33.5c-4.2-4.4-8.4-6.5-14.3-5.6
			c-1.3,0.2-2.6,0.1-3.9,0.2c-0.2,0.4-0.5,0.8-0.7,1.1c13.3,13.1,26.6,26.1,40,39.2c-2.7,0.8-4.7,0.1-6.6-1.8
			c-12.3-12.4-24.7-24.8-37-37.1c-0.6-0.6-1.3-1.5-2-1.5c-3.9-0.1-7.9-0.1-11.8-0.1c-0.1,0.2-0.2,0.4-0.2,0.6
			c13.2,13.3,26.4,26.5,39.9,40c-3,0.4-5,0.3-7-1.7c-11.8-12.1-23.8-24-35.7-36c-2-2-4-3.3-7.1-3c-2.7,0.3-5.5,0.1-8.3,0.1
			c-0.1,0.3-0.3,0.6-0.4,0.9C72.9,35,86.2,48.1,99.7,61.6c-2.8,0.5-4.8,0.3-6.8-1.7c-11-11.2-22.3-22.2-33.1-33.5
			c-3.8-4-7.7-6.4-13.4-5.4c-1.5,0.3-3.1,0-4.6,0c-0.2,0.4-0.4,0.8-0.6,1.2c13.3,13.1,26.5,26.2,40,39.5c-2.3,0.1-4.2,0.5-6.1-1.4
			C63.7,48.7,52,37.5,40.9,25.8c-3.8-4.1-7.8-5.5-12.9-4.8c-0.1,0-0.2,0-0.2,0c-0.9,0.5-1.7,0.9-2.6,1.4c0.4,0.7,0.7,1.6,1.3,2.2
			c12.3,12.4,24.5,24.7,36.9,36.9c2,2,1.7,3.8,1,6.7C50.8,54.6,37.6,41.4,23.9,27.7z"/>
		<path d="M739.1,121.6c0.6-2.9,0.4-4.9-1.5-6.8c-12.6-12.4-25.1-24.9-37.5-37.5c-0.8-0.8-1.3-2.3-1.4-3.6
			c-0.2-3.3-0.1-6.6,0.5-10.3c13.2,13.2,26.3,26.3,39.9,39.9c0.5-2.7,0.7-4.6-1.1-6.4c-10.6-10.5-21.1-21.1-31.7-31.7
			c-0.6-0.6-1.1-1.2-1.8-1.6c-4.8-3.5-7-8.1-5.9-14.1c0.2-1.2,0-2.6,0-3.9c0.2-0.1,0.4-0.3,0.6-0.4c13.2,13.2,26.3,26.3,39.9,39.8
			c0.5-2.6,0.8-4.4-1.1-6.3c-9.6-9.4-19.1-19-28.6-28.6c-3-3-6.1-6-9-9.1c-0.9-1-1.5-2.5-1.6-3.8c-0.2-3.4-0.1-6.7-0.1-10.9
			c13.8,13.7,27,26.9,40.5,40.5c0.3-2.8,0.6-4.6-1.3-6.5c-12.5-12.3-24.8-24.8-37.2-37.2c-0.2-0.2-0.4-0.5-0.9-1.1
			c1-0.5,1.7-0.8,2.5-1.2c0.2-0.1,0.5,0,0.7,0c7.4-1.9,11.6,2.9,16.1,7.5c6.1,6.3,12.3,12.4,18.4,18.6c0.4,0.4,1,0.8,1.6,1.3
			c0.6-2.7,0.5-4.7-1.6-6.7c-6.6-6.3-13-12.9-19.5-19.3c-0.3-0.3-0.5-0.6-1-1.4c4.4,0,8.4-0.1,12.4,0.1c0.6,0,1.2,0.7,1.7,1.2
			c2.6,2.6,5.1,5.2,7.8,8c1.9-4.5-1.1-6.6-3.6-8.9c0.2-0.2,0.4-0.5,0.5-0.7c1.1,0.7,2.4,1.3,3.3,2.3c8.6,8.6,17,17.4,25.7,25.7
			c3.8,3.7,5.4,7.4,5.4,12.8c-0.2,49.1-0.1,98.2-0.1,147.3c0,2.3-0.1,4.4-2.5,5.5c-0.8,0.3-1.7,0.6-2.5,0.6
			c-10.3,0-20.6,0.1-30.9-0.1c-1.6,0-3.6-1.1-4.8-2.2c-9.3-9.1-18.4-18.2-27.5-27.4c-14.1-14.1-28.2-28.2-42.3-42.4
			c-3.8-3.8-7.5-7.8-11.3-11.7c-0.3,0.1-0.5,0.2-0.8,0.4c-0.1,1.1-0.2,2.1-0.2,3.2c0,24.8,0,49.6,0,74.4c0,2.2-0.1,4.3-2.4,5.3
			c-0.8,0.3-1.7,0.6-2.5,0.6c-10.3,0-20.6,0.1-30.9-0.1c-1.7,0-3.7-1.2-4.9-2.4c-9-8.9-17.9-17.9-26.9-26.9c-0.6-0.6-1.3-1.2-2-1.8
			c-1.8-1.4-2.2-3.2-1.6-5.7c1.7,1.6,3.4,2.9,4.7,4.5c1.7,2.2,3.8,1.8,6.9,1.4c-3.4-3.3-6.3-6.3-9.4-9c-1.8-1.6-2.7-3.4-2.6-5.9
			c0.2-3,0-6,0-9.6c1.6,1.5,2.8,2.5,3.9,3.6c6.3,6.3,12.7,12.6,18.9,19.1c1.9,2,3.9,2.6,6.8,1.8c-0.9-1-1.7-1.9-2.6-2.7
			c-8.5-8.5-17-17.1-25.5-25.7c-0.8-0.9-1.4-2.3-1.5-3.6c-0.2-3.4-0.1-6.8,0.5-10.4c13.2,13.2,26.4,26.4,39.9,39.8
			c0.7-3,0.4-4.8-1.6-6.8c-12.6-12.4-25-24.9-37.5-37.4c-0.5-0.5-1.2-1.1-1.2-1.7c-0.1-4-0.1-8-0.1-12c0.2-0.1,0.5-0.3,0.7-0.4
			c13.2,13.2,26.4,26.5,39.7,39.9c0.4-2.5,0.5-4.3-1.5-6.3c-12.6-12.4-25-24.9-37.4-37.5c-0.9-0.9-1.5-2.3-1.5-3.5
			c-0.2-3.5-0.1-6.9-0.1-11.1c13.7,13.8,26.8,27,40.4,40.6c0.6-2.7,0.9-4.5-0.8-6.3c-10.7-10.7-21.5-21.4-32.2-32.1
			c-2-2-4.1-3.9-5.9-6c-0.8-0.9-1.4-2.4-1.4-3.6c-0.2-3.4-0.1-6.7-0.1-10.7c13.6,13.7,26.7,26.9,40.3,40.6c0.6-2.8,1-4.6-0.8-6.4
			c-12.6-12.5-25.1-25.1-37.7-37.6c-1.3-1.3-2.1-2.7-1.9-4.7c0.2-3.1,0-6.3,0-9.9c13.5,13.6,26.6,26.8,39.7,40
			c0.3-0.2,0.6-0.4,0.9-0.6c0.3-2,0.7-3.8-1.2-5.7c-12.8-12.7-25.5-25.5-38.2-38.2c-0.4-0.4-1.1-1-1.1-1.5
			c-0.1-3.9-0.1-7.8-0.1-12.5c2.7,2.7,4.9,4.8,7,6.9c11.4,11.5,22.9,22.9,34.3,34.4c1.7,1.7,3.6,1.2,6,0.4c-3.3-3.2-6.7-6.4-10-9.6
			c-12-12-24-24-35.9-36c-0.6-0.6-1.3-1.5-1.3-2.2c-0.1-3.8-0.1-7.6-0.1-12.1c1.7,1.7,3,2.9,4.2,4.1c11.3,11.3,22.6,22.7,33.9,34
			c11.5,11.5,23.1,23,34.7,34.6c12,12,23.9,24.1,35.9,36.1c11.9,11.9,23.8,23.7,35.6,35.5c2.3,2.3,4.7,4.4,6.7,6.8
			c1.8,2.1,3.8,1.8,6.5,1.4c-3.8-3.8-7.2-7.4-10.7-10.8c-17.6-17.6-35.2-35.2-52.8-52.8c-11.6-11.6-23.2-23.1-34.8-34.7
			c-12-12-23.8-24-35.8-36c-7.1-7.2-14.2-14.4-21.5-21.4c-3.1-3-2.1-5.5,0.1-7c1.4-1,5.5-0.6,6.8,0.7c10,9.9,19.9,19.9,29.8,29.8
			c16.5,16.5,32.9,33.1,49.4,49.6c15.6,15.6,31.3,31.3,47,46.9c8.6,8.6,17.3,17.3,25.9,25.9c0.6,0.6,1.3,1.2,2.2,2
			c0.4-2.6,0.6-4.4-1.5-6.4c-7-6.6-13.7-13.6-20.6-20.4c-9.8-9.8-19.5-19.6-29.3-29.4c-1.8-1.8-3.5-3.6-5.3-5.3
			c-1.1-1-2.4-1.7-4.2-2.8c-0.7-3.9-4.8-6.1-7.7-9.1c-6-6.4-12.4-12.5-18.7-18.7c-1.1-1.1-2.6-1.7-4.3-2.8c0.3-2.8-2.8-4.2-4.7-6.2
			c-7-7.3-14.2-14.4-21.4-21.4c-1.2-1.1-2.7-1.8-3.9-2.6c-1.4-1.8-2.5-3.7-4-5.2c-7.6-7.8-15.4-15.4-23.1-23.2
			c-0.4-0.4-0.7-0.8-1.5-1.7c4.5,0,8.6-0.3,12.6,0.2c1.4,0.2,2.6,2.2,3.8,3.4c3.4,3.5,6.8,7.1,10.5,10.5c0.8-2.5,1.1-4.6-1.3-6.4
			c-2.7-2-5.1-4.3-7.5-6.7c3.7-1.8,6.9-1.2,9,1c10.5,10.5,21,21,31.5,31.5c8.7,8.8,17.4,17.6,26.1,26.3c7.7,7.7,15.4,15.3,23.1,22.9
			c0.3,0.3,0.6,0.5,1.2,1.1c0.2-1.8,0.3-3.3,0.5-5.1c13.4,13.5,26.6,26.7,40.2,40.5c0.5-3.1,0.7-5-1.3-7
			c-12.6-12.4-25.1-25-37.6-37.6c-0.8-0.9-1.4-2.4-1.4-3.6c-0.2-3.4-0.1-6.8-0.1-11C712.4,94.9,725.6,108.1,739.1,121.6z M695,113
			c14.7,14.8,29.5,29.6,44.2,44.5c0.1-1.7,0.1-3.8-0.8-5c-2.3-2.8-5.1-5.3-7.7-7.9c-9.8-9.8-19.6-19.6-29.3-29.5
			C699.4,113.1,697.3,112.3,695,113z M637.5,107.1c-0.2,0-0.4-0.1-0.6-0.1c0.4,1.6,0.4,3.7,1.4,4.9c2.8,3.4,6.2,6.3,9.2,9.5
			c1.8,2,3.8,1.9,6.5,1.3C648.2,117.3,642.8,112.2,637.5,107.1z M684.3,153.4c-5.5-5.4-10.9-10.6-16.2-15.8c-0.5,2-0.6,4,1.3,5.7
			c2.9,2.7,5.6,5.5,8.3,8.4C679.4,153.7,681.5,154.2,684.3,153.4z M698.8,168c-0.5,2.7-0.4,4.8,1.8,6.7c2.9,2.6,5.7,5.4,8.3,8.3
			c1.8,1.9,3.7,1.6,6.2,1.1C709.6,178.5,704.3,173.4,698.8,168z M664,82.4c4.6,4.7,9.1,9.3,13.8,13.9c0.6-2.5,0.4-4.7-1.7-6.5
			c-2.1-1.8-4.2-3.7-5.9-5.9C668.3,81.7,666.2,82.2,664,82.4z M633.1,51.8c4.7,4.8,9.2,9.4,13.7,13.9c0.3-0.1,0.5-0.2,0.8-0.2
			c-0.4-1.7-0.4-3.8-1.4-5.1c-1.8-2.5-4.5-4.3-6.4-6.7C638,51.3,635.8,51.4,633.1,51.8z"/>
		<path d="M392.5,140.4c13.2,13.2,26.4,26.4,39.9,39.9c0.5-2.8,0.5-4.7-1.4-6.6c-11.4-11.2-22.6-22.5-33.9-33.8
			c-1-1-1.9-1.9-2.9-2.9c-1.6-1.5-2.6-3.1-2.4-5.5c0.3-3,0.1-6.1,0.1-9.2c13.4,13.5,26.6,26.8,40,40.3c1.5-3.8,1-5.2-1.5-7.7
			c-12.4-12.4-24.9-24.8-37.2-37.2c-0.7-0.7-1.2-2.1-1.3-3.1c-0.2-3.5-0.1-6.9-0.1-10.7c13.5,13.6,26.6,26.9,39.8,40.1
			c0.3-0.2,0.5-0.4,0.8-0.6c0.3-2.1,0.7-4-1.3-6c-12.7-12.6-25.4-25.2-38-37.9c-0.7-0.7-1.2-2-1.3-3.1c-0.2-3.5-0.1-6.9-0.1-10.4
			c0.2-0.1,0.4-0.2,0.6-0.4c13.2,13.2,26.4,26.4,39.5,39.5c0.9-0.9,1.6-1.7,2.7-2.9c-6.5-6.4-13.2-12.9-19.8-19.4
			c-7.4-7.3-14.7-14.7-22-22c-0.4-0.4-0.9-0.9-0.9-1.3c-0.1-3.9,0-7.9,0.5-12.1c3.4,3.3,6.7,6.7,10.1,10
			c9.1,9.1,18.2,18.2,27.3,27.3c5.5,5.5,11,10.9,16.4,16.6c1.9,2,4,2.3,7,1.7c-3.8-3.8-7.3-7.3-10.8-10.8
			c-12.2-12.2-24.4-24.5-36.6-36.7c-4.1-4.1-8.3-8.3-12.5-12.3c-1.1-1.1-1.6-2.2-1.5-3.8c0.1-3.3,0-6.6,0-10.7
			c2.6,2.4,4.7,4.4,6.8,6.4c9.7,9.6,19.3,19.3,28.9,29c9.7,9.7,19.4,19.5,29.1,29.2c2.6,2.6,5.1,5.1,7.6,7.8
			c1.9,2.1,4.1,2.7,7.1,1.9c-1.8-1.8-3.4-3.5-5-5.2c-16-16-31.9-32-47.9-48c-8.4-8.4-16.9-16.8-25.3-25.3c-0.7-0.7-1.2-2-1.3-3.1
			c-0.2-3.4-0.1-6.9-0.1-10.3c0.3-0.1,0.5-0.2,0.8-0.3c13.2,13.2,26.3,26.4,39.9,40c0.4-2.7,0.6-4.6-1.3-6.5
			c-12.7-12.5-25.2-25.1-37.8-37.8c-0.7-0.7-1.6-2.3-1.3-2.7c0.7-1.1,2-2.3,3.2-2.5c3.4-0.5,6.3,0.1,9,3
			c11.8,12.3,24.1,24.3,36.1,36.4c1.7,1.8,3.6,1.3,6.4,1.2c-13.6-13.6-26.7-26.8-39.9-40c0-0.2,0.1-0.5,0.1-0.7c1.2,0,2.4,0,3.7,0
			c8.8,0,8.8,0.1,14.9,6.3c11,11.1,22,22.3,33.2,33.2c1.1,1.1,3.4,1.2,5.1,1.7c0.2-0.4,0.4-0.7,0.6-1.1
			c-13.1-13.2-26.3-26.4-39.4-39.5c0.1-0.2,0.1-0.5,0.2-0.7c2.7,0,5.4,0.2,8.1-0.1c3.1-0.3,5.2,0.9,7.3,3
			c9.8,10,19.8,19.9,29.7,29.8c2,2,4.2,4,6,6.2c1.8,2.1,3.9,2.1,6.7,1.5c-13.5-13.5-26.6-26.7-39.8-39.9c0.1-0.2,0.2-0.4,0.3-0.6
			c3.9,0,7.9-0.2,11.8,0.1c1.1,0.1,2.1,1.6,3.1,2.5c8.6,8.6,17.2,17.3,25.9,25.9c12.9,12.9,25.8,25.9,38.7,38.8
			c0.3,0.3,0.7,0.5,1.3,1c0.5-2.6,0.4-4.6-1.6-6.7c-19.4-19.2-38.6-38.5-57.9-57.8c-1.1-1.1-2.2-2.3-3.7-3.9c4.6,0,8.6-0.3,12.6,0.2
			c1.4,0.2,2.8,2,4,3.2c15.3,15.3,30.6,30.7,45.9,46c0.2,0.2,0.3,0.3,0.7,0.7c0.5-2.4,0.8-4.4-1.1-6.3c-12.8-12.6-25.5-25.3-38.2-38
			c-1.7-1.7-3.7-3.2-5.6-4.7c0.2-0.3,0.5-0.7,0.7-1c4,0,8-0.1,12,0.1c0.6,0,1.3,0.9,1.8,1.4c9.5,9.4,18.9,18.9,28.4,28.3
			c0.6,0.6,1.2,1.1,2.1,1.9c0.6-2.7,0.4-4.7-1.5-6.6c-7.8-7.6-15.5-15.4-23.2-23.2c-0.4-0.4-0.8-0.9-1.8-2c1.9,0,3.2,0,4.5,0
			c8.7,0,8.7,0,14.8,6.5c2.2,2.3,4.6,4.6,7.3,7.2c0.4-2.8,0.7-4.8-1.5-6.5c-2.4-1.9-4.5-4-6.5-6.4c3.2-0.8,5.7-1.1,8.1,1.4
			c9.4,9.7,19,19.1,28.6,28.7c1.6,1.6,2.5,3.4,2.5,5.8c-0.1,50.6,0,101.1,0,151.7c0,4.2-1.6,5.8-5.9,5.8c-8.7,0-17.4-0.3-26,0.1
			c-4.8,0.2-8.1-1.4-11.4-4.8c-7.2-7.6-14.8-15-22.2-22.4c-1.4-1.4-2.6-2.8-4.1-4c-2.2-1.7-2.3-3.8-1.7-6.7c2,1.9,3.8,3.5,5.3,5.2
			c1.8,2,3.9,2.2,6.7,1.6c-3.8-3.8-7.3-7.3-10.7-10.9c-0.8-0.8-1.4-2.1-1.5-3.2c-0.2-3.4-0.1-6.9-0.1-10.4c0.2-0.1,0.4-0.2,0.7-0.3
			c3.1,3.1,6.2,6.1,9.3,9.2c5,5,9.9,10.1,15.1,14.9c1.1,1,3.3,0.9,4.9,1.3c0.1-0.3,0.2-0.6,0.4-0.9c-2.8-2.9-5.6-5.8-8.5-8.6
			c-6.4-6.4-12.8-12.8-19.2-19.2c-1.5-1.5-3-2.3-5.3-2.2c-5.8,0.2-11.6,0.1-17.8,0.1c0,1.2,0,2.1,0,3.1c0,17.4,0,34.8,0,52.3
			c0,4.5-1.4,6-5.9,6c-9.8,0-19.6,0-29.4,0c-2.1,0-3.7-0.7-5.2-2.1c-8.8-8.8-17.6-17.7-26.4-26.5c-0.9-0.9-1.8-1.8-2.8-2.6
			c-2.4-1.8-2.1-4.2-1.6-7.2c2.3,2.2,4.4,3.9,6.1,6c1.7,2,3.7,1.9,6.2,1.5c-0.5-0.7-0.8-1.2-1.2-1.6c-3.1-3.2-6.2-6.3-9.4-9.4
			c-1.4-1.4-2.2-2.8-2.1-4.8c0.2-3.1,0.1-6.3,0.1-10.2c3,3,5.6,5.4,8,7.8c5.5,5.5,11,10.9,16.3,16.5c1.9,2,3.9,2.2,6.8,1.7
			c-2.9-2.9-5.5-5.6-8.1-8.2c-7.3-7.3-14.6-14.6-21.9-22c-0.4-0.4-1-1-1-1.6c-0.1-3.9,0-7.8,0-11.8
			C392.1,140.5,392.3,140.4,392.5,140.4z M445,82.5c26.6,26.6,53.1,52.9,79.6,79.3c0.3-2,0.3-4-1.6-5.8c-6-5.8-11.8-11.7-17.7-17.6
			c-18-18-36-36-53.9-54C449.4,82.3,447.5,81.9,445,82.5z M463.3,82.5c20.5,20.4,40.9,40.8,61.3,61.1c0.1-2,0.4-3.9-1.5-5.8
			c-17.9-17.8-35.8-35.7-53.6-53.7C467.5,82.2,465.6,81.9,463.3,82.5z M481.7,82.5c14.2,14.2,28.5,28.6,42.7,42.9
			c0.7-3.5,0.5-3.8-1.9-6.3c-8-8.1-16.1-16.1-24.1-24.3c-4.6-4.6-9-9.4-13.4-14.1c-0.2,0.2-0.3,0.5-0.5,0.7
			C483.5,81.8,482.5,82.2,481.7,82.5z M523.8,180.7c0.9-2.7,1.1-4.6-0.9-6.5c-10.8-10.7-21.5-21.5-32.2-32.2
			c-2.1-2.1-4.2-4.1-6.7-6.4c-0.3,2.6-0.7,4.4,1,6.1c10.7,10.6,21.4,21.3,32,31.9C519.4,175.9,521.6,178.3,523.8,180.7z M484.7,62.5
			c-0.3,0.2-0.6,0.4-0.8,0.6c0.1,1.9-0.7,3.8,1.1,5.5c10.8,10.7,21.5,21.4,32.3,32.1c2.3,2.3,4.6,4.5,7.1,7c0.7-3,0.2-5-1.8-7
			c-9.8-9.6-19.4-19.3-29.1-28.9C490.5,68.8,487.7,65.6,484.7,62.5z"/>
		<path d="M208.7,120.9c13.1,13.1,26.2,26.3,39.7,39.8c0.6-2.7,0.8-4.6-1.2-6.5c-12.7-12.6-25.4-25.2-38-37.9
			c-0.5-0.5-1.1-1.3-1.2-2c-0.1-3.8-0.1-7.6,0.5-11.7c13.2,13.2,26.4,26.4,39.9,39.8c0.7-2.8,0.6-4.8-1.4-6.7
			c-12.3-12.1-24.4-24.4-36.6-36.5c-1.7-1.7-2.6-3.4-2.4-5.9c0.2-2.9,0.1-5.8,0.1-9.5c1.7,1.7,2.9,2.8,4.1,4
			c11.4,11.4,22.9,22.8,34.2,34.4c1.8,1.9,3.5,0.8,6,0.9c-1.9-2-3.4-3.7-5-5.3c-12.7-12.7-25.4-25.3-38-38c-0.6-0.6-1.2-1.5-1.2-2.2
			C208,73.7,208,70,208,65.8c0.8,0.5,1.3,0.8,1.7,1.2c11,11,22,22.1,33,33.1c7,7,13.9,14.1,21,21c1.3,1.3,3.3,1.8,5.3,2.9
			c-0.6,2.9,2.1,4.5,4.2,6.6c7.2,7.2,14.4,14.5,21.7,21.6c1.1,1.1,3,1.5,4.8,2.3c-0.4,4.2,3.7,6,6.3,8.7
			c6.3,6.5,12.9,12.8,19.2,19.4c1.9,2,3.8,1.8,6.6,1.5c-2.2-2.2-4-4.1-5.9-6c-13.8-13.8-27.7-27.6-41.5-41.4
			c-12.1-12.1-24.2-24.3-36.3-36.4c-11.3-11.3-22.7-22.7-34-34c-1.8-1.8-3.5-3.5-5.2-5.3c-0.4-0.4-0.9-0.9-0.9-1.3
			c-0.1-3.9,0-7.9,0-12.2c44.2,44.2,88.1,88.1,132.5,132.4c0.4-3.2,0.5-5.1-1.6-7.2c-15.4-15.2-30.7-30.5-46-45.9
			c-14.8-14.9-29.6-29.8-44.5-44.6c-11.5-11.5-23-22.9-34.5-34.3c-1.7-1.7-3.4-3.4-5-5.2c-0.4-0.4-0.9-1.1-0.9-1.6
			c-0.1-3.9,0-7.7,0-12.1c13.5,13.6,26.7,26.9,40.3,40.6c0.7-3.3,0.7-5.2-1.4-7.3c-9.5-9.3-18.9-18.8-28.3-28.3
			c-2.9-2.9-5.9-5.9-8.8-8.8c-0.6-0.6-1.5-1.9-1.3-2.1c0.8-0.9,1.8-1.9,2.9-2.1c2-0.3,4.1-0.3,6.1,0c0.9,0.1,1.9,0.8,2.6,1.5
			c12.6,12.5,25.2,25.1,37.7,37.7c1.9,1.9,3.8,1.6,6.2,1.3c-13.5-13.3-26.8-26.5-40.1-39.6c0.2-0.4,0.3-0.7,0.5-1.1
			c1.9,0,3.8,0.2,5.6,0c4.9-0.7,8.3,1.1,11.7,4.7c11.1,11.6,22.7,22.8,33.9,34.2c1.9,2,3.9,2.2,6.5,1.6
			c-13.4-13.3-26.7-26.4-39.9-39.5c0.2-0.4,0.3-0.7,0.5-1.1c1.9,0,3.9,0.2,5.8,0c4.5-0.6,7.7,1,11,4.4
			c11.1,11.6,22.6,22.7,33.9,34.2c1.8,1.8,3.6,2.9,6.5,2.1c-1,6,3.9,8,6.8,11.1c10.7,11,21.6,21.7,32.5,32.6c0.3,0.3,0.6,0.5,1.2,1
			c0.3-2.2,0.9-4.1-0.8-5.8c-14.1-14.1-28.2-28.2-42.4-42.4c-12-12-23.9-24-35.9-35.9c-0.2-0.2-0.3-0.5-0.7-1.2
			c4.3,0,8.2-0.2,12.1,0.1c1.1,0.1,2.1,1.6,3.1,2.5c15.9,15.9,31.7,31.8,47.6,47.7c5,5,10.1,10,15.1,15c0.5,0.5,1,0.9,1.8,1.6
			c0.5-2.6,0.6-4.4-1.4-6.4c-19.5-19.4-38.9-38.9-58.4-58.4c-0.5-0.5-1-1.2-1.9-2.2c4.5,0,8.5-0.3,12.3,0.1c1.3,0.1,2.5,1.9,3.6,3
			c14.7,14.7,29.3,29.4,44,44.1c0.4,0.4,0.9,0.8,1.7,1.6c0.3-2.4,0.8-4.3-1.1-6.2c-13.4-13.2-26.7-26.6-40-39.9
			c-0.7-0.7-1.3-1.5-2.4-2.7c4.5,0,8.5-0.1,12.4,0.1c0.6,0,1.2,0.7,1.7,1.2c9.3,9.4,18.6,18.7,28,28.1c0.4,0.4,0.9,0.7,1.5,1.2
			c0.2-2.3,0.8-4.2-1.2-6.1c-7.5-7.3-14.8-14.8-22.2-22.2c-0.5-0.5-1-1-2.1-2.2c2.5,0,4.4,0.2,6.3,0c4.6-0.6,8.3,0.6,11.3,4.5
			c2.1,2.8,4.9,5.2,7.8,8.2c0.6-2.7,1-4.7-0.9-6.5c-1.9-1.8-3.8-3.8-5.8-5.9c2.8-0.7,4.8-0.3,6.8,1.7c9.5,9.6,19,19.2,28.6,28.7
			c1.7,1.7,2.5,3.5,2.5,6c-0.1,30.1,0,60.1,0,90.2c0,4.6-1.4,5.9-5.9,6c-4.5,0-9.1,0-13.6,0c-0.9,0-1.7,0.1-3.2,0.1
			c3.1,3.2,5.9,6.1,8.6,8.8c4.2,4.2,8.4,8.2,12.5,12.5c0.9,0.9,1.5,2.4,1.5,3.6c0.1,10.5,0.1,21.1,0,31.6c0,2.8-1.8,4.5-4.6,4.5
			c-10.5,0-21.1,0.1-31.6-0.1c-1.5,0-3.4-1.1-4.5-2.3c-16.6-16.5-33-33-49.5-49.5c-0.4-0.4-0.8-0.6-1.6-1.2
			c-0.1,1.3-0.1,2.2-0.1,3.1c0,14.6,0,29.2,0,43.8c0,4.9-1.3,6.2-6.1,6.2c-9.8,0-19.6,0.1-29.4-0.1c-1.6,0-3.5-0.8-4.7-1.9
			c-10.1-9.9-20.1-19.8-30.1-29.8c-2.2-2.2-0.8-5-1.2-7.5c0.2-0.1,0.4-0.2,0.6-0.3c2.3,2.3,4.7,4.5,6.8,6.9c1.8,2.1,4,2.5,6.9,1.7
			c-2.7-2.7-5.1-5.4-7.7-7.9c-6.4-6.2-6.4-6.2-6.4-15c0-1.2,0-2.4,0-4.1c0.9,0.7,1.5,1,2,1.5c7.9,7.9,15.8,15.8,23.5,23.8
			c2,2,4.1,2.5,7.4,1.6c-3.9-3.8-7.5-7.2-11.1-10.8c-6.9-6.9-13.8-13.8-20.7-20.7c-0.5-0.5-1-1.2-1-1.8c-0.1-3.8,0-7.6,0.5-11.7
			c13.2,13.2,26.4,26.3,39.9,39.8c0.6-2.9,0.5-4.7-1.5-6.7c-8.9-8.6-17.5-17.5-26.2-26.3c-3.7-3.8-7.6-7.5-11.2-11.3
			c-0.8-0.8-1.4-2.2-1.4-3.3c-0.2-3.4-0.1-6.7-0.1-10.1C208.3,121,208.5,120.9,208.7,120.9z M310,130.4c0.4-2.7,0.3-4.7-1.7-6.7
			c-13.4-13.2-26.7-26.5-39.9-39.9c-1.9-1.9-3.8-1.7-6.2-1.2C278.1,98.5,293.9,114.3,310,130.4z M280.2,82.5
			c0.7,0.8,1.2,1.4,1.7,1.9c12.3,12.3,24.6,24.6,36.8,36.9c1.9,1.9,3.9,2.1,6.4,1.5c-0.4-0.5-0.6-0.8-0.9-1.1
			c-12.4-12.5-24.9-24.9-37.3-37.5C285,82.2,283.1,82,280.2,82.5z M298.9,83.4c12.1,12,24.4,24.2,36.7,36.4c1.1,1,2.1,3.5,4,1.8
			c2-1.9-0.4-3.3-1.6-4.5c-9.8-9.9-19.7-19.8-29.6-29.7c-2.6-2.6-5.3-5.2-8-7.9C299.9,80.8,299.5,81.8,298.9,83.4z M340.3,160.8
			c0.3-0.1,0.6-0.2,0.9-0.3c-0.5-1.7-0.5-3.9-1.6-5.1c-3.1-3.5-6.7-6.6-9.8-10.1c-1.9-2.1-3.9-2-6.2-1.5
			C329.2,149.5,334.8,155.2,340.3,160.8z M269.4,140.2c-0.1,2.5-0.6,4.5,1.3,6.2c2,1.8,3.9,3.8,5.8,5.8c1.7,1.9,3.7,1.7,6.3,1.2
			C278.3,149,274,144.8,269.4,140.2z M313.1,184.1c-4.3-4.4-8.4-8.7-12.9-13.3c-0.5,2.7-0.6,4.7,1.4,6.5c1.9,1.7,3.7,3.5,5.4,5.4
			C308.8,184.7,310.8,184.6,313.1,184.1z"/>
		<path d="M791.3,27.8c13.1,13.2,26.1,26.5,39.6,40.1c0.8-3.1,0.8-5-1.2-6.9c-12-11.9-24-23.8-35.9-35.8c-0.8-0.8-1.5-1.7-2.7-3
			c1.4-0.5,2.5-1.2,3.6-1.3c8.2-0.3,8.1-0.2,14.4,6.3c6.8,7,13.7,13.9,20.6,20.8c0.3,0.3,0.8,0.5,1.4,1c0.4-2.5,0.7-4.3-1.3-6.3
			c-6.5-6.3-12.8-12.7-19.2-19.1c-0.7-0.7-1.3-1.4-1.8-2.8c1.5,0,3.2,0.3,4.6,0c6.3-1.4,10.3,2.1,13.9,6.5c1.1,1.3,2.2,2.5,3.4,3.9
			c2.4-5.2-1.9-7-4-9.8c1.7-1,2.7-0.1,3.6,0.9c5,5,10,10.1,15,15.1c4.3,4.3,8.5,8.7,12.8,12.9c0.8,0.7,2.1,0.9,3.2,1.2
			c0.4,0.1,1,0.1,1.4,0c5.4-1.2,8.9,1.5,12.4,5.3c5.3,5.9,11.1,11.5,17.1,17.7c0.4-3,0.9-4.9-1.3-6.8c-5.5-4.9-10.7-10-16.1-15
			c0.2-0.3,0.4-0.6,0.7-1c2.1,0,4.3,0,6.7,0c0.1-1.8,0.2-3.3,0.4-5.5c3.9,3.9,7.5,7.4,11,10.9c0.9,0.9,2,1.7,2.7,2.7
			c1.7,2.3,3.9,2,6.8,1.7c-3.5-3.5-6.6-6.7-9.8-9.9c-3.2-3.2-6.5-6.4-9.6-9.7c-0.7-0.7-1.1-1.9-1.2-2.9c-0.1-3.5-0.1-7-0.1-10.6
			c0.3-0.2,0.7-0.4,1-0.6c3,3.3,6,6.6,9.1,9.7c7.6,7.7,15.1,15.4,22.9,22.9c1,1,3.1,1,4.7,1.5c0.2-0.4,0.4-0.7,0.6-1.1
			c-1.3-1.5-2.6-3-4-4.4c-10.4-10.4-20.8-20.8-31.2-31.2c-0.8-0.8-1.3-2-1.9-3c1.3-0.5,2.5-1.3,3.8-1.5c4-0.5,7.3,0.2,10.5,3.6
			c7.5,8.2,15.6,15.8,23.4,23.6c0.5,0.5,1,0.9,1.8,1.6c0.5-2.7,0.4-4.7-1.6-6.7c-6.9-6.6-13.7-13.5-20.4-20.3
			c-0.4-0.4-0.7-0.8-1.4-1.7c4.4,0,8.3,0,12.2,0c0.5,0,1.1,0.6,1.5,1c2.7,2.6,5.3,5.2,7.9,7.8c0.5,0.5,1,0.9,1.6,1.4
			c2-5.2-2.7-6.9-4.8-9.9c0.1-0.2,0.2-0.5,0.4-0.7c1.2,0.5,2.7,0.6,3.6,1.4c8.4,8.3,16.3,17.2,25.1,25c5.7,5,7.4,10.4,6.9,17.5
			c-0.5,7.4-0.1,14.9-0.1,22.4c0,3.9-1.5,5.4-5.4,5.4c-7.5,0-14.9,0-22.4,0c-0.9,0-1.7,0-2.9,0c0,1.1,0,2,0,2.8c0,7.5,0,15.1,0,22.6
			c0,3.6-1.5,5.2-5.1,5.2c-4.8,0-9.6,0-14.3,0c-0.9,0-1.7,0-3.3,0c2.9,3,5.3,5.6,7.7,8c9.4,9.4,18.9,18.8,28.4,28.2
			c5,4.9,9.9,10,14.9,14.9c1.7,1.7,2.6,3.5,2.6,5.9c-0.1,9.8,0,19.6,0,29.4c0,4-1.6,5.5-5.6,5.5c-9.8,0-19.6-0.1-29.4,0
			c-2.5,0-4.3-0.9-5.9-2.6c-9.8-9.8-19.7-19.6-29.5-29.4c-6.4-6.4-12.8-12.9-19.3-19.4c-0.5-0.5-1.1-1.1-2.2-2.1c0,1.5,0,2.4,0,3.3
			c0,14.7,0,29.5,0,44.2c0,4.3-1.5,5.8-5.8,5.8c-9.8,0-19.6-0.1-29.4,0c-2.3,0-4-0.8-5.5-2.4c-9.6-9.5-19.1-19.1-28.7-28.6
			c-3.2-3.1-1.7-6.6-2-10c0.2-0.1,0.4-0.2,0.6-0.3c2.9,2.9,5.8,5.7,8.7,8.6c2.3,2.3,2.8,2.4,6.6,1.5c-2.8-2.8-5.4-5.6-8.1-8.3
			c-0.5-0.5-1-1.1-1.6-1.5c-6.9-4.2-6.7-10.9-6.2-17.6c0-0.3,0.2-0.6,0.4-1.2c4.5,4.5,8.8,8.8,13.1,13.2c4.7,4.7,9.3,9.4,14,14
			c2.2,2.2,2.7,2.2,6.4,1.5c-0.5-0.6-0.9-1.2-1.4-1.7c-10.2-10.2-20.3-20.4-30.5-30.5c-1.5-1.5-2.2-3-2.1-5.1c0.2-3,0-6.1,0-9.8
			c13.6,13.8,26.7,27.1,39.8,40.4c1.5-3.2,1-5.2-1-7.2c-12.4-12.3-24.7-24.7-37.1-37c-1.3-1.2-1.8-2.5-1.7-4.3c0.1-3.2,0-6.4,0-10.3
			c13.6,13.8,26.7,27.1,39.8,40.4c0.3-0.2,0.5-0.4,0.8-0.6c0.4-2.1,0.6-4-1.3-5.9c-12.7-12.5-25.3-25.2-37.8-37.8
			c-0.8-0.9-1.4-2.3-1.4-3.6c-0.2-3.4-0.1-6.7-0.1-10.6c13.6,13.7,26.8,27,39.9,40.3c1.1-2.8,1.2-4.8-0.9-6.8
			c-12.6-12.3-24.9-24.9-37.4-37.3c-1.2-1.2-1.7-2.3-1.7-4c0.1-3.3,0-6.6,0-10.6c2.3,2.2,4.1,3.9,5.8,5.6c11,11,22.1,22,33,33.2
			c2,2,4,2.8,7,1.9c-2.6-2.7-5.1-5.3-7.7-7.9c-9.9-9.9-19.8-19.8-29.7-29.7c-1.6-1.6-3-3.4-4.7-4.7c-3.3-2.4-4.1-5.4-3.8-9.2
			c0.2-2.2,0-4.5,0.6-7c1.9,1.9,3.8,3.7,5.6,5.6c14.9,14.9,29.8,29.8,44.8,44.7c2.4,2.4,4.6,5,7.2,7.1c3.4,2.8,5.9,6.4,9,9.3
			c3.2,3,6.3,6.2,9.4,9.4c4.1,4,8,8.2,12.2,12c4.8,4.3,8.9,9.4,13.6,13.8c4.8,4.5,9.2,9.2,13.9,13.9c0.9,0.9,1.9,1.6,2.6,2.6
			c1.6,2.2,3.8,2,6.5,1.6c-1.2-1.3-2.2-2.5-3.2-3.5c-21.9-21.9-43.8-43.9-65.8-65.8c-15.5-15.5-31.1-31-46.6-46.6
			c-2.8-2.8-5.8-5.6-8.5-8.5c-0.8-0.8-1.2-2.2-1.3-3.4c-0.2-3.4-0.1-6.8-0.1-10.3c44.1,44,88,87.9,132.3,132c0.8-3.1,0.7-5-1.2-6.9
			c-8.6-8.5-17.2-17.1-25.7-25.6c-10.3-10.3-20.7-20.7-31-31c-10.3-10.3-20.6-20.6-30.9-31c-14-14-28.1-28-42-42.1
			c-0.8-0.8-1.3-2.2-1.4-3.3c-0.2-3.3-0.1-6.6-0.1-9.9C790.8,28.1,791,27.9,791.3,27.8z M853.5,53c12.6,12.6,25.3,25.3,37.9,37.9
			c1.7-1.7,1.6-3.1-0.3-4.8c-2.2-1.9-4.2-4.1-6.3-6.2c-8.9-9-17.9-18-26.8-26.9C856,51,855.4,51.1,853.5,53z M878,92.3
			c-8.7-8.7-17.3-17.5-26-26.2c-0.3,2.4-0.2,4.3,1.9,6.2c6.2,5.8,12.2,11.9,18,18C873.8,92.4,875.7,92.8,878,92.3z M908,143.8
			c5,5.1,10,10.2,15.1,15.4c0.7-2.8,0.1-4.8-2.1-6.7c-2.6-2.2-5-4.7-7.3-7.3C911.8,143.1,909.9,143.4,908,143.8z M877.2,113
			c5.1,5.2,10.1,10.3,15.2,15.5c0.6-2.6,0.3-4.7-1.9-6.5c-2.6-2.2-4.9-4.6-7.1-7.2C881.6,112.7,879.5,112.6,877.2,113z M861.7,97.9
			c0.7-2.8,0.3-4.8-1.7-6.6c-2.8-2.4-5.4-5.1-7.9-7.8c-1.8-1.9-3.6-1.2-5.6-1.1C851.7,87.7,856.6,92.7,861.7,97.9z M897.2,184.2
			c-4.8-4.9-9.6-9.7-14.4-14.6c-0.2,0.1-0.5,0.2-0.7,0.3c0.5,1.7,0.5,3.7,1.5,5c2.1,2.7,4.8,4.9,7.1,7.4
			C892.5,184.3,894.6,184.8,897.2,184.2z M866.5,153.5c-4.8-4.9-9.5-9.8-14.5-14.9c-0.4,2.8-0.5,4.9,1.7,6.7
			c2.3,1.9,4.4,4.2,6.4,6.5C862,153.7,864.1,154.2,866.5,153.5z"/>
		<path d="M23.9,27.7c13.7,13.7,26.9,26.9,40.5,40.5c0.7-2.9,0.9-4.7-1-6.7C50.9,49.3,38.7,36.9,26.4,24.6c-0.6-0.6-0.8-1.4-1.3-2.2
			c0.9-0.5,1.7-1,2.6-1.4c0.1,0,0.2,0,0.2,0c5.1-0.7,9.1,0.7,12.9,4.8C52,37.5,63.7,48.7,75.1,60.2c1.9,1.9,3.8,1.5,6.1,1.4
			c-13.4-13.3-26.7-26.4-40-39.5c0.2-0.4,0.4-0.8,0.6-1.2c1.5,0,3.1,0.2,4.6,0c5.7-1,9.6,1.4,13.4,5.4
			c10.9,11.3,22.1,22.3,33.1,33.5c2,2,4,2.2,6.8,1.7C86.2,48.1,72.9,35,59.7,21.9c0.1-0.3,0.3-0.6,0.4-0.9c2.8,0,5.6,0.3,8.3-0.1
			c3.1-0.4,5.1,0.9,7.1,3c11.9,12,23.9,23.9,35.7,36c2,2,4.1,2.1,7,1.7c-13.5-13.5-26.7-26.8-39.9-40c0.1-0.2,0.2-0.4,0.2-0.6
			c3.9,0,7.9-0.1,11.8,0.1c0.7,0,1.4,0.9,2,1.5c12.4,12.4,24.7,24.7,37,37.1c1.9,1.9,3.9,2.6,6.6,1.8c-13.4-13.1-26.7-26.2-40-39.2
			c0.2-0.4,0.5-0.8,0.7-1.1c1.3-0.1,2.6,0,3.9-0.2c5.9-0.9,10.2,1.2,14.3,5.6c10.8,11.4,22.1,22.3,33.1,33.5
			c1.7,1.8,3.4,2.1,6.4,1.4c-13.1-13.8-26.5-26.5-39.9-40.3c4.7,0,8.7-0.3,12.7,0.1c1.3,0.1,2.4,2,3.6,3.1
			c8.3,8.3,16.5,16.6,24.8,24.8c0.2,0.2,0.5,0.4,1,0.8c0.7-2.3,0.8-4.3-1-6.1c-7.1-7-14.1-14-21.1-21c-0.4-0.4-0.7-1-1.4-1.9
			c4.3,0,8.2-0.1,12,0.1c0.6,0,1.3,0.7,1.7,1.1c2.8,2.8,5.6,5.6,8.4,8.3c0.4,0.4,0.8,0.7,1.3,1c2.1-5.3-3.1-6.9-5-10.3
			c1.9-0.7,3.3-0.1,4.6,1.2c6.5,6.6,13,13.1,19.6,19.7c3.3,3.3,6.6,6.5,9.9,9.8c1.5,1.5,2.3,3.1,2.3,5.4c-0.1,9.9,0,19.8-0.1,29.7
			c0,3.8-1.7,5.5-5.4,5.5c-4.7,0-9.4,0-14.1,0c-0.9,0-1.7,0-3.4,0c1.3,1.4,2.1,2.3,3,3.2c5.9,5.9,11.9,11.8,17.8,17.7
			c1.5,1.5,2.2,3.2,2.2,5.4c-0.1,9.6,0,19.3,0,28.9c0,4.5-1.5,6-6.2,6c-27.5,0-55.1,0-82.6,0c-3.3,0-3.3,0-3.3,3.3
			c0,17.3,0,34.5,0,51.8c0,4.9-1.3,6.2-6.1,6.2c-9.6,0-19.3,0-28.9,0c-2.2,0-3.9-0.6-5.4-2.1c-8.7-8.8-17.4-17.5-26.1-26.3
			c-0.6-0.6-1.2-1.4-1.9-1.8c-4.3-2.6-3-6.7-3-10.4c0.2-0.2,0.5-0.3,0.7-0.5c2.7,2.8,5.5,5.5,8,8.4c1.9,2.2,4,2.3,6.8,1.8
			c-0.9-1-1.5-1.9-2.3-2.6c-4-4-8.1-8-12.1-12.1c-0.4-0.4-1.1-1-1.1-1.5c-0.1-4-0.1-8-0.1-12c0.3-0.2,0.6-0.4,0.8-0.6
			c2.5,2.7,4.8,5.4,7.4,8c6.3,6.4,12.7,12.6,18.9,19.1c2,2.1,4,2.2,6.9,1.7c-3.8-3.8-7.3-7.4-10.9-11c-7.4-7.4-14.8-14.8-22.2-22.3
			c-0.4-0.4-0.9-0.9-0.9-1.3c-0.1-3.9,0-7.9,0-12.2c13.6,13.6,26.8,26.9,40.4,40.7c0.8-3.1,0.8-5-1.1-6.9
			c-10.5-10.4-21-21-31.5-31.5c-2.4-2.4-4.7-4.8-7.1-7.2c-0.4-0.4-0.8-0.9-0.8-1.3c-0.1-3.9,0-7.7,0-11.7
			c13.4,13.4,26.5,26.7,39.9,40.1c1.7-3,1.4-4.8-0.5-6.7c-11.2-11.2-22.4-22.4-33.6-33.6c-0.6-0.6-1-1.3-1.7-1.7
			c-6.6-4.3-3.5-10.7-3.6-16.5c13.2,13.2,26.4,26.5,40,40c0.6-2.9,0.8-4.8-1.2-6.7C50.5,121.7,37.7,109,25,96.2
			c-0.4-0.4-1-1-1.1-1.5c-0.1-3.9,0-7.9,0-11.8c0.2-0.1,0.4-0.2,0.6-0.3c2.8,2.7,5.5,5.5,8.3,8.2c10.2,10.2,20.5,20.5,30.7,30.8
			c1.9,1.9,3.8,1.5,6.3,1.2c-3.6-3.7-6.9-7.1-10.3-10.5C49,101.7,38.5,91,27.7,80.8c-3.1-2.9-4.3-5.8-3.9-9.9c0.2-2,0-4.1,0-6.2
			c0.2-0.1,0.4-0.2,0.6-0.3c1.7,1.6,3.4,3.2,5.1,4.9C41.8,81.6,54,93.8,66.2,106.1c5.1,5.1,10.2,10.1,15.2,15.3
			c1.8,1.9,3.8,1.9,6.5,1.4c-3.7-3.8-7.1-7.3-10.5-10.7c-9.7-9.8-19.5-19.5-29.3-29.3C40.8,75.4,33.4,68,26,60.7
			c-1.4-1.4-2.4-2.9-2.2-5c0.2-2.3,0-4.7,0.1-7c0-0.8,0.1-1.5,0.2-2.3c0.3-0.2,0.6-0.3,0.8-0.5c3.5,3.7,7,7.5,10.6,11.2
			c9.8,9.8,19.6,19.6,29.4,29.4c11.3,11.3,22.7,22.6,33.9,34.1c2,2,4,3.1,7.1,2.2c-0.4-0.5-0.6-1.1-1-1.5
			C92.5,109,80.2,96.6,67.9,84.3C53.7,70,39.4,55.8,25.2,41.5c-0.7-0.7-1.2-2-1.3-3.1C23.8,35,23.9,31.6,23.9,27.7z M124.2,122.9
			c-0.5-0.7-0.8-1.1-1.1-1.4C110.5,108.8,98,96.2,85.4,83.6c-1.8-1.8-3.7-1.4-5.9-1.1c0.4,0.6,0.6,1,0.9,1.3
			c12.4,12.4,24.9,24.8,37.2,37.3C119.5,123.1,121.5,123.3,124.2,122.9z M97.6,82.5c0.7,0.8,1.1,1.3,1.6,1.8
			c5.6,5.6,11.2,11.2,16.7,16.8c6.8,6.8,13.7,13.6,20.4,20.5c1.9,2,3.9,1.4,6.1,0.9c-2.9-3.3-6.1-6.2-9.2-9.3
			c-9.8-9.7-19.7-19.5-29.3-29.3C102.1,81.9,100.2,82.2,97.6,82.5z M155.3,121.9c1.5-1.7,1.8-3.1,0.2-4.8
			C144.3,106,133.1,94.8,122,83.6c-1.8-1.9-3.7-1.4-6.1-1C129.2,95.8,142.2,108.8,155.3,121.9z M134.6,82.4
			c7.4,7.4,14.6,14.7,22,22.2c0.4-2.3,0.6-4.1-1.3-6c-4.9-4.7-9.7-9.5-14.3-14.4C138.9,82,136.8,82.1,134.6,82.4z M153.2,82.4
			c-0.2,0.2-0.4,0.3-0.6,0.5c1.2,1.2,2.4,2.3,3.9,3.9C156.4,83.9,155,82.9,153.2,82.4z"/>
		<path class="st0" d="M695,113c2.3-0.7,4.4,0,6.4,2.1c9.7,9.9,19.5,19.7,29.3,29.5c2.6,2.6,5.4,5,7.7,7.9c1,1.2,0.9,3.3,0.8,5
			C724.5,142.6,709.7,127.8,695,113z"/>
		<path class="st0" d="M637.5,107.1c5.4,5.1,10.7,10.2,16.4,15.6c-2.7,0.5-4.7,0.6-6.5-1.3c-3-3.2-6.3-6.2-9.2-9.5
			c-1-1.2-0.9-3.2-1.4-4.9C637.1,107.1,637.3,107.1,637.5,107.1z"/>
		<path class="st0" d="M684.3,153.4c-2.8,0.7-4.9,0.3-6.6-1.7c-2.6-2.9-5.4-5.7-8.3-8.4c-1.9-1.8-1.8-3.7-1.3-5.7
			C673.4,142.9,678.8,148.1,684.3,153.4z"/>
		<path class="st0" d="M698.8,168c5.5,5.4,10.8,10.6,16.3,16c-2.6,0.5-4.5,0.8-6.2-1.1c-2.6-2.9-5.4-5.7-8.3-8.3
			C698.4,172.8,698.3,170.7,698.8,168z"/>
		<path class="st0" d="M664,82.4c2.2-0.3,4.3-0.8,6.1,1.5c1.7,2.2,3.8,4.1,5.9,5.9c2.1,1.8,2.3,4,1.7,6.5
			C673.1,91.7,668.6,87.1,664,82.4z"/>
		<path class="st0" d="M633.1,51.8c2.7-0.4,4.9-0.5,6.7,1.8c1.9,2.4,4.6,4.3,6.4,6.7c1,1.3,1,3.4,1.4,5.1c-0.3,0.1-0.5,0.2-0.8,0.2
			C642.4,61.2,637.9,56.6,633.1,51.8z"/>
		<path class="st0" d="M445,82.5c2.5-0.5,4.4-0.2,6.4,1.8c17.9,18.1,35.9,36,53.9,54c5.9,5.9,11.7,11.8,17.7,17.6
			c1.9,1.8,2,3.8,1.6,5.8C498.1,135.4,471.6,109,445,82.5z"/>
		<path class="st0" d="M463.3,82.5c2.3-0.6,4.2-0.3,6.2,1.6c17.8,18,35.7,35.9,53.6,53.7c1.9,1.9,1.6,3.8,1.5,5.8
			C504.2,123.3,483.8,102.9,463.3,82.5z"/>
		<path class="st0" d="M481.7,82.5c0.8-0.3,1.8-0.7,2.8-1.1c0.2-0.2,0.3-0.5,0.5-0.7c4.5,4.7,8.9,9.5,13.4,14.1
			c8,8.1,16,16.2,24.1,24.3c2.4,2.4,2.6,2.8,1.9,6.3C510.2,111.1,495.9,96.7,481.7,82.5z"/>
		<path class="st0" d="M523.8,180.7c-2.2-2.4-4.4-4.8-6.7-7.1c-10.7-10.7-21.3-21.3-32-31.9c-1.7-1.7-1.3-3.6-1-6.1
			c2.4,2.4,4.6,4.3,6.7,6.4c10.7,10.8,21.4,21.6,32.2,32.2C524.9,176.1,524.8,178,523.8,180.7z"/>
		<path class="st0" d="M484.7,62.5c2.9,3.1,5.8,6.3,8.8,9.3c9.6,9.7,19.3,19.4,29.1,28.9c2,1.9,2.5,3.9,1.8,7
			c-2.5-2.5-4.8-4.7-7.1-7C506.5,90,495.8,79.3,485,68.6c-1.8-1.7-0.9-3.7-1.1-5.5C484.2,62.9,484.5,62.7,484.7,62.5z"/>
		<path class="st0" d="M310,130.4c-16.1-16.1-31.9-31.9-47.9-47.8c2.4-0.5,4.3-0.7,6.2,1.2c13.2,13.4,26.5,26.7,39.9,39.9
			C310.3,125.7,310.4,127.7,310,130.4z"/>
		<path class="st0" d="M280.2,82.5c2.9-0.5,4.8-0.3,6.8,1.7c12.3,12.6,24.8,25,37.3,37.5c0.3,0.3,0.5,0.6,0.9,1.1
			c-2.6,0.6-4.5,0.4-6.4-1.5c-12.2-12.4-24.5-24.6-36.8-36.9C281.4,83.8,281,83.3,280.2,82.5z"/>
		<path class="st0" d="M298.9,83.4c0.6-1.6,1-2.6,1.5-3.9c2.7,2.7,5.4,5.2,8,7.9c9.9,9.9,19.8,19.7,29.6,29.7
			c1.2,1.2,3.6,2.6,1.6,4.5c-1.9,1.8-2.9-0.7-4-1.8C323.3,107.7,311,95.5,298.9,83.4z"/>
		<path class="st0" d="M340.3,160.8c-5.6-5.6-11.1-11.3-16.7-17c2.3-0.5,4.3-0.6,6.2,1.5c3.2,3.5,6.8,6.5,9.8,10.1
			c1.1,1.2,1.1,3.4,1.6,5.1C340.9,160.6,340.6,160.7,340.3,160.8z"/>
		<path class="st0" d="M269.4,140.2c4.6,4.5,8.8,8.7,13.4,13.2c-2.6,0.4-4.6,0.7-6.3-1.2c-1.8-2-3.7-4-5.8-5.8
			C268.8,144.7,269.3,142.7,269.4,140.2z"/>
		<path class="st0" d="M313.1,184.1c-2.3,0.4-4.3,0.6-6.1-1.4c-1.7-1.9-3.5-3.7-5.4-5.4c-2-1.8-1.8-3.8-1.4-6.5
			C304.7,175.4,308.8,179.7,313.1,184.1z"/>
		<path class="st0" d="M853.5,53c1.9-2,2.5-2,4.4-0.1c9,9,17.9,17.9,26.8,26.9c2.1,2.1,4.1,4.3,6.3,6.2c1.9,1.7,2,3.2,0.3,4.8
			C878.8,78.3,866.2,65.7,853.5,53z"/>
		<path class="st0" d="M878,92.3c-2.3,0.5-4.2,0.1-6.2-2c-5.9-6.2-11.8-12.2-18-18c-2.1-1.9-2.2-3.9-1.9-6.2
			C860.7,74.8,869.3,83.5,878,92.3z"/>
		<path class="st0" d="M908,143.8c1.9-0.3,3.9-0.6,5.6,1.4c2.3,2.6,4.7,5.1,7.3,7.3c2.2,1.9,2.8,3.9,2.1,6.7
			C918,154,913,148.9,908,143.8z"/>
		<path class="st0" d="M877.2,113c2.3-0.4,4.4-0.3,6.2,1.8c2.2,2.5,4.6,5,7.1,7.2c2.2,1.8,2.4,3.9,1.9,6.5
			C887.3,123.3,882.3,118.2,877.2,113z"/>
		<path class="st0" d="M861.7,97.9c-5.1-5.2-10.1-10.2-15.2-15.5c2-0.1,3.9-0.8,5.6,1.1c2.5,2.7,5.1,5.4,7.9,7.8
			C862.1,93.2,862.4,95.1,861.7,97.9z"/>
		<path class="st0" d="M897.2,184.2c-2.6,0.7-4.7,0.1-6.5-1.9c-2.3-2.6-5-4.7-7.1-7.4c-1-1.3-1-3.3-1.5-5c0.2-0.1,0.5-0.2,0.7-0.3
			C887.6,174.4,892.4,179.3,897.2,184.2z"/>
		<path class="st0" d="M866.5,153.5c-2.4,0.7-4.5,0.2-6.3-1.8c-2-2.3-4.1-4.5-6.4-6.5c-2.2-1.8-2.1-3.9-1.7-6.7
			C857,143.7,861.7,148.6,866.5,153.5z"/>
		<path class="st0" d="M124.2,122.9c-2.8,0.4-4.7,0.2-6.6-1.7c-12.3-12.5-24.8-24.9-37.2-37.3c-0.3-0.3-0.5-0.7-0.9-1.3
			c2.3-0.3,4.2-0.7,5.9,1.1c12.5,12.6,25.1,25.2,37.7,37.9C123.4,121.8,123.7,122.2,124.2,122.9z"/>
		<path class="st0" d="M97.6,82.5c2.6-0.3,4.5-0.5,6.4,1.5c9.7,9.9,19.5,19.6,29.3,29.3c3.1,3,6.2,6,9.2,9.3c-2.3,0.5-4.2,1-6.1-0.9
			c-6.7-6.9-13.6-13.7-20.4-20.5c-5.6-5.6-11.2-11.2-16.7-16.8C98.7,83.8,98.3,83.2,97.6,82.5z"/>
		<path class="st0" d="M155.3,121.9c-13.1-13.1-26.2-26.1-39.5-39.3c2.4-0.4,4.3-0.9,6.1,1c11.1,11.2,22.3,22.4,33.5,33.6
			C157.2,118.8,156.8,120.2,155.3,121.9z"/>
		<path class="st0" d="M134.6,82.4c2.3-0.3,4.3-0.4,6.3,1.7c4.6,5,9.4,9.8,14.3,14.4c1.9,1.8,1.7,3.7,1.3,6
			C149.2,97.1,141.9,89.8,134.6,82.4z"/>
		<path class="st0" d="M153.2,82.4c1.8,0.6,3.3,1.5,3.4,4.4c-1.6-1.6-2.8-2.7-3.9-3.9C152.8,82.7,153,82.5,153.2,82.4z"/>
	</g>
</g>
</svg>
