<?xml version="1.0" encoding="utf-8"?>
<!-- Generator: Adobe Illustrator 22.0.0, SVG Export Plug-In . SVG Version: 6.00 Build 0)  -->
<svg version="1.1" id="Layer_1" xmlns="http://www.w3.org/2000/svg" xmlns:xlink="http://www.w3.org/1999/xlink" x="0px" y="0px"
	 viewBox="0 0 247.4 48.2" style="enable-background:new 0 0 247.4 48.2;" xml:space="preserve">
<style type="text/css">
	.st0{fill:#FFFFFF;}
</style>
<g>
	<g>
		<path class="st0" d="M212.2,48.2c-5,0-10.1,0-15.1,0c0.9-0.5,1.2-1.3,1.2-2.4c0-12.5,0-25,0-37.5c0-1-0.3-1.7-1.1-2.3
			c-1.9-1.5-3.6-3.1-5.5-4.6c-0.6-0.4-1.3-0.8-2-0.8c-2.3-0.1-4.6,0-6.8,0c-2.3,0-2.8,0.5-2.8,2.7c0,5.3,0,10.6,0,16
			c0,0.5,0,0.9,0,1.6c-0.5-0.4-0.8-0.7-1.1-0.9c-6.5-6.1-13-12.2-19.5-18.2c-0.6-0.6-1.5-1.1-2.3-1.1c-2.6-0.1-5.1-0.1-7.7,0
			c-1.5,0-2.1,0.7-2.1,2.2c0,12.6,0,25.3,0,37.9c0,0.6,0.2,1.3,0.6,1.6c2.3,2,4.7,3.9,7.1,5.9c-5,0-9.9,0-14.9,0
			c0.7-0.5,1-1.2,1-2.1c0-12.7,0-25.3-0.1-38c0-0.6-0.4-1.5-0.9-1.9c-1.8-1.6-3.7-3.1-5.5-4.6c-0.8-0.7-1.7-0.9-2.7-0.9
			c-8.2,0-16.5,0-24.7,0c-2.2,0-4.5,0-6.7,0c-1.6,0-2.2,0.6-2.2,2.2c0,12.6,0,25.3,0,37.9c0,0.6,0.3,1.4,0.8,1.9
			c2.2,1.9,4.5,3.8,6.8,5.6c-5,0-10.1,0-15.1,0c0.9-0.6,1.2-1.5,1.1-2.6c-0.1-2-0.1-4,0-6c0-1.2-0.4-2-1.3-2.8
			c-1.6-1.3-3.2-2.6-4.8-3.9c0.2-0.1,0.2-0.2,0.3-0.2c1.1,0,2.2,0,3.4,0c2,0,2.5-0.5,2.5-2.5c0-7.2,0-14.4,0-21.6
			c0-1.2-0.4-2-1.3-2.8c-1.9-1.5-3.7-3.2-5.6-4.7c-0.5-0.4-1.1-0.6-1.7-0.7c-10.7,0-21.4,0-32.1,0c-1.4,0-2.1,0.6-2.1,2
			c0,12.7,0,25.4,0,38.1c0,0.6,0.3,1.4,0.8,1.8c2.2,2,4.5,3.9,6.8,5.8c-13.3,0-26.6,0-39.8,0c0.9-0.6,1.2-1.4,1.1-2.4
			c0-2.9,0-5.8,0-8.8c0-1.4,0-2.8,0-4.3c0.6,0,1.1,0,1.5,0c6.9,0,13.7,0,20.6,0c1.8,0,2.3-0.5,2.3-2.4c0-2.2,0-4.4,0-6.6
			c0-0.9-0.3-1.5-1.1-2.1c-1.6-1.3-3.2-2.7-5-4.4c1.5,0,2.7,0,3.8,0c1.6,0,2.3-0.6,2.3-2.2c0-2.3,0.1-4.6,0-6.8
			c0-0.6-0.3-1.4-0.7-1.8c-1.7-1.6-3.5-3.1-5.2-4.7c-0.8-0.8-1.6-1-2.7-1c-10.4,0-20.7,0-31.1,0c-1.2,0-2.1,0.3-2.7,1.3
			c0-0.6,0-1.1,0-1.7c82.4,0,164.8,0,247.2,0c0,16,0,32,0,48c-0.4,0-0.8,0-1.2,0c0.3-0.6,1-1.3,1-1.9c0.1-2.5,0.1-5,0-7.4
			c0-0.5-0.4-1.2-0.8-1.5c-3.9-3.5-7.9-6.9-11.9-10.4c-0.7-0.6-1.3-1.2-2.2-2c1.8,0,3.1,0,4.5,0c1.6,0,2.2-0.6,2.2-2.3
			c0-1.8,0-3.6,0-5.5c2.1,0,4.1,0,6,0c1.6,0,2.2-0.6,2.2-2.2c0-2.3,0-4.6,0-6.8c0-0.9-0.3-1.5-1-2.1c-1.9-1.5-3.7-3.1-5.6-4.5
			c-0.7-0.5-1.6-0.9-2.5-0.9c-2.3-0.1-4.6-0.1-6.8,0c-2,0-2.5,0.5-2.5,2.5c0,1.7,0,3.5,0,5.2c-2.2,0-4.2,0-5.6,0
			c-0.7-1-1.1-1.8-1.8-2.3c-1.7-1.5-3.5-3-5.3-4.5c-0.5-0.4-1.1-0.8-1.7-0.8c-2.8-0.1-5.5-0.1-8.3,0c-1.2,0-1.8,0.7-1.8,1.9
			c0,1.3,0,2.6,0,3.8c0,11.4,0,22.7,0,34.1c0,0.6,0.1,1.5,0.5,1.9C207.4,44.4,209.8,46.3,212.2,48.2z"/>
		<path d="M155,48.2c-2.4-2-4.8-3.9-7.1-5.9c-0.4-0.3-0.6-1.1-0.6-1.6c0-12.6,0-25.3,0-37.9c0-1.4,0.7-2.1,2.1-2.2
			c2.6,0,5.1-0.1,7.7,0c0.8,0,1.7,0.6,2.3,1.1c6.5,6,13,12.2,19.5,18.2c0.3,0.3,0.6,0.5,1.1,0.9c0-0.7,0-1.2,0-1.6
			c0-5.3,0-10.6,0-16c0-2.2,0.5-2.7,2.8-2.7c2.3,0,4.6-0.1,6.8,0c0.7,0,1.5,0.4,2,0.8c1.9,1.5,3.7,3.1,5.5,4.6
			c0.7,0.6,1.1,1.3,1.1,2.3c0,12.5,0,25,0,37.5c0,1.1-0.3,1.8-1.2,2.4c-3.1,0-6.2,0-9.4,0c-0.3-0.2-0.6-0.4-0.9-0.6
			c-6.7-5.7-13.5-11.4-20.2-17.1c-0.3-0.2-0.5-0.4-1-0.7c0,0.6,0,1,0,1.4c0,4.9,0,9.8,0,14.6c0,1.1-0.3,1.9-1.2,2.4
			C161.3,48.2,158.2,48.2,155,48.2z"/>
		<path d="M56.9,48.2c-2.3-1.9-4.6-3.8-6.8-5.8c-0.4-0.4-0.8-1.2-0.8-1.8c0-12.7,0-25.4,0-38.1c0-1.4,0.7-2,2.1-2
			c10.7,0,21.4,0,32.1,0c0.6,0,1.3,0.3,1.7,0.7c1.9,1.5,3.7,3.2,5.6,4.7c0.9,0.7,1.3,1.6,1.3,2.8c0,7.2,0,14.4,0,21.6
			c0,2-0.5,2.5-2.5,2.5c-1.1,0-2.2,0-3.4,0c-0.1,0-0.1,0.1-0.3,0.2c1.6,1.3,3.2,2.7,4.8,3.9c0.9,0.7,1.4,1.5,1.3,2.8
			c-0.1,2-0.1,4,0,6c0,1.1-0.3,1.9-1.1,2.6c-3.2,0-6.4,0-9.6,0c-4.5-3.7-9-7.3-13.8-11.2c0,3.2,0,5.9,0,8.7c0,1-0.2,1.9-1.1,2.5
			C63.3,48.2,60.1,48.2,56.9,48.2z"/>
		<path d="M106.1,48.2c-2.3-1.9-4.6-3.7-6.8-5.6c-0.5-0.4-0.8-1.2-0.8-1.9c0-12.6,0-25.3,0-37.9c0-1.6,0.5-2.2,2.2-2.2
			c2.2,0,4.5,0,6.7,0c8.2,0,16.5,0,24.7,0c1,0,1.9,0.2,2.7,0.9c1.8,1.6,3.7,3,5.5,4.6c0.5,0.4,0.9,1.3,0.9,1.9
			c0.1,12.7,0,25.3,0.1,38c0,0.9-0.3,1.6-1,2.1c-3.2,0-6.4,0-9.6,0c-2.1-1.8-4.3-3.6-6.5-5.3c-0.9-0.7-1.2-1.4-1.2-2.5
			c0.1-2.5,0-5,0-7.7c-1.7,0-3.3,0.1-4.9,0c-1-0.1-1.4,0.2-1.4,1.3c0.1,3.9,0,7.8,0,11.7c0,1-0.2,1.9-1,2.5
			C112.5,48.2,109.3,48.2,106.1,48.2z"/>
		<path d="M212.2,48.2c-2.4-1.9-4.8-3.8-7.1-5.9c-0.4-0.4-0.5-1.2-0.5-1.9c0-11.4,0-22.7,0-34.1c0-1.3,0-2.6,0-3.8
			c0-1.3,0.5-1.9,1.8-1.9c2.8-0.1,5.5-0.1,8.3,0c0.6,0,1.2,0.4,1.7,0.8c1.8,1.4,3.6,2.9,5.3,4.5c0.6,0.6,1,1.4,1.8,2.3
			c1.5,0,3.5,0,5.6,0c0-1.7,0-3.5,0-5.2c0-2,0.5-2.5,2.5-2.5c2.3,0,4.6-0.1,6.8,0c0.8,0,1.8,0.4,2.5,0.9c1.9,1.4,3.7,3.1,5.6,4.5
			c0.7,0.6,1,1.2,1,2.1c0,2.3,0,4.6,0,6.8c0,1.6-0.6,2.2-2.2,2.2c-2,0-3.9,0-6,0c0,1.9,0,3.7,0,5.5c0,1.7-0.6,2.2-2.2,2.3
			c-1.4,0-2.7,0-4.5,0c0.9,0.8,1.5,1.4,2.2,2c4,3.5,8,6.9,11.9,10.4c0.4,0.4,0.7,1,0.8,1.5c0.1,2.5,0.1,5,0,7.4c0,0.6-0.6,1.3-1,1.9
			c-3.2,0-6.4,0-9.6,0c-0.3-0.2-0.5-0.3-0.8-0.6c-3.1-2.7-6.2-5.4-9.3-8.1c-1.2-1.1-2.4-2.1-3.9-3.3c0,3.4,0,6.5,0,9.6
			c0,1.1-0.3,1.9-1.3,2.3C218.4,48.2,215.3,48.2,212.2,48.2z"/>
		<path d="M0.2,1.9c0.6-1,1.5-1.3,2.7-1.3c10.4,0,20.7,0,31.1,0c1.1,0,1.9,0.3,2.7,1c1.7,1.6,3.5,3.1,5.2,4.7
			c0.4,0.4,0.7,1.2,0.7,1.8c0.1,2.3,0,4.6,0,6.8c0,1.6-0.6,2.2-2.3,2.2c-1.1,0-2.3,0-3.8,0c1.9,1.6,3.4,3.1,5,4.4
			c0.7,0.6,1.1,1.2,1.1,2.1c0,2.2,0,4.4,0,6.6c0,1.8-0.5,2.4-2.3,2.4c-6.9,0-13.7,0-20.6,0c-0.5,0-0.9,0-1.5,0c0,1.6,0,2.9,0,4.3
			c0,2.9,0,5.8,0,8.8c0,1-0.2,1.9-1.1,2.4c-3.2,0-6.4,0-9.6,0c-1.6-1.5-3.2-3-4.8-4.5C1.8,43,1,42.3,0.2,41.5
			C0.2,28.3,0.2,15.1,0.2,1.9z"/>
		<path class="st0" d="M164.4,48.2c0.9-0.5,1.2-1.3,1.2-2.4c0-4.9,0-9.8,0-14.6c0-0.4,0-0.8,0-1.4c0.4,0.3,0.7,0.5,1,0.7
			c6.7,5.7,13.5,11.4,20.2,17.1c0.3,0.2,0.6,0.4,0.9,0.6C179.9,48.2,172.2,48.2,164.4,48.2z"/>
		<path class="st0" d="M115.7,48.2c0.8-0.6,1.1-1.5,1-2.5c0-3.9,0-7.8,0-11.7c0-1.1,0.3-1.4,1.4-1.3c1.6,0.1,3.2,0,4.9,0
			c0,2.7,0,5.2,0,7.7c0,1.1,0.3,1.9,1.2,2.5c2.2,1.7,4.3,3.5,6.5,5.3C125.6,48.2,120.6,48.2,115.7,48.2z"/>
		<path class="st0" d="M221.5,48.2c1-0.5,1.3-1.3,1.3-2.3c-0.1-3.1,0-6.2,0-9.6c1.4,1.2,2.7,2.3,3.9,3.3c3.1,2.7,6.2,5.4,9.3,8.1
			c0.2,0.2,0.5,0.4,0.8,0.6C231.6,48.2,226.6,48.2,221.5,48.2z"/>
		<path class="st0" d="M66.5,48.2c0.9-0.6,1.1-1.4,1.1-2.5c-0.1-2.8,0-5.5,0-8.7c4.8,3.9,9.3,7.5,13.8,11.2
			C76.4,48.2,71.4,48.2,66.5,48.2z"/>
		<path class="st0" d="M0.2,41.5C1,42.3,1.8,43,2.6,43.8c1.6,1.5,3.2,3,4.8,4.5c-2.4,0-4.8,0-7.2,0C0.2,46,0.2,43.8,0.2,41.5z"/>
	</g>
</g>
</svg>
