<?xml version="1.0" encoding="utf-8"?>
<svg version="1.1" id="Layer_1" xmlns="http://www.w3.org/2000/svg" xmlns:xlink="http://www.w3.org/1999/xlink" x="0px" y="0px"
	 viewBox="0 0 870.3 208.1" style="enable-background:new 0 0 870.3 208.1;" xml:space="preserve">
<style type="text/css">
	.st0{fill:#FFFFFF;}
</style>
<g>
	<path class="st0" d="M0.7,0c0,69.4,0,138.7,0,208.1c-0.2-0.5-0.7-1-0.7-1.5C0,138.2,0,69.9,0,1.5C0,1,0.5,0.5,0.7,0z"/>
	<path class="st0" d="M637.9,94.5c0-2.2,0-3.5,0-4.8c0-18.8,0-37.6,0-56.5c0-6.8,1.8-8.6,8.6-8.7c8.2,0,16.4-0.2,24.5,0.1
		c2.4,0.1,5,1.2,6.9,2.7c6.7,5.3,13.3,10.7,19.6,16.4c1.6,1.5,3,4.1,3.1,6.2c0.2,43.6,0.1,87.2,0.1,130.8c0,4.7-2.2,6.8-6.8,6.8
		c-9,0-18.1,0.2-27.1-0.1c-2-0.1-4.3-1.1-5.9-2.4c-23.2-19.3-46.4-38.7-69.5-58.1c-0.9-0.8-1.9-1.5-3.2-2.5
		c-0.1,1.5-0.2,2.6-0.2,3.6c0,17,0,33.9,0,50.9c0,6.9-1.7,8.6-8.4,8.6c-8.4,0-16.8,0.2-25.3-0.1c-2.1-0.1-4.6-1.1-6.3-2.4
		c-6.6-5.2-12.9-10.8-19.5-16.1c-2.4-2-3.5-4.2-3.5-7.3c0-43.2,0-86.4,0-129.6c0-5.2,2.3-7.4,7.5-7.5c8.7-0.1,17.4-0.3,26,0.1
		c2.7,0.1,5.7,1.7,7.7,3.5c23.3,21.3,46.4,42.8,69.5,64.3C636.1,92.9,636.6,93.3,637.9,94.5z M545.6,158.6c4.9-0.1,9-4.1,8.8-8.7
		c-0.2-4.4-4.3-8.3-8.9-8.3c-4.8,0-8.9,4-8.9,8.6C536.6,154.8,540.7,158.7,545.6,158.6z M593,96.8c-0.1,4.7,3.9,8.6,8.8,8.6
		c4.9,0,9-3.8,9-8.5c0-4.5-4-8.4-8.6-8.5C597.2,88.3,593.1,92.1,593,96.8z M545.3,78.8c4.9,0.1,9-3.7,9.1-8.4c0.1-4.6-4.1-8.6-9-8.6
		c-4.7,0-8.7,3.7-8.8,8.3C536.4,74.8,540.3,78.7,545.3,78.8z M545.4,88.4c-4.9,0-8.9,4-8.8,8.7c0.1,4.6,4.3,8.5,9.1,8.3
		c4.7-0.1,8.7-4,8.7-8.5C554.4,92.4,550.2,88.4,545.4,88.4z M649.5,96.7c-0.1,4.7,3.9,8.6,8.7,8.7c4.8,0.1,9-3.9,9-8.5
		c0-4.4-4-8.4-8.7-8.5C653.8,88.3,649.6,92.1,649.5,96.7z M545.3,52.2c4.9,0,9-3.8,9-8.4c0-4.6-4.1-8.5-9-8.5
		c-4.7,0-8.7,3.8-8.8,8.3C536.5,48.3,540.3,52.1,545.3,52.2z M573.7,78.8c4.9,0,9-4,8.9-8.6c-0.1-4.5-4.4-8.5-9.1-8.4
		c-4.7,0.1-8.6,3.9-8.6,8.4C564.8,75,568.8,78.9,573.7,78.8z M658.3,78.8c4.9,0,9-3.9,8.9-8.6c-0.1-4.5-4-8.3-8.7-8.4
		c-4.9-0.1-9,3.7-9.1,8.4C649.4,74.9,653.4,78.8,658.3,78.8z M658.5,52.2c4.9,0,8.9-4,8.8-8.6c-0.1-4.5-4.1-8.3-8.8-8.3
		c-4.9,0-8.9,3.8-8.9,8.5C649.5,48.5,653.4,52.2,658.5,52.2z M658.3,158.6c4.7,0,8.8-3.7,8.9-8.2c0.2-4.6-3.9-8.7-8.7-8.9
		c-4.8-0.2-9,3.8-9.1,8.5C649.4,154.7,653.4,158.6,658.3,158.6z M545.4,132c4.9,0,9-3.9,9-8.5c0-4.7-4.2-8.5-9.1-8.4
		c-4.8,0.1-8.7,3.7-8.7,8.3C536.5,128.1,540.5,131.9,545.4,132z M658.4,131.9c4.9,0,8.9-3.9,8.8-8.6c-0.1-4.5-4.1-8.2-8.8-8.3
		c-5,0-9,3.7-9,8.4C649.5,128.2,653.4,132,658.4,131.9z M630.2,131.9c4.8,0,8.7-3.7,8.8-8.2c0.1-4.7-3.8-8.6-8.7-8.7
		c-5-0.1-9,3.7-9,8.4C621.2,128.2,625.1,131.9,630.2,131.9z"/>
	<path class="st0" d="M312.2,135c6.2,5.1,11.9,9.9,17.8,14.6c2.6,2,3.7,4.4,3.6,7.6c-0.1,7.4,0,14.9,0,22.3c0,6.2-1.8,8-7.9,8.1
		c-8.4,0-16.8,0.2-25.3-0.1c-2.4-0.1-5.1-1-7-2.5c-14.1-11-28.1-22.3-42.2-33.5c-0.6-0.4-1.2-0.8-2.2-1.5c-0.1,1.4-0.2,2.5-0.2,3.5
		c0,8.9,0,17.8,0,26.7c0,5.2-2,7.3-7.1,7.3c-8.9,0-17.8,0.1-26.7-0.1c-2-0.1-4.4-1-6-2.2c-6.8-5.4-13.2-11.2-19.9-16.7
		c-2.5-2.1-3.6-4.4-3.6-7.7c0.1-43.1,0-86.2,0.1-129.3c0-5.6,2-7.7,7.6-7.7c36.8,0,73.5-0.1,110.3,0.1c2.2,0,4.8,1.1,6.6,2.6
		c6.8,5.4,13.3,11.1,20,16.6c2.5,2.1,3.6,4.4,3.6,7.7c-0.1,25.3,0,50.5-0.1,75.8c0,5.8-2.1,7.8-7.8,7.8c-4.1,0-8.2,0-12.3,0
		C313.3,134.5,313.1,134.7,312.2,135z M262.3,88.4c-4.9,0.1-9,4.1-8.8,8.7c0.1,4.6,4.4,8.5,9.2,8.3c4.7-0.2,8.6-4,8.6-8.5
		C271.3,92.2,267.2,88.4,262.3,88.4z M291.2,88.5c-4.9-0.3-9.1,3.4-9.4,8.1c-0.2,4.5,3.5,8.5,8.2,8.8c4.8,0.4,9.2-3.3,9.5-7.9
		C299.9,92.8,296.1,88.7,291.2,88.5z M290.8,158.6c4.9-0.1,8.9-4,8.8-8.7c-0.1-4.5-4.2-8.3-8.8-8.4c-4.7-0.1-9,4-9,8.6
		C281.8,154.7,285.9,158.6,290.8,158.6z M214.8,150.1c0-4.7-4.2-8.7-8.9-8.6c-4.7,0.1-9,4.3-8.9,8.7c0.1,4.6,4.3,8.4,9.2,8.3
		C211,158.5,214.8,154.7,214.8,150.1z M206,78.8c4.9,0,8.9-4,8.8-8.6c-0.1-4.6-4-8.3-8.7-8.4c-4.8-0.1-9.1,3.9-9.1,8.5
		C197.1,75,201.1,78.9,206,78.8z M214.8,97c0-4.7-4-8.6-8.9-8.6c-4.7,0-8.8,3.8-8.9,8.2c-0.1,4.6,3.9,8.6,8.8,8.7
		C210.7,105.5,214.8,101.7,214.8,97z M234,88.4c-4.8,0.1-8.9,4.2-8.7,8.8c0.2,4.5,4.2,8.2,8.9,8.2c4.9,0,8.9-3.9,8.9-8.6
		C243,92.2,238.9,88.3,234,88.4z M290.7,52.2c5,0,8.9-3.8,8.8-8.6c-0.1-4.6-4.3-8.5-9.1-8.3c-4.7,0.1-8.6,3.9-8.6,8.5
		C281.8,48.4,285.8,52.2,290.7,52.2z M262.6,52.2c4.9-0.1,8.9-4,8.7-8.7c-0.2-4.5-4.2-8.2-8.9-8.2c-4.8,0-9,4-8.9,8.6
		C253.6,48.4,257.7,52.2,262.6,52.2z M234.2,52.2c5,0,8.9-3.8,8.9-8.5c-0.1-4.7-4.2-8.5-9.1-8.4c-4.7,0.1-8.7,3.9-8.7,8.4
		C225.2,48.3,229.3,52.2,234.2,52.2z M299.6,70.1c-0.1-4.6-4.3-8.5-9.2-8.3c-4.7,0.2-8.6,4-8.6,8.5c0,4.7,4.1,8.6,9,8.5
		C295.7,78.8,299.6,74.9,299.6,70.1z M206.1,52.2c5-0.1,8.9-3.9,8.7-8.6c-0.1-4.5-4.1-8.2-8.8-8.3c-4.9,0-9,3.9-9,8.5
		C197.1,48.5,201.1,52.2,206.1,52.2z M262.4,131.9c5,0,9-3.8,8.9-8.5c0-4.5-3.9-8.3-8.7-8.4c-4.9-0.1-9.1,3.7-9.1,8.3
		C253.4,128,257.4,131.9,262.4,131.9z M214.8,123.7c0.1-4.8-3.8-8.6-8.7-8.6c-4.9,0-9,3.8-9,8.4c0,4.5,3.9,8.3,8.6,8.5
		C210.6,132.1,214.7,128.4,214.8,123.7z"/>
	<path class="st0" d="M440.2,134.7c-7.2,0-14,0-21.3,0c0,1.6,0,3,0,4.4c0,13.5,0,27,0,40.5c0,6.1-1.8,7.9-8,7.9
		c-8.5,0-17.1,0.1-25.6-0.1c-2-0.1-4.4-0.9-6-2.1c-6.8-5.2-13.2-10.8-19.9-16.1c-2.6-2-3.8-4.3-3.7-7.6c0.1-43.2,0-86.5,0-129.7
		c0-5.3,2.1-7.5,7.4-7.5c36.9,0,73.8-0.1,110.7,0.1c2,0,4.4,0.9,6,2.2c7,5.5,13.9,11.1,20.6,17c1.5,1.4,2.8,3.9,2.8,5.9
		c0.2,43.7,0.1,87.4,0.1,131.2c0,4.6-1.9,6.6-6.5,6.6c-9.2,0.1-18.3,0.1-27.5-0.1c-1.8,0-3.9-0.9-5.3-2
		c-6.7-5.3-13.2-10.9-19.9-16.1c-3-2.3-4.1-4.9-4-8.6C440.3,152.2,440.2,143.7,440.2,134.7z M460.6,105.4c4.9,0,9-3.9,9-8.5
		c0-4.4-4.1-8.3-8.7-8.4c-4.9-0.1-9,3.7-9.1,8.4C451.7,101.5,455.7,105.4,460.6,105.4z M460.7,78.8c4.9,0,9-4,9-8.6
		c-0.1-4.4-4.1-8.3-8.8-8.4c-4.9-0.1-9,3.7-9.1,8.4C451.7,74.9,455.8,78.8,460.7,78.8z M376.2,52.2c5-0.1,8.9-4,8.7-8.7
		c-0.1-4.5-4.2-8.2-8.9-8.2c-4.9,0-8.9,3.9-8.9,8.6C367.2,48.5,371.1,52.2,376.2,52.2z M395.4,96.7c-0.2,4.7,3.7,8.6,8.7,8.8
		c4.8,0.1,9.1-3.8,9.1-8.4c0-4.4-3.9-8.4-8.6-8.6C399.7,88.2,395.5,92,395.4,96.7z M384.9,97c0-4.6-4.1-8.6-8.9-8.6
		c-4.7,0-8.7,3.7-8.8,8.2c-0.1,4.7,3.7,8.6,8.7,8.7C380.6,105.5,384.9,101.6,384.9,97z M376,158.6c4.9,0,9-4,8.9-8.6
		c-0.1-4.4-4.2-8.4-8.8-8.4c-4.8-0.1-9,3.9-9,8.6C367.1,154.8,371.1,158.6,376,158.6z M460.8,158.6c4.8-0.1,9-4.1,8.8-8.7
		c-0.1-4.4-4.3-8.3-8.9-8.4c-4.8,0-9,4-8.9,8.6C451.8,154.8,455.9,158.6,460.8,158.6z M432.4,52.2c4.9,0,9-3.8,9-8.4
		c0-4.6-4.2-8.5-9.1-8.4c-4.8,0.1-8.7,3.8-8.8,8.3C423.4,48.3,427.4,52.1,432.4,52.2z M460.2,52.2c4.9,0.2,9.1-3.4,9.4-8
		c0.3-4.5-3.8-8.7-8.7-8.9c-4.9-0.2-9,3.7-9.1,8.3C451.7,48.2,455.4,52,460.2,52.2z M375.9,78.8c4.9,0,9-3.9,9-8.5
		c0-4.6-4.3-8.6-9-8.5c-4.7,0.1-8.7,3.9-8.7,8.4C367.1,74.9,371,78.8,375.9,78.8z M432.5,88.4c-4.9-0.1-9,3.8-9,8.5
		c0,4.7,4.1,8.5,9,8.5c4.7,0,8.7-3.8,8.9-8.3C441.5,92.6,437.3,88.5,432.5,88.4z M404.2,52.2c4.9,0,9-3.9,8.9-8.5
		c0-4.6-4.3-8.5-9.1-8.4c-4.8,0.1-8.6,3.8-8.7,8.4C395.3,48.4,399.2,52.2,404.2,52.2z M460.6,132c4.9,0,9.1-3.9,9-8.5
		c0-4.6-4.2-8.5-9.1-8.4c-4.8,0.1-8.6,3.7-8.7,8.3C451.7,128.1,455.6,131.9,460.6,132z M376,131.9c4.9,0,8.9-3.9,8.8-8.6
		c-0.1-4.6-4.3-8.4-9.2-8.3c-4.7,0.1-8.6,3.8-8.6,8.4C367.1,128.2,371.1,131.9,376,131.9z"/>
	<path class="st0" d="M786.8,51c6,0,12.7,0,19.8,0c0.1-1.3,0.3-2.6,0.3-3.9c0-5.4-0.1-10.9,0.1-16.3c0.1-3.8,2.2-6.1,6-6.2
		c9.5-0.2,19.1-0.2,28.6,0c1.6,0,3.4,0.9,4.6,1.9c7.3,5.8,14.5,11.6,21.5,17.7c1.4,1.3,2.3,3.8,2.4,5.8c0.3,7.9,0.1,15.8,0.1,23.8
		c0,5.2-2.2,7.5-7.4,7.6c-5.4,0.1-10.9,0-16.3,0c-1.3,0-2.7,0-4.4,0c0,6.4,0,12.4,0,18.4c0,6-2,7.9-8,8c-4.6,0-9.3,0-13.9,0
		c-0.4,0.5-0.8,1.1-1.2,1.6c1.2,0.6,2.5,1.1,3.5,1.9c15,12.9,30.1,25.8,44.9,38.9c1.5,1.4,2.7,3.9,2.8,6c0.3,8.2,0.2,16.3,0.1,24.5
		c0,4.6-2.2,6.7-6.9,6.8c-9,0-18.1,0.2-27.1-0.1c-2.2-0.1-4.8-1.3-6.5-2.8c-13.9-11.8-27.6-23.7-41.3-35.7c-0.7-0.6-1.3-1.1-2.6-2.1
		c-0.1,1.8-0.2,3-0.2,4.3c0,9.4,0,18.8,0,28.2c0,6.5-1.7,8.2-8.1,8.2c-8.3,0-16.6,0.2-24.9-0.1c-2.5-0.1-5.4-1.1-7.4-2.6
		c-7-5.3-13.8-10.9-20.3-16.8c-1.5-1.4-2.5-4.3-2.5-6.5c-0.2-24.6-0.1-49.3-0.1-73.9c0-18.4,0-36.9,0-55.3c0-5.9,1.9-7.8,7.7-7.8
		c8.4,0,16.8-0.2,25.3,0.1c2.4,0.1,5.1,1.1,7,2.6c6.9,5.4,13.7,11,20.3,16.8C784.4,45.6,785.2,48.2,786.8,51z M742.7,158.6
		c4.9-0.1,8.9-4,8.8-8.7c-0.1-4.5-4.2-8.3-8.8-8.4c-4.7,0-9,4.1-9,8.6C733.7,154.8,737.8,158.7,742.7,158.6z M827.1,158.6
		c4.9,0.1,9-3.8,9.1-8.4c0-4.6-4.2-8.7-8.9-8.7c-4.6,0-8.8,3.9-8.9,8.3C818.2,154.5,822.3,158.5,827.1,158.6z M742.7,88.4
		c-4.8,0-9,4-9,8.5c0,4.6,4.2,8.5,9,8.5c4.7,0,8.7-3.8,8.8-8.3C751.6,92.4,747.6,88.5,742.7,88.4z M771,88.4c-4.9-0.1-9,3.8-9,8.5
		c0,4.6,3.7,8.4,8.5,8.5c4.9,0.2,9.1-3.6,9.2-8.3C779.8,92.4,775.9,88.5,771,88.4z M733.7,70.5c0.1,4.6,4.3,8.5,9.2,8.3
		c4.9-0.1,8.8-4.1,8.6-8.8c-0.2-4.5-4.2-8.2-8.9-8.2C737.7,61.9,733.6,65.9,733.7,70.5z M807.9,70.4c0-4.7-4-8.6-8.9-8.6
		c-4.7,0-8.8,3.8-8.9,8.3c-0.1,4.7,3.9,8.7,8.8,8.7C803.8,78.9,807.9,75.1,807.9,70.4z M799,132c5,0,8.9-3.7,8.9-8.5
		c0-4.6-3.8-8.3-8.6-8.4c-4.9-0.1-9,3.6-9.2,8.3C790.1,128,794.1,131.9,799,132z M827.2,52.2c5,0,9-3.7,9-8.4c0-4.5-3.9-8.3-8.6-8.5
		c-4.9-0.2-9.1,3.7-9.2,8.3C818.3,48.2,822.3,52.1,827.2,52.2z M742.4,52.2c5,0.1,9-3.6,9-8.3c0-4.6-3.8-8.4-8.5-8.5
		c-4.9-0.2-9.1,3.6-9.3,8.2C733.6,48.2,737.5,52.1,742.4,52.2z M742.7,131.9c5-0.1,8.9-3.9,8.8-8.6c-0.1-4.6-4-8.2-8.8-8.3
		c-4.9,0-9,3.8-9,8.4C733.7,128.1,737.8,132,742.7,131.9z"/>
	<path class="st0" d="M142.8,82.4c5.5,4.8,10.8,9.7,16.5,14.2c2.2,1.8,3.5,3.6,3.5,6.5c-0.1,7.9,0,15.8,0,23.8c0,5.6-2,7.6-7.6,7.6
		c-24.1,0-48.3,0-72.4,0c-1.3,0-2.7,0-4.6,0c0,1.6,0,2.9,0,4.2c0,13.7,0,27.5,0,41.2c0,5.7-1.9,7.6-7.5,7.7c-8.7,0-17.3,0-26,0
		c-2.8,0-4.8-1-6.8-3c-6.1-5.6-12.6-10.8-18.6-16.5c-1.7-1.6-2.7-4.7-2.7-7.1c-0.2-34.9-0.1-69.8-0.1-104.8c0-7.9,0-15.8,0-23.8
		c0-5.9,2-8,7.7-8c36.8,0,73.6-0.1,110.3,0.1c2.1,0,4.6,1,6.3,2.4c6.8,5.6,13.4,11.4,19.8,17.4c1.3,1.2,2.1,3.6,2.2,5.5
		c0.2,8,0.1,16.1,0.1,24.1c0,5-2.1,7.2-7.2,7.4c-4.1,0.1-8.1,0-12.2,0C143.1,81.8,143,82.1,142.8,82.4z M36.8,78.8c4.8,0,9-4,9-8.6
		c0-4.6-4.3-8.5-9.1-8.4c-4.7,0.1-8.6,3.9-8.7,8.4C27.9,74.9,31.9,78.8,36.8,78.8z M130.3,97.2c0.2-4.7-3.7-8.7-8.6-8.8
		c-4.8-0.1-9.1,3.8-9.2,8.4c-0.1,4.3,3.9,8.4,8.6,8.6C126,105.7,130.2,102,130.3,97.2z M36.9,88.4c-4.8,0-8.9,3.9-8.9,8.6
		c0,4.6,3.9,8.3,8.7,8.4c4.7,0.1,9.1-3.9,9.2-8.4C45.9,92.6,41.7,88.5,36.9,88.4z M65,88.4c-4.9,0-8.8,4-8.7,8.7
		c0.1,4.7,4.2,8.5,9.1,8.3c4.7-0.2,8.6-4,8.6-8.5C74,92.3,69.8,88.4,65,88.4z M93.3,88.4c-4.8,0-9,4-8.9,8.6c0.1,4.6,4,8.3,8.7,8.4
		c4.9,0.1,9-3.6,9-8.4C102.2,92.3,98.2,88.4,93.3,88.4z M65.1,52.2c5,0,8.9-3.9,8.8-8.6c-0.1-4.5-4.1-8.3-8.8-8.3
		c-4.9-0.1-8.9,3.7-8.9,8.5C56.2,48.5,60.1,52.2,65.1,52.2z M130.3,43.6c-0.1-4.7-4.2-8.5-9.1-8.3c-4.7,0.1-8.7,4-8.7,8.4
		c0,4.6,4.1,8.5,9,8.5C126.6,52.1,130.4,48.4,130.3,43.6z M36.7,132c4.9,0.1,9-3.8,9.1-8.4c0.1-4.5-4.2-8.5-9-8.5
		c-4.8,0-8.7,3.6-8.8,8.2C27.8,128,31.7,131.9,36.7,132z M36.9,52.2c4.8,0,9-4.1,8.9-8.6c-0.1-4.5-4.5-8.4-9.2-8.3
		c-4.8,0.1-8.6,3.9-8.6,8.4C28,48.5,31.9,52.2,36.9,52.2z M36.7,158.6c4.8,0,9.1-4,9.1-8.5c0-4.5-4.4-8.6-9-8.6
		c-4.8,0-8.9,4.1-8.8,8.8C28.1,154.8,32,158.6,36.7,158.6z M93.3,52.2c5,0,8.9-3.8,8.8-8.6c-0.1-4.6-4-8.3-8.7-8.4
		c-4.8-0.1-9,3.9-9,8.5C84.4,48.4,88.4,52.2,93.3,52.2z"/>
	<path d="M545.6,158.6c-4.9,0.1-9-3.7-9-8.4c0-4.6,4.1-8.7,8.9-8.6c4.6,0,8.7,3.9,8.9,8.3C554.5,154.4,550.5,158.5,545.6,158.6z"/>
	<path d="M593,96.8c0.1-4.7,4.2-8.4,9.1-8.3c4.7,0.1,8.6,4,8.6,8.5c0,4.7-4.1,8.6-9,8.5C596.9,105.4,592.9,101.5,593,96.8z"/>
	<path d="M545.3,78.8c-4.9-0.1-8.9-4-8.7-8.7c0.1-4.5,4.1-8.3,8.8-8.3c4.8,0,9,4,9,8.6C554.3,75.1,550.2,78.9,545.3,78.8z"/>
	<path d="M545.4,88.4c4.8,0,9,3.9,9,8.5c0,4.4-4,8.3-8.7,8.5c-4.9,0.1-9.1-3.7-9.1-8.3C536.5,92.4,540.5,88.5,545.4,88.4z"/>
	<path d="M649.5,96.7c0.1-4.6,4.3-8.4,9.1-8.3c4.6,0.1,8.7,4.1,8.7,8.5c0,4.6-4.2,8.6-9,8.5C653.4,105.4,649.4,101.4,649.5,96.7z"/>
	<path d="M545.3,52.2c-5,0-8.9-3.9-8.8-8.6c0.1-4.5,4.1-8.2,8.8-8.3c4.9,0,9,3.9,9,8.5C554.4,48.4,550.3,52.2,545.3,52.2z"/>
	<path d="M573.7,78.8c-4.9,0-8.9-3.8-8.8-8.6c0-4.6,3.9-8.3,8.6-8.4c4.8-0.1,9.1,3.9,9.1,8.4C582.7,74.9,578.6,78.8,573.7,78.8z"/>
	<path d="M658.3,78.8c-4.9,0-8.9-3.9-8.8-8.6c0.1-4.7,4.2-8.5,9.1-8.4c4.7,0.1,8.6,3.9,8.7,8.4C667.3,74.9,663.2,78.8,658.3,78.8z"
		/>
	<path d="M658.5,52.2c-5,0-8.9-3.6-9-8.4c0-4.7,4-8.5,8.9-8.5c4.7,0,8.7,3.8,8.8,8.3C667.4,48.2,663.4,52.1,658.5,52.2z"/>
	<path d="M658.3,158.6c-4.9,0-8.9-3.9-8.8-8.6c0.1-4.7,4.3-8.6,9.1-8.5c4.8,0.2,8.9,4.3,8.7,8.9C667.1,154.9,663,158.6,658.3,158.6z
		"/>
	<path d="M545.4,132c-4.9,0-8.9-3.9-8.8-8.6c0.1-4.6,4-8.3,8.7-8.3c4.9-0.1,9,3.7,9.1,8.4C554.4,128.1,550.3,132,545.4,132z"/>
	<path d="M658.4,131.9c-5,0-8.9-3.7-8.9-8.4c0-4.7,4-8.5,9-8.4c4.7,0,8.7,3.8,8.8,8.3C667.4,128,663.4,131.9,658.4,131.9z"/>
	<path d="M630.2,131.9c-5,0-8.9-3.7-8.9-8.5c0-4.7,4-8.5,9-8.4c4.9,0,8.9,4,8.7,8.7C638.9,128.3,634.9,131.9,630.2,131.9z"/>
	<path d="M262.3,88.4c4.9-0.1,9,3.8,9,8.5c0,4.5-3.9,8.3-8.6,8.5c-4.8,0.2-9.1-3.7-9.2-8.3C253.4,92.5,257.5,88.5,262.3,88.4z"/>
	<path d="M291.2,88.5c4.9,0.3,8.7,4.3,8.4,9c-0.3,4.6-4.7,8.3-9.5,7.9c-4.8-0.4-8.5-4.3-8.2-8.8C282,91.9,286.3,88.2,291.2,88.5z"/>
	<path d="M290.8,158.6c-4.9,0.1-9-3.8-9-8.5c0-4.6,4.3-8.6,9-8.6c4.6,0.1,8.7,3.9,8.8,8.4C299.7,154.6,295.7,158.5,290.8,158.6z"/>
	<path d="M214.8,150.1c0,4.6-3.8,8.4-8.6,8.5c-4.9,0.1-9.1-3.7-9.2-8.3c-0.1-4.5,4.1-8.7,8.9-8.7
		C210.7,141.4,214.8,145.4,214.8,150.1z"/>
	<path d="M206,78.8c-4.9,0-9-3.8-9-8.5c0-4.5,4.3-8.5,9.1-8.5c4.7,0.1,8.6,3.8,8.7,8.4C214.9,74.9,210.9,78.8,206,78.8z"/>
	<path d="M214.8,97c0,4.7-4.1,8.5-9,8.4c-4.9-0.1-8.9-4.1-8.8-8.7c0.1-4.4,4.2-8.2,8.9-8.2C210.8,88.4,214.9,92.3,214.8,97z"/>
	<path d="M234,88.4c4.8-0.1,9,3.8,9.1,8.4c0,4.7-4,8.6-8.9,8.6c-4.7,0-8.8-3.7-8.9-8.2C225.1,92.6,229.2,88.5,234,88.4z"/>
	<path d="M290.7,52.2c-5,0-9-3.7-9-8.4c0-4.5,3.9-8.3,8.6-8.5c4.9-0.1,9.1,3.7,9.1,8.3C299.6,48.3,295.7,52.1,290.7,52.2z"/>
	<path d="M262.6,52.2c-4.9,0.1-9-3.7-9.1-8.3c0-4.6,4.1-8.6,8.9-8.6c4.7,0,8.7,3.7,8.9,8.2C271.5,48.2,267.5,52.1,262.6,52.2z"/>
	<path d="M234.2,52.2c-4.9,0-9-3.8-8.9-8.5c0-4.5,4-8.3,8.7-8.4c4.9-0.1,9,3.7,9.1,8.4C243.1,48.4,239.2,52.2,234.2,52.2z"/>
	<path d="M299.6,70.1c0.1,4.7-3.9,8.6-8.8,8.7c-4.9,0.1-9-3.8-9-8.5c0-4.5,3.9-8.4,8.6-8.5C295.2,61.7,299.5,65.5,299.6,70.1z"/>
	<path d="M206.1,52.2c-5,0.1-9-3.7-9-8.4c0-4.6,4.1-8.5,9-8.5c4.7,0,8.7,3.7,8.8,8.3C214.9,48.3,211.1,52.1,206.1,52.2z"/>
	<path d="M262.4,131.9c-5,0-9-3.9-8.9-8.6c0.1-4.6,4.2-8.4,9.1-8.3c4.8,0.1,8.7,3.8,8.7,8.4C271.4,128.2,267.4,132,262.4,131.9z"/>
	<path d="M214.8,123.7c-0.1,4.7-4.2,8.4-9.2,8.2c-4.8-0.2-8.7-4-8.6-8.5c0-4.7,4.2-8.5,9-8.4C211,115.1,214.9,118.9,214.8,123.7z"/>
	<path d="M460.6,105.4c-4.9,0-8.9-3.9-8.8-8.6c0.1-4.7,4.2-8.5,9.1-8.4c4.6,0.1,8.7,4,8.7,8.4C469.7,101.5,465.5,105.4,460.6,105.4z
		"/>
	<path d="M460.7,78.8c-4.9,0-8.9-3.9-8.9-8.6c0.1-4.7,4.2-8.5,9.1-8.4c4.7,0.1,8.7,4,8.8,8.4C469.7,74.8,465.5,78.8,460.7,78.8z"/>
	<path d="M376.2,52.2c-5,0.1-9-3.6-9-8.3c0-4.7,4-8.6,8.9-8.6c4.7,0,8.7,3.8,8.9,8.2C385,48.2,381.1,52.1,376.2,52.2z"/>
	<path d="M395.4,96.7c0.2-4.7,4.3-8.4,9.2-8.2c4.7,0.2,8.6,4.2,8.6,8.6c0,4.6-4.3,8.5-9.1,8.4C399.1,105.3,395.2,101.4,395.4,96.7z"
		/>
	<path d="M384.9,97c0,4.6-4.3,8.5-9.1,8.4c-5-0.1-8.8-4-8.7-8.7c0.1-4.5,4.1-8.3,8.8-8.2C380.8,88.4,384.9,92.4,384.9,97z"/>
	<path d="M376,158.6c-4.9,0-8.9-3.8-8.9-8.5c0-4.6,4.2-8.6,9-8.6c4.6,0.1,8.7,4,8.8,8.4C385,154.6,380.9,158.5,376,158.6z"/>
	<path d="M460.8,158.6c-4.9,0.1-9-3.8-9-8.5c0-4.6,4.2-8.7,8.9-8.6c4.6,0,8.7,4,8.9,8.4C469.8,154.4,465.6,158.5,460.8,158.6z"/>
	<path d="M432.4,52.2c-5,0-8.9-3.9-8.8-8.6c0.1-4.5,4-8.2,8.8-8.3c4.8-0.1,9.1,3.9,9.1,8.4C441.4,48.3,437.3,52.2,432.4,52.2z"/>
	<path d="M460.2,52.2c-4.8-0.2-8.5-4-8.4-8.6c0.1-4.7,4.3-8.5,9.1-8.3c4.8,0.2,8.9,4.3,8.7,8.9C469.4,48.7,465.1,52.4,460.2,52.2z"
		/>
	<path d="M375.9,78.8c-4.9,0-8.9-3.9-8.8-8.6c0.1-4.5,4-8.3,8.7-8.4c4.8-0.1,9,3.9,9,8.5C384.9,75,380.8,78.9,375.9,78.8z"/>
	<path d="M432.5,88.4c4.8,0.1,9,4.2,8.9,8.7c-0.1,4.5-4.2,8.3-8.9,8.3c-4.9,0-9-3.9-9-8.5C423.6,92.2,427.7,88.4,432.5,88.4z"/>
	<path d="M404.2,52.2c-5,0-8.9-3.7-8.8-8.5c0-4.5,3.9-8.3,8.7-8.4c4.9-0.1,9.1,3.8,9.1,8.4C413.2,48.3,409.1,52.2,404.2,52.2z"/>
	<path d="M460.6,132c-5,0-8.9-3.9-8.8-8.6c0.1-4.6,4-8.3,8.7-8.3c4.9-0.1,9,3.8,9.1,8.4C469.7,128.1,465.5,132,460.6,132z"/>
	<path d="M376,131.9c-5,0-9-3.7-8.9-8.5c0-4.6,3.9-8.3,8.6-8.4c4.9-0.1,9.1,3.7,9.2,8.3C385,128,381,131.9,376,131.9z"/>
	<path d="M742.7,158.6c-4.9,0.1-9-3.8-9-8.5c0-4.5,4.3-8.7,9-8.6c4.6,0,8.7,3.9,8.8,8.4C751.6,154.6,747.6,158.5,742.7,158.6z"/>
	<path d="M827.1,158.6c-4.9-0.1-8.9-4.1-8.8-8.7c0.1-4.4,4.4-8.3,8.9-8.3c4.7,0,9,4.1,8.9,8.7C836.2,154.8,832,158.7,827.1,158.6z"
		/>
	<path d="M742.7,88.4c4.9,0,8.9,4,8.8,8.7c-0.1,4.5-4,8.3-8.8,8.3c-4.9,0-9-3.9-9-8.5C733.7,92.4,737.9,88.4,742.7,88.4z"/>
	<path d="M771,88.4c4.9,0.1,8.8,4,8.7,8.7c-0.1,4.7-4.3,8.4-9.2,8.3c-4.8-0.2-8.5-3.9-8.5-8.5C762,92.2,766.1,88.4,771,88.4z"/>
	<path d="M733.7,70.5c-0.1-4.6,4-8.6,8.9-8.7c4.7-0.1,8.7,3.6,8.9,8.2c0.2,4.7-3.7,8.7-8.6,8.8C738,79,733.8,75.1,733.7,70.5z"/>
	<path d="M807.9,70.4c0,4.7-4.1,8.5-9,8.4c-4.9-0.1-8.9-4.1-8.8-8.7c0.1-4.4,4.2-8.2,8.9-8.3C803.9,61.8,808,65.7,807.9,70.4z"/>
	<path d="M799,132c-4.9,0-9-4-8.9-8.6c0.1-4.7,4.3-8.4,9.2-8.3c4.8,0.1,8.6,3.8,8.6,8.4C808,128.2,804,132,799,132z"/>
	<path d="M827.2,52.2c-4.9,0-9-3.9-8.8-8.6c0.1-4.6,4.4-8.4,9.2-8.3c4.7,0.1,8.6,4,8.6,8.5C836.2,48.5,832.2,52.2,827.2,52.2z"/>
	<path d="M742.4,52.2c-4.9-0.1-8.9-4-8.7-8.7c0.1-4.6,4.4-8.4,9.3-8.2c4.8,0.2,8.6,4,8.5,8.5C751.5,48.5,747.5,52.2,742.4,52.2z"/>
	<path d="M742.7,131.9c-4.9,0.1-9-3.8-9-8.5c0-4.6,4.1-8.5,9-8.4c4.8,0,8.7,3.7,8.8,8.3C751.6,128.1,747.7,131.9,742.7,131.9z"/>
	<path d="M36.8,78.8c-4.9,0-9-3.9-8.9-8.6c0.1-4.5,4-8.3,8.7-8.4c4.8-0.1,9.1,3.9,9.1,8.4C45.8,74.8,41.7,78.8,36.8,78.8z"/>
	<path d="M130.3,97.2c-0.2,4.8-4.3,8.4-9.2,8.2c-4.6-0.2-8.7-4.3-8.6-8.6c0.1-4.6,4.4-8.5,9.2-8.4C126.6,88.5,130.5,92.5,130.3,97.2
		z"/>
	<path d="M36.9,88.4c4.8,0,9,4.1,9,8.6c-0.1,4.5-4.5,8.5-9.2,8.4c-4.8-0.1-8.6-3.9-8.7-8.4C27.9,92.3,32,88.4,36.9,88.4z"/>
	<path d="M65,88.4c4.8,0,9,3.9,9,8.5c0,4.5-3.9,8.3-8.6,8.5c-4.9,0.2-9-3.6-9.1-8.3C56.1,92.4,60.1,88.5,65,88.4z"/>
	<path d="M93.3,88.4c4.9,0,8.9,3.9,8.9,8.6c-0.1,4.8-4.1,8.5-9,8.4c-4.8-0.1-8.6-3.8-8.7-8.4C84.3,92.4,88.4,88.4,93.3,88.4z"/>
	<path d="M65.1,52.2c-5,0-8.9-3.6-8.9-8.4c0-4.7,4-8.5,8.9-8.5c4.7,0.1,8.7,3.8,8.8,8.3C74,48.3,70.1,52.1,65.1,52.2z"/>
	<path d="M130.3,43.6c0.1,4.8-3.8,8.5-8.8,8.6c-4.9,0-9.1-3.9-9-8.5c0-4.4,4-8.3,8.7-8.4C126.1,35.1,130.3,38.9,130.3,43.6z"/>
	<path d="M36.7,132c-5-0.1-8.9-3.9-8.7-8.7c0.1-4.6,4-8.2,8.8-8.2c4.8,0,9.1,4,9,8.5C45.7,128.2,41.6,132,36.7,132z"/>
	<path d="M36.9,52.2c-5,0-8.9-3.6-8.9-8.4c0-4.6,3.8-8.3,8.6-8.4c4.8-0.1,9.1,3.8,9.2,8.3C45.9,48,41.7,52.1,36.9,52.2z"/>
	<path d="M36.7,158.6c-4.7,0-8.7-3.8-8.7-8.3c-0.1-4.7,4-8.7,8.8-8.8c4.6,0,9,4.1,9,8.6C45.8,154.6,41.6,158.6,36.7,158.6z"/>
	<path d="M93.3,52.2c-5,0-9-3.8-9-8.5c0-4.6,4.2-8.5,9-8.5c4.8,0.1,8.6,3.8,8.7,8.4C102.2,48.4,98.3,52.2,93.3,52.2z"/>
</g>
</svg>
