<?xml version="1.0" encoding="UTF-8"?>
<svg width="40px" height="33px" viewBox="0 0 40 33" version="1.1" xmlns="http://www.w3.org/2000/svg" xmlns:xlink="http://www.w3.org/1999/xlink">
    <!-- Generator: Sketch 51.2 (57519) - http://www.bohemiancoding.com/sketch -->
    <title>Group 5</title>
    <desc>Created with Sketch.</desc>
    <defs>
        <polygon id="path-1" points="0 0.443625 25.8504167 0.443625 25.8504167 26.25 0 26.25"></polygon>
    </defs>
    <g id="testing-4" stroke="none" stroke-width="1" fill="none" fill-rule="evenodd">
        <g id="Drugs-info_M1.1-Copy" transform="translate(-265.000000, -1281.000000)">
            <g id="Group-5" transform="translate(259.000000, 1269.000000)">
                <g id="Group-11" transform="translate(25.500000, 26.000000) rotate(45.000000) translate(-25.500000, -26.000000) translate(8.000000, 8.000000)">
                    <g id="Group-10">
                        <path d="M9.732625,9.1923125 L10.108875,10.6010625 C10.8117917,10.4143958 11.5336667,10.2918958 12.2686667,10.2393958 L12.1636667,8.78397917 C11.33825,8.84377083 10.5245,8.98085417 9.732625,9.1923125 M15.1415833,8.9035625 L14.9199167,10.3458542 C15.831375,10.4858542 16.7180417,10.7337708 17.5624167,11.0808542 L18.1180417,9.73335417 C17.16575,9.3410625 16.16825,9.06252083 15.1415833,8.9035625 M20.9472083,11.3346042 L20.0780417,12.5056458 C20.8159583,13.0525208 21.4853333,13.6868958 22.0745,14.3898125 L23.1930417,13.4535625 C22.5295,12.6616875 21.777,11.9514792 20.9472083,11.3346042 M24.8949167,16.0610625 L23.58825,16.7085625 C23.9936667,17.5281458 24.3028333,18.3958542 24.5055417,19.2941875 L25.9274167,18.9733542 C25.6999167,17.9612708 25.3528333,16.9856458 24.8949167,16.0610625 M26.24825,22.0446042 L24.7899167,22.0256458 C24.77825,22.9531458 24.6586667,23.8646042 24.4355417,24.7483542 L25.850125,25.1056458 C26.1009583,24.1110625 26.235125,23.0858542 26.24825,22.0446042" id="Fill-1" fill="#000000"></path>
                        <path d="M25.3086458,25.7957292 L24.9280208,24.3884375 C24.1230208,24.6071875 23.2903125,24.7369792 22.4444792,24.7778125 L22.5144792,26.2346875 C23.4653125,26.1894792 24.4015625,26.0407292 25.3086458,25.7957292 M19.5248958,26.0392708 L19.7844792,24.6057292 C18.8773958,24.4409375 17.9980208,24.1711458 17.1623958,23.8007292 L16.5717708,25.1336458 C17.5138542,25.5507292 18.5040625,25.8555208 19.5248958,26.0392708 M13.7921875,23.4653125 L14.6905208,22.3176042 C13.9671875,21.7517708 13.3123958,21.1013542 12.7407292,20.3838542 L11.6003125,21.2923958 C12.2434375,22.0988542 12.9784375,22.8294792 13.7921875,23.4653125 M9.9640625,18.6455208 L11.2867708,18.0315625 C10.9017708,17.2017708 10.6144792,16.3267708 10.4351042,15.4240625 L9.00447917,15.7098958 C9.2071875,16.7263542 9.5309375,17.7107292 9.9640625,18.6455208 M8.75947917,12.6313542 L10.2163542,12.6853125 C10.2513542,11.7592708 10.3928125,10.8507292 10.6392708,9.9728125 L9.23489583,9.5790625 C8.9578125,10.5678125 8.79739583,11.5901042 8.75947917,12.6313542" id="Fill-3" fill="#000000"></path>
                        <g id="Group-7" transform="translate(0.000000, 8.749708)">
                            <mask id="mask-2" fill="white">
                                <use xlink:href="#path-1"></use>
                            </mask>
                            <g id="Clip-6"></g>
                            <path d="M0,13.1252917 C0,20.3746667 5.875625,26.2502917 13.125,26.2502917 C19.1683333,26.2502917 24.3877083,22.1334167 25.8504167,16.3555 L24.4358333,15.9982083 C23.135,21.1315417 18.4960417,24.7919583 13.125,24.7919583 C6.68208333,24.7919583 1.45833333,19.5682083 1.45833333,13.1252917 C1.45833333,7.80966667 5.04291667,3.20570833 10.1033333,1.85383333 L9.72708333,0.443625 C4.03229167,1.966125 0,7.146125 0,13.1252917" id="Fill-5" fill="#000000" mask="url(#mask-2)"></path>
                        </g>
                        <path d="M35,13.125 C35,5.875625 29.124375,0 21.875,0 C15.95125,0 10.8091667,3.95791667 9.235625,9.57979167 L10.6385417,9.97208333 C12.0370833,4.97729167 16.6104167,1.45833333 21.875,1.45833333 C28.3179167,1.45833333 33.5416667,6.68208333 33.5416667,13.125 C33.5416667,18.4260417 29.9760417,23.02125 24.933125,24.3877083 L25.3122917,25.795 C30.988125,24.2579167 35,19.088125 35,13.125" id="Fill-8" fill="#000000"></path>
                    </g>
                </g>
                <g id="Group-12" transform="translate(29.000000, 31.000000)">
                    <polygon id="Triangle-2" fill="#FFFFFF" points="7.5 1 13 12 2 12"></polygon>
                    <path d="M2.30012632,11.5175529 L7.58181053,2.47684706 L12.8651789,11.4310824 L2.30012632,11.5175529 Z M8.30854737,0.412258824 C8.15781053,0.156964706 7.87991579,0.000494117647 7.57928421,0.000494117647 L7.5776,0.000494117647 C7.27528421,0.00131764706 6.99738947,0.159435294 6.84749474,0.415552941 L0.110652632,11.9449647 C-0.120084211,12.3394353 0.0205473684,12.8417882 0.423073684,13.0682588 C0.551073684,13.1390824 0.695915789,13.1769647 0.842442105,13.1769647 L0.848336842,13.1769647 L14.3220211,13.0657882 C14.7877053,13.0616706 15.1616,12.6894353 15.1582316,12.2348471 C15.1565474,12.0923765 15.1178105,11.9532 15.0453895,11.8304941 L8.30854737,0.412258824 Z" id="Fill-4" fill="#000000"></path>
                    <polygon id="Fill-7" fill="#000000" points="7 8 8 8 8 5 7 5"></polygon>
                    <polygon id="Fill-9" fill="#000000" points="7 9.83333333 8 9.83333333 8 9 7 9"></polygon>
                </g>
            </g>
        </g>
    </g>
</svg>