<?xml version="1.0" encoding="UTF-8"?>
<svg width="53px" height="39px" viewBox="0 0 53 39" version="1.1" xmlns="http://www.w3.org/2000/svg" xmlns:xlink="http://www.w3.org/1999/xlink">
    <!-- Generator: Sketch 51.2 (57519) - http://www.bohemiancoding.com/sketch -->
    <title>Group 2</title>
    <desc>Created with Sketch.</desc>
    <defs></defs>
    <g id="Page-1" stroke="none" stroke-width="1" fill="none" fill-rule="evenodd">
        <g id="New-FRANK-visual-concept---Cocaine---Mobile-Copy-15" transform="translate(-243.000000, -1339.000000)">
            <g id="Group-2" transform="translate(243.000000, 1339.000000)">
                <g id="Group-3" fill="#000000">
                    <path d="M25.9090909,11.0219087 C25.4323636,11.0219087 25.0454545,11.400887 25.0454545,11.868887 L25.0454545,11.8697348 L25.0454545,36.4566913 C25.0445909,36.9246913 24.6585455,37.3036696 24.1818182,37.3045174 L23.3181818,37.3045174 C22.8414545,37.3036696 22.4554091,36.9246913 22.4545455,36.4566913 L22.4545455,27.1306043 C22.4545455,26.6617565 22.0685,26.2827783 21.5917727,26.2827783 L21.5909091,26.2827783 L18.1363636,26.2827783 C17.6596364,26.2827783 17.2727273,26.6617565 17.2727273,27.1297565 L17.2727273,27.1306043 L17.2727273,36.4566913 C17.2727273,36.9246913 16.8858182,37.3036696 16.4090909,37.3045174 L15.5454545,37.3045174 C15.0687273,37.3036696 14.6818182,36.9246913 14.6818182,36.4566913 L14.6818182,11.8697348 C14.6818182,11.4017348 14.2957727,11.0219087 13.8181818,11.0219087 L2.59090909,11.0219087 C2.11418182,11.0219087 1.72727273,10.6420826 1.72727273,10.1740826 C1.72727273,9.70523478 2.11418182,9.32625652 2.59090909,9.32625652 L17.2960455,9.32625652 C17.7736364,9.32625652 18.1596818,8.94643043 18.1596818,8.47843043 C18.1596818,8.21051739 18.031,7.95871304 17.8125,7.79847391 C16.9307273,7.16599565 16.4090909,6.15877826 16.4090909,5.08712609 C16.4090909,3.21427826 17.9558636,1.69582174 19.8636364,1.69582174 C21.7714091,1.69582174 23.3181818,3.21427826 23.3181818,5.08712609 C23.3181818,6.15877826 22.7965455,7.16599565 21.9147727,7.79847391 C21.5330455,8.07825652 21.4535909,8.60899565 21.7385909,8.98458261 C21.9009545,9.19993043 22.1574545,9.32625652 22.4312273,9.32625652 L35.4090909,9.32625652 C35.8866818,9.32625652 36.2727273,9.70523478 36.2727273,10.1740826 C36.2727273,10.6420826 35.8866818,11.0219087 35.4090909,11.0219087 L25.9090909,11.0219087 Z M38,10.1740826 C37.9982727,8.77008261 36.8392727,7.63145217 35.4090909,7.63060435 L24.3467727,7.63060435 C24.8070909,6.85908261 25.0480455,5.98073478 25.0454545,5.08712609 C25.0454545,2.27743043 22.7248636,0.000169565217 19.8636364,0.000169565217 C17.0024091,0.000169565217 14.6818182,2.27743043 14.6818182,5.08712609 C14.6800909,5.98073478 14.9210455,6.85908261 15.3805,7.63060435 L2.59090909,7.63060435 C1.15986364,7.63060435 0,8.76923478 0,10.1740826 C0,11.5789304 1.15986364,12.7175609 2.59090909,12.7175609 L12.9545455,12.7175609 L12.9545455,36.4566913 C12.9562727,37.8606913 14.1152727,38.9984739 15.5454545,39.0001696 L16.4090909,39.0001696 C17.8392727,38.9984739 18.9982727,37.8606913 19,36.4566913 L19,27.9784304 L20.7272727,27.9784304 L20.7272727,36.4566913 C20.729,37.8606913 21.888,38.9984739 23.3181818,39.0001696 L24.1818182,39.0001696 C25.612,38.9984739 26.771,37.8606913 26.7727273,36.4566913 L26.7727273,12.7175609 L35.4090909,12.7175609 C36.8392727,12.7158652 37.9982727,11.5780826 38,10.1740826 Z" id="Fill-1"></path>
                </g>
                <g id="Group-4" transform="translate(28.000000, 18.000000)">
                    <path d="M3,2 L11.5714286,2" id="Line" stroke="#000000" stroke-dasharray="1"></path>
                    <polygon id="Triangle" fill="#000000" transform="translate(1.714286, 2.000000) rotate(-90.000000) translate(-1.714286, -2.000000) " points="1.71428571 0.4 3.42857143 3.6 0 3.6"></polygon>
                </g>
                <g id="Group-6" transform="translate(37.000000, 14.000000)" fill="#000000">
                    <path d="M2.30012632,11.5175529 L7.58181053,2.47684706 L12.8651789,11.4310824 L2.30012632,11.5175529 Z M8.30854737,0.412258824 C8.15781053,0.156964706 7.87991579,0.000494117647 7.57928421,0.000494117647 L7.5776,0.000494117647 C7.27528421,0.00131764706 6.99738947,0.159435294 6.84749474,0.415552941 L0.110652632,11.9449647 C-0.120084211,12.3394353 0.0205473684,12.8417882 0.423073684,13.0682588 C0.551073684,13.1390824 0.695915789,13.1769647 0.842442105,13.1769647 L0.848336842,13.1769647 L14.3220211,13.0657882 C14.7877053,13.0616706 15.1616,12.6894353 15.1582316,12.2348471 C15.1565474,12.0923765 15.1178105,11.9532 15.0453895,11.8304941 L8.30854737,0.412258824 Z" id="Fill-4"></path>
                </g>
                <g id="Group" transform="translate(44.000000, 19.000000)" fill="#000000">
                    <polygon id="Fill-7" points="0.5 3.33333333 1.5 3.33333333 1.5 0 0.5 0"></polygon>
                    <polygon id="Fill-9" points="0.5 5 1.5 5 1.5 4.16666667 0.5 4.16666667"></polygon>
                </g>
            </g>
        </g>
    </g>
</svg>